<?xml-stylesheet href="Poliska-regata-logo.css" type="text/css"?>
<svg xmlns="http://www.w3.org/2000/svg" xml:space="preserve" width="7791px" height="7889px" version="1.1" style="shape-rendering:geometricPrecision; text-rendering:geometricPrecision; image-rendering:optimizeQuality; fill-rule:evenodd; clip-rule:evenodd"
viewBox="0 0 7877.95 7976.14" xmlns:xlink="http://www.w3.org/1999/xlink">
  <path id="flowers" class="fil0" d="M6326.49 1908.87c117.53,460.33 192.45,939.95 200.84,1444 -25.54,2.39 -51.97,-11.64 -78,-16.64 -31.88,-241.7 -74.99,-546.19 -256.67,-727.32 -67.52,-192.04 -273.15,-277.3 -457.71,-294.03 -15.51,-3.54 -26.63,-20.53 -44.47,-18.3 -58.81,8.04 -90.66,-61.04 -131.81,-94.06 9.37,23.59 23.27,45.06 39.63,64.79 205.07,176.75 273.43,189.33 484.23,309.27 204.86,42.58 248.6,563.99 248.28,727.45 -127.88,-32.08 -434.55,-541.03 -436.62,-540.45 24.89,219.78 211.44,586.35 446.52,634.24 76.78,593.02 14.38,1151.32 -75.54,1785.44 -25.26,-340.38 -61.85,-594.98 -141.02,-763.05 -9.36,182.37 53.69,904.28 -65.17,1213.62 62.23,64.07 162.51,203.33 225.9,255.43 285.55,-449.92 608.73,-1433.58 691.55,-1791.27 34.34,16.33 254.22,214.91 281.85,232.16 -16.29,-65.73 -277.19,-350.86 -295.86,-348.55 -45.89,9.76 -367.04,1225.3 -564.22,1425.15 7.22,-44.51 268.74,-1131.3 291.35,-1218.23 53.65,-98.74 126.16,-241.13 169.78,-291.29 90.69,-40.36 182.22,-81.6 273.73,-121.85 289.76,-134.17 699.06,-955.49 744.89,-1126.02 -56.32,136.36 -495.24,895.55 -746.44,1030.42 -58.25,28.69 -119.21,59.5 -178.81,77.82 23.6,-64.73 81.43,-121.7 56.63,-198.88 -41.11,-87.16 -133.19,-136.28 -221.12,-153.02 10.3,-65.14 57.55,-379.53 78.95,-501.03 64.5,1.94 121.88,-45.41 130.81,-110.71l103.04 -753.14c8.63,-63.09 -30.79,-122.19 -89.98,-140.05l0.6 -4.03c1.74,-11.82 -6.51,-22.92 -18.33,-24.66l0 0c-11.83,-1.74 -22.92,6.51 -24.66,18.33l-0.75 5.06c-60.33,2.95 -112.32,48.72 -120.79,110.61l-103.04 753.14c-8.08,59.05 25.93,114.59 78.84,136.12 -16.57,126.83 -59.12,393.89 -76.18,503.76 -58.27,-14.31 -121.61,-18.71 -179.49,-34.01 -5.03,-516.22 -92.89,-997.29 -201.59,-1469.7 53.72,-28.96 80.75,-93.58 60.83,-153.35l-240.43 -721.14c-19.85,-59.53 -79.84,-94.96 -139.95,-86.28 -4.15,-10.69 -16.1,-16.4 -27.1,-12.75l0 0c-10.9,3.63 -17.05,15.19 -14.15,26.16 -54.45,28.67 -81.98,93.76 -61.92,153.93l240.42 721.13c20.2,60.59 81.99,96.21 143.15,85.78zm84.05 2906.56c4.54,-111.2 13.67,-218 33.89,-326.02l41.85 -144.39c-12.33,123.38 -34.77,354.62 -75.74,470.41zm-120.48 608.69c130.62,-396.14 224.12,-827.17 255.65,-1243.35 18.29,-50.15 60.93,-96.02 104.68,-131.98 -51.65,293.75 -214.56,1096.11 -360.33,1375.33zm283.11 -1967.98l159.41 36.58c-12.92,146.44 -45.94,284.35 -63.56,428.26 -50.83,38.85 -87.02,92.76 -113.99,144.44 11.92,-200.56 15.87,-403.98 18.14,-609.28zm-114.5 -26.11l67.93 16.8c-1.42,253.14 1.91,487.96 -24.9,744.72 -16.46,43.38 -26.57,88.73 -39.23,133.16 29.47,-201.39 14.25,-663.58 -3.8,-894.68zm223.99 678.07l14.07 -98.65 90.03 -69.67c-35.23,50.44 -73.12,110.71 -104.1,168.32zm249.56 -511.23c18.57,26.81 41.62,55.37 30.57,92.34 -13.14,32.1 -30.75,61.31 -53.96,86.99 -62.64,30.83 -129.88,64.45 -190.67,105.41 18.93,-114.39 37.51,-251.16 56.56,-376.15 56.97,18.92 123.09,27.8 157.5,91.41z"/>
  <path id="water" class="fil1" d="M5003.17 5463.76c10.74,13.45 110.86,105.94 113.76,168.28 -130.73,32.36 -237.31,-57.36 -483.04,203.71 -115.76,123 -400.1,8.9 -502.22,146.83 -26.31,35.53 -18.96,56.29 9.65,102.04 30.02,47.99 21.25,59.06 -23.47,86.43 -103.25,63.21 -312.53,64.01 -415.18,62.39 -65.29,-1.02 -132.79,3.6 -198.62,4.84 -148.03,2.79 -291.29,24.76 -426.82,97.64 -71.06,38.21 -106.48,92.23 -168.76,132.56 -82.03,53.1 -136.97,30.81 -202.07,16.22 -114.07,-25.57 -269.47,-18.49 -389.24,-6.19 -50.94,5.24 -168.15,22.96 -203.47,24.91 35.23,-18.48 70.55,-34.37 105.39,-53.17 32.88,-17.73 65.63,-37.36 99.07,-53.44 135.93,-65.34 253.98,-70.56 401.24,-85.52 335.3,-34.05 264.91,-99.8 342.5,-163.64 53.09,-43.68 138.37,-36.03 192.17,-34.79 61.59,1.42 127.98,-13.17 190.89,-16.73 62.04,-3.51 126.95,-8.23 190.62,-21.65 63.17,-13.31 150.64,-43.53 184.66,-96.9 15.12,-23.73 18.54,-57.74 26.84,-86.96 26.45,-93.16 196.49,-106.73 268.5,-119.71 77.31,-13.94 234.81,-9.75 284.91,-79.43 53.91,-74.98 17,-109.16 237.9,-179.68 153.38,-48.97 316.61,-39.59 364.79,-48.04zm137.9 398.5c6.59,27.07 74.48,162.35 214.16,233.31 -282.18,247.02 -1162.82,694.88 -2290.57,463.15 53.53,-70.63 214.95,-40.93 362.88,-96.35 320.8,-151.75 810.97,148.47 990.85,-315.44 107.82,-137.93 408.02,-23.83 530.24,-146.82 27.91,-28.08 180.07,-127.61 192.44,-137.85zm431.89 -518.99c257.87,-60.3 129.78,-129.56 211.5,-200.03 62.91,-54.26 179.44,-117.81 214.31,-104.4 8.51,286.88 -53.19,402.54 -113.69,485.1 -80.52,-65.26 -150.68,-157.84 -312.12,-180.67zm-398.48 -104.73c7.03,-3.12 51.48,-23.46 58.5,-26.48 110.79,-47.64 127.61,-45.73 208.51,-139.57 42.41,-49.21 83.06,-118.61 118.23,-166.62 76.45,-126.12 149.08,0.4 449.95,-273.11 143.97,3.87 -112.73,235.91 -206.4,285.17 -242.87,127.73 -170.59,152.97 -210.44,222.49 -27.27,47.56 -93.8,68.4 -134.73,84.11 -127,48.75 -153.14,122.86 -155.86,124.29l-127.76 -110.28z"/>
  <path id="kayak" class="fil2" d="M704.53 5780.11c-131.83,167.86 851.62,436.59 1066.16,534.89 93.13,7.48 186.9,-48.22 276.35,-88.95 143.51,-65.34 268.15,-70.56 423.63,-85.51 24.82,-2.39 47.45,-4.94 68.26,-7.62 61.58,-14.64 123.81,-29.75 186.58,-45.41 64.85,-32.6 57.17,-71.96 106.78,-110.61 56.04,-43.68 146.08,-36.03 202.89,-34.8 191.05,4.16 407.6,-30.12 566.9,-103.47 12.42,-9.54 23,-20.12 30.87,-31.81 15.96,-23.72 19.56,-57.74 28.32,-86.96 27.94,-93.15 207.47,-106.72 283.49,-119.71 81.63,-13.94 247.92,-9.75 300.82,-79.43 56.91,-74.97 17.94,-109.15 251.17,-179.67 122.57,-37.07 383.65,-47.64 428.08,-54.51 90.69,76.81 163.37,138.35 178.67,151.84 186.7,164.55 87.85,290.77 253.3,471.06 186.44,174.98 428.56,407 703.21,270.08 76.58,-38.17 174.18,-92.55 36.93,-261.33 -106.51,-130.98 -336.08,-335.33 -398.98,-381.97 -227.41,-168.64 -309.96,-62.14 -507.97,-178.87 -21.25,-15.6 -192.44,-152.85 -181.19,-159.4 29.89,-12.36 58.59,-26.04 88.18,-38.76 110.79,-47.64 212.39,-107.51 293.29,-201.35 42.42,-49.21 53.34,-98.7 88.52,-146.71 46.34,-63.22 94.27,-64.25 147.63,-73.91 272.48,-49.31 540.94,-454.92 671.36,-680 -3.18,-163.87 -12.06,-333.56 -22.91,-527.11 -334.79,-121.42 -329.4,-215.64 -471.34,-517.54 -32.13,-151.56 -134.47,-193.87 -272.76,-246.44 -31.25,-11.88 -168.22,-37.07 -183.97,-58.02 -12.27,-16.34 -41.59,-42.94 -37.78,-63.01 9.22,-48.62 32.42,-95.28 45.57,-143 12.48,-45.29 -8.16,-231.5 -28.03,-272.16 -89.97,-184.11 -407.3,-175.37 -447.69,57.6 -4.44,25.62 -4.26,51.83 -6.89,77.69 -4.25,41.94 -6.39,112.62 22.34,170.36 20.47,41.15 87.16,159.71 76.34,186.1 -24.8,60.46 -340.21,80.17 -362.32,67.95 -67.86,-37.5 -116.98,-101.78 -175.47,-152.67 7.17,-14.04 14.34,-28.08 21.51,-42.11 5.9,-38.19 2.57,-44.76 -4.55,-82.66 -10.78,-6.44 -21.56,-12.87 -32.34,-19.3 -59.91,-54.1 -60.94,-54.76 -136.26,-83.78 -46.48,8.35 -53.81,6.91 -94.54,30.94 -180.93,-143.51 -361.87,-287.01 -542.81,-430.51 -36.44,-54.15 -106.97,-222.41 -190.6,-307.97 -65.48,-66.99 -462.19,-462.13 -546.43,-355.45 -134.71,147.57 -82.27,248.14 58.47,391.44 102.91,104.79 181.27,154.99 270.78,214.99 104.17,69.84 306.9,99.01 356.46,137.83 182.29,142.77 364.58,285.55 546.86,428.32 -5.57,36.1 4.38,105.07 4.23,105.62 -37.53,95.21 -66.5,122.24 -61.49,238.01 50.63,121.75 91.14,148.51 220.59,220.84 99.56,43.42 262.31,91.41 334.83,156.76 13.29,152.46 26.58,304.92 39.87,457.38 -128.07,61.55 -256.16,122.99 -384.45,184.08 -37.51,-52.39 -75.02,-104.77 -112.53,-157.16 -94.39,-110.35 -222.27,-179.93 -348.81,-249.68 -31.12,-22.95 -36.05,-22.9 -55.88,-56.16 22.52,-44.42 28.43,-49.36 33.79,-98.95 25.75,-48.91 47.79,-84.77 63.24,-138.03 10.58,-43.94 10.71,-136.33 -6.38,-208.22 -64.93,-204.88 -257.02,-302.72 -432.86,-149.28 -95.11,82.98 -97.73,203.41 -90.65,318.82 15.4,27.78 18.06,31.72 24.22,62.88 0.76,29.75 1.96,59.16 3.39,88.88 13.73,45.33 25.15,90.73 52.75,129.53 -3.38,16.28 -6.76,32.57 -10.14,48.86 -24.91,4.24 -50.3,5.34 -75.54,5.75 -43.03,-19.89 -67.67,-16.62 -114.77,-20.12 -64.34,17.46 -72.45,26.35 -139.13,30.4 -39.52,-35.84 -89.99,-81.9 -129.51,-117.75 7.66,-4.45 13.69,-11.61 21.35,-16.06 7.78,-16.64 -9.79,-75.58 -12.51,-79.63 -2.38,-3.65 -15.63,-14.81 -23.74,-20.83 -0.03,-4.34 -3.62,-18.94 -7.8,-27.22 -10.67,-22.67 -104.66,-97.79 -111.38,-99.75 -12.83,-3.8 -71.76,-1.44 -78.27,1.48 -7.03,2.58 -31.37,4.4 -39.34,13.18 -40.43,-35.76 -878.58,-809.25 -901.97,-830.54 0.81,27.08 -15.4,82.63 -25.23,92.84 39.44,36.36 814.07,746.72 869.13,797.34 -2.48,9.16 -20.36,16.9 -22.84,26.05 -35.7,114.53 -186.06,247.56 -133.63,364.61 68.98,122.46 154.52,163.3 281.59,207.38 63.18,19.85 126.36,39.71 189.54,59.57 130.49,41.01 107.47,344.73 81.58,399.55 -549.64,453.31 -2232.96,1304.32 -2336.14,1520.97zm3865.42 -830.75c-731.89,331.88 -2619.77,938.46 -3297.49,779.14 588.02,58.49 2435.85,-470.38 3237.09,-833.8 8.8,8.38 49.72,45.35 60.4,54.66zm35.82 -98c512.95,-229.13 1074.81,-538.42 1368.86,-806.15 7.55,7.39 26.99,29.64 34.66,36.63 -314.32,306.83 -895.92,620.95 -1341.35,822.29 -11.63,-9.66 -54.46,-46.25 -62.17,-52.77zm-1571.92 -477.18c37.56,-10 -77.46,181.01 -79.2,184.39 -7.6,14.79 -22.15,29.29 -19.87,45.76 2.08,15.06 16.06,30.02 30.84,33.59 60.45,14.58 123.45,18 185.64,18.65 161.54,1.68 323.35,-0.51 484.52,-11.66 117.3,-8.12 254.76,-115.4 349.73,-46.07 149.55,109.14 -878.8,236.41 -1205.46,111.88 -210.46,-80.23 217.64,-326.92 253.8,-336.54zm1289.89 -422.88c111.06,-60.98 341.41,-162.91 367.1,-172.19 24.6,-6.92 21.83,50 43.94,62.82 256.5,148.78 429.29,35.96 656.99,63.8 34.96,4.28 -647.99,404.27 -919.15,452.1 -24.29,-135.4 -96.36,-324.4 -148.88,-406.53zm182.46 -1141.82c-66.33,12.26 -109.09,16.86 -176.5,19.38 -17.59,-46.4 -18.26,-59.49 -12.27,-107.35 25.6,-6.32 51.2,-12.65 76.8,-18.98 37.32,35.65 74.65,71.3 111.97,106.95zm-1523.44 700.66c-72.96,6.76 -152.04,25.45 -225.87,8.33 -17.2,-67.64 49.86,-118.73 116.2,-102.13 37.9,30.85 77.75,63.83 109.67,93.8z"/>
   <path id="regata" class="fil3" d="M2357.01 6900.07c-2.63,-5.82 -9.49,-14.5 -20.62,-25.83 -11.18,-11.15 -25.5,-25.7 -42.62,-42.98 -18.29,-16.37 -31.53,-29.12 -40.29,-38 -8.29,-8.79 -12.39,-14.53 -11.83,-17.14 2.14,-10.07 34.86,-20.66 98.16,-31.77 63.3,-11.11 108.38,-13.81 135.68,-8.01 19.19,7.59 32.86,13.81 41.4,19.13l40.72 8.66c23,10.15 47.46,20.22 71.96,30.11 25,9.8 49,19.77 72.53,29.65 70.26,28.97 113.78,49.53 130.08,61.57 16.31,12.04 43.01,27.47 80.67,46 4.92,4.17 14.99,11.38 29.76,21.53 14.78,10.16 35.2,23.28 60.79,39.44 3.46,1.9 7.65,4.94 12.61,8.92 4.46,4.06 9.8,8.51 15.61,13.06 34.9,26.92 64.11,51.06 87.16,72.34 23.51,21.37 40.32,40.15 51.34,56.53 13.64,20.05 22.87,40.34 27.27,60.58 4.83,20.52 4.71,41.55 0.07,63.38 -8.6,40.47 -29.28,71.75 -62.45,93.56 -32.71,21.9 -79.22,33.65 -138.99,34.98 -5.95,0.69 -14.25,1.07 -24.49,1.43 -10.65,0.07 -20.97,0.8 -31.74,1.44l-19.09 3.35c-16.74,3.65 -43.78,5.71 -81.08,5.96 -37.3,0.27 -85.82,-1.27 -145.61,-4.43 -79.39,-4.2 -163.16,-8.36 -251.32,-12.28 -24.59,-0.36 -45.32,-0.67 -62.62,-1.23 -17.25,-0.74 -30.52,-2 -39.78,-3.97 -25.91,-5.51 -42.27,-8.2 -47.67,-7.79 -5.88,0.31 -14.06,13.77 -24.09,40.5 -6.58,17.31 -13.09,34.26 -19.51,50.83 -1.31,6.15 1.81,14.22 9.78,24.5 7.51,10.17 20.42,22.27 38.34,35.83 -9.92,5.69 -20.68,10.81 -32.33,15.55 -12.11,4.64 -26.19,9.44 -43.63,14.12 -18.3,6.44 -36.5,10.17 -54.65,11.39 -18.2,1.39 -34.91,0.37 -50.18,-2.87 -30.08,-6.39 -50.48,-17.36 -62.09,-33.28 -11.19,-15.64 -14.09,-36.14 -8.66,-61.69 1.71,-8.02 7.09,-17.4 16.19,-28.34 8.59,-10.84 21.52,-23.89 37.78,-38.95l-0.2 -33.19c-11.09,-4.7 -22.15,-9.58 -32.74,-14.37 -11.01,-5.07 -21.53,-10.22 -31.57,-15.28 -15.57,-6.43 -26.46,-12.06 -32.61,-17.27 -6.19,-5.02 -8.63,-9.44 -7.84,-13.17 0.91,-4.29 24.05,-6.19 69.84,-5.43 45.74,0.95 69.91,-5.8 72.96,-20.17 0.84,-3.91 0.21,-10.09 -2.33,-18.62 -2.54,-8.53 -3.16,-14.71 -2.41,-18.25 12.39,-19.6 26.17,-38.89 40.44,-58.28 2.33,-1.84 6.03,-7.88 11.15,-18.3 5.07,-10.22 12.11,-25.11 20.63,-44.74 4.09,-5.56 9.92,-12.51 17.49,-20.85 7.54,-8.14 15.43,-17.97 24.53,-28.9l-5.52 -21.84 115.62 -157.12zm4224.17 -986.72c10.75,-36.55 23.67,-75.79 39.3,-117.98 15.46,-42.26 33.81,-88.44 55.07,-138.52 4.07,-9.58 10.33,-22.86 19.32,-40.62 8.99,-17.77 15.8,-32.36 20.42,-43.24 7.9,-15.67 14.31,-27.85 18.88,-35.68 5.12,-9.14 11.71,-21.24 19.95,-36.76l10.95 -37.5c3.68,-7.69 8.42,-15.44 14.39,-23.18 6.17,-8.18 13.25,-18.02 21.42,-29.46 1.2,-7.71 3.16,-18.19 6.06,-31.86 5.55,-13.06 12.09,-22.62 19.28,-28.82 7.55,-6.56 15.21,-9.48 23.52,-9.04 5.61,2.39 10.88,4.63 16.32,6.93 5.27,2.24 10.51,5.49 15.57,9.7 2.26,1.98 6.84,3.41 13.37,4.13 6.53,0.71 11.46,1.78 14.45,3.05 3.86,1.64 5.57,4.93 5.47,10.03 -0.09,5.1 -1.43,10.7 -4.39,17.67 -13.68,32.22 -28.4,63.49 -44,94.39 -15.59,30.39 -32.24,60.33 -50.12,90.26 -9.53,27.82 -18.12,52.44 -25.75,73.35 -6.14,16.41 -10.08,28.62 -12,37.06 -1.91,7.92 -1.82,12.59 0.28,13.48 3.94,-2.44 8.25,-5.75 13.64,-10.66 5.23,-4.98 10.82,-10.83 16.97,-18.49 4.34,-5.36 10.8,-10.32 19.75,-15.78 8.76,-5.02 19.82,-10.09 32.98,-14.26 5.34,-1.85 9.96,-2.97 14.03,-2.79 3.89,0.11 7.41,1.09 10.39,2.36 7.2,3.05 15.59,8.67 24.82,16.7 9.4,8.1 16.7,15.31 21.7,22.57 10.01,13.51 18.67,23.86 25.59,31.94 6.93,8.08 11.95,14.32 15.59,18.44 2.59,3.15 6.25,6.25 10.62,9.13 4.37,2.89 9.62,6.14 15.39,9.62 4.73,3.03 9.74,9.27 14.88,18.65 5.32,8.94 11.51,18.76 18.92,29.1 4.39,1.87 9.11,4.9 13.8,9.97 4.85,5.15 10.05,11.46 15.75,19.02 3.28,4.48 6.7,10.56 9.92,18.6 3.4,7.61 7.85,15.67 13.18,24.1 5.83,0.42 11.65,1.35 17.64,2.86 7.99,7.51 16.52,15.24 25.4,23.12 12.53,11.48 25.41,22.61 38.29,34.24 12.7,11.56 25.6,22.18 37.8,32.49 1.81,6.94 3.97,14.54 6.84,22.44 2.28,0.97 6.33,1.66 12.35,1.64 5.84,-0.09 10.25,0.75 13.41,2.09 3.68,1.57 8.74,5.26 14.64,11.87 5.89,6.62 10.42,10.59 13.93,12.08 6.5,2.76 16.49,7.52 29.81,14.2 13.32,6.68 23.5,11.52 30.34,14.42 7.64,-1.89 14.93,-3.43 21.85,-4.6 3.8,4.7 6.37,9.38 7.89,13.62 1.87,3.88 2.3,9.21 2.02,14.74 -2.96,17.24 -5.72,32.52 -8.62,46.19 -0.36,10.13 -0.52,18.29 -0.8,24.34 -0.3,6.55 -1.28,11.79 -3.13,16.14 -7.95,18.73 -14.54,31.35 -19.98,38.29 -5.07,6.59 -9.54,9.31 -12.88,7.9 -10.67,-6.59 -20.44,-13.82 -29.3,-22.72 -2.15,1.15 -4.99,1.99 -8.55,3.05 -3.73,0.99 -8.36,2.62 -14.42,5.19 -28.54,-6.97 -58.14,-13.37 -89.18,-18.33 -19.25,-11.25 -39.06,-21.2 -59.6,-29.92 -9.65,-4.1 -21.39,-10.11 -35.04,-18.47 -13.65,-8.36 -28.83,-19.43 -45.38,-33.65 -16.72,-14.29 -31.73,-25.29 -45.02,-34.02 -13.28,-8.72 -24.66,-15.09 -33.97,-19.04 -4.03,-1.72 -8.93,-4.82 -14.32,-9.68 -5.4,-4.86 -12.02,-10.75 -20.39,-16.88 -6.79,-5.97 -12.88,-11.63 -18.09,-16.93 -5.21,-5.29 -10.45,-9.06 -15.54,-11.22 -2.81,-1.19 -5.8,-1.95 -9.33,-2.42 -3.36,-0.4 -6.54,-0.72 -9.36,-0.89 -4.92,-11.85 -9.17,-21.36 -12.58,-27.95 -3.59,-6.67 -6.37,-9.9 -7.95,-10.57 -5.85,1.11 -11.91,3.17 -18.32,5.59 -2.52,-7.24 -8.72,-16.56 -18.78,-27.51 -10.05,-11.46 -23.79,-24.48 -41.02,-40.02 -4.21,-1.79 -9.12,-3.88 -14.92,-6.34 -5.79,-2.45 -12.63,-5.87 -20.51,-10.24l-12.63 3.89c-1.99,2.75 -5.64,8.91 -10.39,17.17 -4.94,8.7 -10.26,19.29 -16.88,32.93l-2.46 18.48c-3.57,11.34 -7.32,23.1 -11.08,34.88 -4.11,12.13 -8.05,24.84 -12.01,38.07 -27.52,92.65 -55.02,184.28 -82.16,275.04 -2.95,6.97 -6.41,12.19 -10.36,15.14 -4.13,3.38 -8.03,4.29 -11.72,2.73 -2.11,-0.9 -4.69,-4.56 -8.11,-11.15 -3.43,-6.08 -7.14,-15.88 -11.32,-28.97 -11.39,-6.37 -20.47,-12.79 -27.26,-18.76 -6.79,-5.97 -11.46,-11.55 -14.02,-16.75 -4.77,-9.73 -6.83,-22.94 -6.01,-39.04 1.01,-16.53 4,-34.79 9.69,-55.51 11.54,-41.35 23.56,-79.42 36.22,-114.14 12.67,-34.71 25.98,-66.57 39.59,-94.72zm980.97 -321.58c-4.31,2.14 -7.65,3.86 -10.34,4.19 -2.69,0.34 -4.79,0.23 -6.69,0.13 -12.38,-0.65 -22.65,-4.98 -31.04,-12.53 -8.36,-8.01 -15.03,-19.26 -20.36,-34.22 -1.13,-3.85 -2.92,-13.42 -5.15,-29.17 -2.07,-15.27 -4.64,-35.3 -7.33,-60.55 -2.51,-17.67 -5.77,-32.05 -9.8,-42.68 -4.19,-11.12 -9.41,-17.08 -16.22,-18.38 -4.99,-3.1 -10.62,-8.61 -16.84,-17.47 -6.41,-8.86 -13.16,-18.69 -20.37,-30.43 -1.92,-3.42 -14.28,-15.44 -36.74,-35.09 -22.45,-19.66 -55.37,-47.44 -99.15,-82.89 -13.24,-9.7 -24.55,-19.77 -34.17,-29.27 -9.6,-9.98 -17.75,-18.46 -24.47,-24.97 -30.05,-31.42 -49.55,-56.61 -58.46,-76.02 -8.73,-19.41 -16.17,-34.01 -21.98,-43.32l-2.86 -0.15 -29.49 41.57 -22.29 -55.65 -1.9 -69.27c-0.05,-13.74 -4.71,-26.78 -13.61,-39.09 -9.12,-11.85 -18.72,-32.72 -28.66,-61.67 -0.42,-6.65 -2.16,-17.16 -5.41,-31.55 -3.07,-14.37 -7.63,-33.09 -13.51,-55.66 -5.46,-19.71 -9.16,-36.49 -11.49,-50.35 -2.14,-13.85 -3.09,-24.8 -2.7,-32.36 1.29,-24.56 4.33,-42.41 8.92,-53.54 4.76,-10.64 10.39,-16.03 17.05,-15.68 8.19,0.43 19.62,11.92 34.14,33.53 14.51,22.08 25.74,33.56 33.93,33.99 3.81,0.2 6.98,-2 9.66,-5.65 2.5,-4.13 4.47,-8.77 5.33,-14.41l45.09 -164.4c2,-8.89 8.16,-17.1 18.83,-24.12 10.66,-6.55 25.07,-11.95 43.03,-15.74 15.13,-4.42 27.75,-8.5 37.8,-10.82 10.08,-2.79 17.99,-4.26 24.08,-3.94 15.65,7.45 31.49,14.91 47.55,21.91 21.22,-7.89 43.67,-17.13 67.28,-26.79 21.61,6.81 43.78,13.66 66.1,21.46 2.28,0.12 4.26,-1.19 6.07,-2.99 1.65,-2.29 2.99,-6.01 3.59,-10.24 1.22,-16.04 3.34,-27.3 6.81,-35.17 3.47,-7.88 7.67,-11.44 12.81,-11.18 6.85,0.37 11.87,2.99 15.6,8.4 3.72,5.41 6.4,12.65 8,22.21 2.43,11.97 4.6,21.56 6.32,28.76 1.94,6.74 3.6,11.56 4.97,14.47l35.41 -16.14 77.91 29.19c6.86,0.36 15.16,2.21 25.49,5.6 10.32,3.38 22.12,7.79 35.73,14.19 9.4,9.97 17.44,17.02 23.85,22.09 6.61,5.09 10.87,7.68 13.15,7.8 6.54,-4.4 13.42,-8.3 20.67,-11.71 9.79,6.2 19.59,12.4 29.17,19.06 9.77,6.67 19.38,12.86 28.79,19.03 12.43,10.61 21.26,24.33 26.68,41.2 5.2,17.33 7.23,36.86 6.09,58.59 -0.64,12.28 -3.21,21.15 -7.91,27.06 -4.49,5.45 -11.13,8.42 -19.7,7.97 -3.62,-0.19 -9.04,-2.37 -15.92,-6.04 -6.89,-3.21 -12.13,-5.38 -15.94,-5.58 -2.47,-0.13 -6.14,0.63 -10.62,2.29 -4.67,1.65 -8.53,2.4 -11.96,2.22 -10.47,-0.55 -26.91,-3.78 -49.49,-10.18 -22.58,-6.39 -39.79,-9.66 -51.22,-10.26 -6.5,3.92 -13.41,8.3 -20.33,12.67 -6.89,-3.2 -14.03,-5.47 -21.22,-6.8 -7.18,-1.32 -13.87,-1.2 -20.45,0.35l-13.96 -21.58 -52.74 15.25 -2.23 9.83c-0.3,5.67 0.05,13.74 1.21,24.22 1.15,10.96 3.15,23.85 6.12,40.12 0.76,10.93 1.56,28.5 2.06,51.74 0.28,23.71 -0.21,54.95 -1.86,93.71 2.37,16.71 4.6,32.45 6.48,47.71 0.59,21.35 2.45,47.98 5.5,80.83 2.89,32.37 6.64,69.99 11.08,112.86 3.64,25.3 6.26,48.18 7.83,69.11 1.77,20.93 2.21,38.01 1.47,52.18 -0.57,10.87 0.65,20.41 3.71,27.68 2.84,7.73 7.47,14.13 13.53,18.71 5.75,3.14 13.6,10.18 23.5,21.6 9.74,10.93 22.13,25.8 36.84,44.09 3.8,4 9.81,9.52 18.06,16.11 8.22,7.07 18.49,15.18 30.63,23.87 4.66,5.93 10.41,12.87 17.27,20.33 6.84,7.94 14.77,16.88 24.02,26.37 4.38,0.23 9.83,1.94 16.2,4.17 6.54,2.71 13.77,6.88 22.12,11.58 4.89,4.99 11.24,11.48 18.81,19.93 7.58,8.45 15.82,18.84 24.91,31.16 5.51,7.87 9.34,18.49 11.48,32.34 2.12,14.32 2.51,32.34 1.35,54.55 -0.82,15.59 -3.56,27.77 -8.39,36.04 -4.66,8.76 -11.54,12.66 -20.49,12.19 -9.72,-0.51 -20.61,-3.92 -32.69,-10.24 -12.3,-5.86 -25.35,-15.54 -39.58,-28.13 -19.12,-14.27 -34.54,-25.97 -46.24,-36.06 -11.9,-9.62 -20.77,-15.3 -26.63,-16.55 -2.51,-2.98 -6.89,-7 -13.25,-13.02 -6.37,-6.01 -14.24,-12.59 -23.56,-20.66 -8.88,-8.99 -19.15,-17.11 -30.56,-25.28l-4.94 6.84 0.55 44.09c-0.92,10.38 -3.03,17.84 -6.11,21.95 -3.3,4.56 -7.42,6.71 -12.18,6.46 -2.67,-0.14 -5.47,-1.23 -8.42,-3.28 -3.14,-2.06 -6.8,-5.09 -11.01,-8.63zm-76.3 -508.07c1.09,-20.79 0.66,-52.56 -1.16,-94.34 -2.01,-41.8 -2.48,-73.09 -1.36,-94.35 1.81,-12.69 3.45,-25.87 4.89,-38.59 -0.7,-23.25 -1.6,-46.04 -2.91,-68.37 -1.12,-22.33 -2.25,-44.65 -2.75,-67.89 -0.26,-9.49 -1.44,-16.19 -3.1,-21.01 -1.84,-4.83 -4.39,-7.34 -7.81,-7.52 -11.15,1.31 -18.82,1.86 -23,1.64 -7.05,-0.37 -15,-1.73 -23.45,-4.54 -8.63,-2.83 -17.58,-7.08 -26.68,-11.82l-25.82 15.23 -22.55 -6.87c-8.39,3.35 -16.35,5.77 -23.7,7.75 -7.36,1.99 -13.49,2.14 -18.15,0 -1.62,1.81 -4.24,4.52 -7.73,9.07 -3.67,4.55 -7.56,9.56 -11.46,14.56 -6.77,9.12 -13.36,18.25 -19.57,27.4 -6.43,9.62 -12.63,18.76 -19.22,27.89 -7.72,12.39 -13.58,25.82 -17.8,40.76 -4,14.48 -6.51,29.51 -7.32,45.1 -0.97,18.42 3.94,37.63 14.92,57.63 10.8,19.99 27.95,38.89 51.24,57.17 2.93,2.52 8.6,10.87 17.28,23.64 8.69,12.77 19.75,31.36 33.39,55.29 13.89,4.51 30.96,17.73 50.79,40.08 19.84,22.36 43.06,52.95 69.26,92.23 2.42,4.86 4.58,7.34 6.27,7.91 1.88,0.57 3.95,1.15 6.05,1.26 2.66,0.14 4.64,-1.18 6.15,-4.42 1.5,-3.23 2.32,-7.93 2.67,-14.54 0.49,-9.45 0.88,-24.12 1.4,-44.94 0.33,-20.82 0.74,-35.96 1.23,-45.41zm-5003.51 1775.16c-5.56,-1.18 -9.38,-1.41 -11.89,-0.96 -2.55,0.62 -4.3,2.01 -4.77,4.25 97.38,67.48 143.54,112 138.98,133.45 -1.39,6.53 -25,31.14 -70.37,73.94 -45.33,42.61 -75.39,68 -90.11,75.79l5.76 25.21c-32.37,31.72 -57.12,59.4 -75.24,83.24 -17.63,23.74 -28.12,43.54 -31.45,59.21 -0.88,4.1 0.38,7.29 4.15,10.04 3.77,2.75 9.12,4.86 16.53,6.44 8.79,1.87 25.35,3.63 49.66,5.29 24.28,1.85 55.58,2.46 94.31,2.31 24.67,-0.03 49.26,0.33 73.81,0.87 24.52,0.72 49.11,1.08 74.63,1.63 10.65,-0.08 22.36,-0.51 36.49,-1.02 13.71,-0.79 28.93,-1.84 45.19,-3.26 23.18,-2.09 41.41,-3.68 54.82,-5.31 13.83,-1.35 22.25,-2.29 26.19,-2.62 41.21,-2.74 73.72,-10.06 97.11,-22.25 23.39,-12.18 37.23,-29.52 42.03,-52.09 2.89,-13.61 2.08,-28.02 -2.85,-43.49 -4.93,-15.48 -12.99,-32.2 -25.63,-50.1l0.46 -13.54c-1.45,-2.26 -4.26,-5 -8.37,-8.41 -4.15,-3.22 -8.65,-7.1 -13.14,-10.98 -5.08,-3.42 -10.46,-7.69 -15.72,-12.51 -5.69,-5.11 -10.71,-11.05 -14.57,-17.91 -12.39,-14.53 -35.34,-34.03 -69.71,-58.88 -34.38,-24.85 -81.2,-54.89 -139.96,-90.19 -6.39,-4.08 -14.08,-8.84 -22.12,-14.25 -8.54,-5.32 -17.47,-11.12 -27.71,-17.59 -16.44,-6.81 -36.01,-14.86 -58.7,-24.17 -22.26,-9.02 -48.5,-19.86 -77.81,-32.14zm1992.27 747.28l62.07 39.44c-8.93,5.8 -20.13,12.27 -33.6,19.43 -12.97,7.24 -28.72,15.07 -46.66,23.95 -18.42,6.65 -40.34,15.01 -65.73,25.28 -25.81,10.55 -55.2,22.45 -88.13,35.89 -24.96,12.32 -45.21,21.69 -61.16,28.59 -15.98,6.71 -27.2,10.86 -33.67,12.23 -11.57,2.46 -32.89,9.14 -63.06,19.64 -30.13,10.7 -70.05,25.42 -118.79,44.16 -26.47,9.72 -54.29,19.92 -83.45,30.61 -29.67,10.59 -59.89,20.92 -92.03,31.26l-85.27 10.71 -49.84 20.34c-17.13,3.65 -34.29,7.1 -51.91,10.65 -17.63,3.55 -34.83,6.82 -51.18,9.51 -26.46,5.24 -46.21,7.88 -60.15,8.3 -13.51,0.15 -20.78,-2.21 -21.77,-6.87l3.92 -22.48 -9.16 -2.14c-30.54,6.49 -51.72,9.24 -62.57,8.23 -11.36,-1.09 -18.08,-7.66 -20.62,-19.6 -1.19,-5.59 -2.63,-14.64 -3.97,-27.81 -1.31,-12.98 -2.53,-30.07 -4.07,-50.99 -0.4,-1.87 1.55,-6.38 6.33,-13.44 4.33,-6.96 6.65,-11.94 6.14,-14.36 -5.42,-2.75 -8.79,-4.96 -10.2,-7 -1.4,-2.04 -2.3,-4 -2.65,-5.68 -1.17,-14.56 -1.19,-32.89 0.39,-55.06 1.61,-21.98 3.78,-48.17 6.55,-78.4 7.46,-19.52 12.17,-40.6 14.97,-63.81 -5.22,-15.46 -10.56,-31.48 -15.98,-47.88 20.94,-67.61 42.21,-135.89 64.38,-204.54 3.25,-12 11.22,-24.61 23.92,-37.65 12.75,-12.84 28.78,-26.19 47.19,-39.66 8.7,-4.58 14.32,-7.72 16.78,-9.8 3.45,-4.25 8.6,-9.63 14.97,-16.06 5.91,-6.32 13.52,-13.78 21.92,-22 5.24,-2.68 13.56,-6.78 24.95,-12.33 11.9,-5.45 27.23,-13 46.98,-22.46 8.62,-4.95 18.09,-10.47 29.25,-17.13 10.74,-6.38 23.13,-14.08 37.71,-22.84 32.46,-15.67 62.53,-31.22 89.7,-46.75 27.64,-15.62 63.01,-28.99 106.95,-40.67 20.75,-4.8 41.45,-9.78 62.16,-14.77 20.28,-4.7 40.02,-9.67 58.84,-14.45 17.73,-5.33 33.76,-9.52 47.11,-12.74 8.63,-2.62 16.8,-5.14 23.12,-7.26 6.78,-2.22 12.72,-3.87 18.27,-5.05 5.09,-1.09 13,-2.57 22.38,-3.98 9.83,-1.51 22.52,-3.23 39.42,-5.65 12.58,-2.28 23.26,-4.36 32.51,-6.33 8.8,-1.86 17.55,-3.92 25.8,-6.06 37.01,-3.39 64.73,-2.65 83.64,2.1 18.91,4.76 29.84,12.96 32.3,24.53 5.35,25.18 3.3,45.11 -6.58,60.08 -9.45,14.68 -27.12,24.87 -53.49,30.47 -19.9,4.23 -43.45,4.95 -70.19,2.05 -27.19,-2.8 -96.56,7.66 -207.62,31.27 -45.06,13.28 -90.08,26.75 -134.68,39.93 -3.53,3.87 -8.6,7.29 -13.84,9.96 -5.74,2.59 -10.59,4.79 -15.06,6.52l-48.71 2.94c-14.33,5.39 -29.26,14.8 -45.2,28.52 -15.95,13.72 -32.07,31.19 -48.32,52.58 -3.88,4.52 -6.13,9.88 -7.29,15.78 -1.16,5.9 -0.74,12.44 0.81,19.71 -10.61,29.75 -21.42,58.56 -32.88,86.53 -9.72,29.36 -17.97,51.98 -24.38,67.37 -6.86,15.5 -10.67,24.89 -11.88,28.27 -2.03,4.13 -3.58,8.17 -4.26,11.82 -1.18,3.56 -1.39,7.12 -0.71,10.29 1.03,4.85 4.09,7.9 8.81,9.63 5.19,1.62 12.36,1.27 21.16,-0.6 8.32,-1.77 26.49,-11.87 55.42,-30.5 28.43,-18.71 50.14,-30.35 65.1,-35.08 18.53,-6.09 37.45,-12.64 56.34,-19.39 18.92,-6.55 38.14,-13.95 58.17,-22.11 8.13,-2.71 29.11,-8.72 63.42,-17.96 34.77,-9.35 82.46,-21.63 144.38,-37.52l38.86 -3.77 70.57 -20.66 39.46 -0.98c10.05,1.77 19.33,4.47 28.31,8.02 8.51,3.65 16.68,7.96 24.47,12.74 4.64,21.82 2.15,39.7 -7,53.54 -9.19,13.65 -26.01,23.27 -49.15,28.19l-77.08 3.71c-60.99,15.69 -121.1,31 -180.75,46.22 -59.68,15.02 -120.25,30.43 -182.28,45.76 -74.59,22.29 -130.76,44.75 -168.55,67.21 -37.75,22.65 -56.57,45.56 -55.94,69.02 0.1,5.04 -1.59,13.01 -5.08,23.89 -3.45,11.06 -6.89,24.47 -11.17,40.78l13.17 14.16c-5,17.44 -8.34,33.55 -9.53,48.43 -1.7,14.78 -1.39,27.58 0.95,38.59 0.75,3.54 2.69,5.86 5.82,6.95 3.14,1.09 5.99,0.87 9.58,-0.47 43.18,-10.74 77.65,-19.24 103.87,-25.59 25.76,-6.26 44.22,-10.38 55.41,-12.37 23.76,-4.27 47.52,-8.54 72.21,-13.01l85.01 -20.99c8.64,-2.62 27.94,-9.64 56.91,-21.26 29.47,-11.53 56.22,-19.94 80.28,-25.06 26.38,-5.6 52.52,-12.33 78.88,-20.27 25.95,-7.66 50.76,-16.06 74.5,-25 23.77,-8.76 47.04,-17.6 70.27,-26.63 23.27,-8.85 46.55,-17.7 70.28,-26.64 8.55,-2.99 20.15,-7.6 34.36,-13.54 14.18,-6.13 30.93,-13.79 49.84,-22.68zm1182.01 -948.6c2.76,4.79 5.82,10.07 9.15,15.85 3.34,5.78 5.26,11.94 5.56,18.15 0.71,3.12 -0.32,7.01 -3.3,12.26 -3.08,5.08 -4.61,9.04 -5.11,11.97 -1.77,8.29 -5.53,15.97 -12.1,23.51 -6.26,7.13 -10.83,11.53 -13.28,12.95 -5.33,3.07 -9.39,7.4 -11.96,12.41 -2.48,5.17 -5.81,8.86 -10.73,11.7 -5.73,3.31 -13.15,5.61 -23.06,7.36 -9.59,1.36 -16.6,3.42 -20.69,5.79 -18.19,9.18 -32.89,15.9 -43.68,19.93 -10.69,4.19 -19.93,7.1 -27.63,8.9 -11.05,2.64 -23.82,6.05 -37.33,10.1 -13.59,3.89 -37.75,14.1 -72.24,30.05 -11.04,5.49 -22.17,10.81 -33.8,16.21 -12.04,5.63 -23.39,11.52 -34.65,17.58 -7.37,4.26 -15.38,9.32 -24.73,15.82 -8.95,6.27 -17.77,11.8 -25.56,16.29 -7.37,4.26 -15.22,7.69 -23.45,10.47 -8.74,2.84 -17,6.51 -25.2,11.24 -14.34,8.28 -28.9,17.12 -44.09,26.78 -15.59,9.88 -31.29,19.6 -47.9,29.63 -7.37,4.26 -14.65,8.68 -22.75,13.58 -7.59,4.82 -15.69,9.72 -23.48,14.21 -1.5,3.07 -3.42,6.38 -5.74,9.92 -2.42,3.38 -4.33,6.69 -5.43,9.53 -2.13,3.87 -5.5,8.45 -10.4,14.15 -5.01,5.53 -7.86,10.04 -9.27,13.28 -1.32,3.4 -1.71,6.49 -1.51,9.68 0.1,3.02 0.21,6.04 -0.38,8.8 -3.12,9.73 -6.15,19.63 -9.4,30.09 -2.84,10.23 -5.07,20.55 -6.71,30.96 -1.52,6.82 -2.62,16.27 -3.91,28.24 -0.78,11.9 -1.92,25.99 -2.12,41.74 0.06,17.14 0.14,37.14 0.41,60.32 -0.23,23.25 0.99,48.09 3.49,74.17 0.94,14.87 2.26,30.41 3.14,47.07 0.88,16.67 2.87,33.36 4.95,50.21 1.18,13.41 2.56,27.15 3.62,41.29 1.57,14.07 3.14,28.14 4.71,42.2 3.84,31.26 8.28,62.6 11.9,94.42 4.03,31.59 9,61.96 14.73,90.81 3.78,14.11 7.14,28.46 9.6,43.12 2.96,14.59 5.94,28.27 10.47,40.85 1.63,2.81 5.99,4.69 13.51,5.42 7.02,0.79 11.38,2.68 12.28,6.12 1.62,2.81 1.09,6.63 -1.67,11.31 -2.86,4.51 -3.38,8.34 -1.66,11.31 1.05,1.82 -0.61,6.52 -5.79,14.57 -5.28,7.9 -9.68,13.52 -14.02,17.35 -2.27,1.75 -7.05,6.71 -15.17,15.36 -7.8,8.25 -13.91,13.76 -18.01,16.12 -4.32,2.93 -9.71,4.95 -15.77,5.81 -5.96,1.02 -10.63,2.39 -14.73,4.76 -3.28,1.89 -8.04,3.1 -14.71,3.86 -6.56,0.93 -12.34,2.28 -17.23,4.22 -8.76,3.74 -19.61,6.71 -32.46,9.06 -13.25,2.59 -21.62,3.23 -25.41,2.34 -4.3,-0.82 -8.98,-2.3 -13.23,-4.92 -4.14,-2.45 -7.34,-6.1 -10.02,-10.73 -2.19,-3.8 -4.57,-7.93 -6.83,-12.78 -2.17,-4.7 -4.14,-9.07 -6.43,-13.03 -3.53,-6.11 -3.46,-14.51 -0.21,-24.98 3.65,-10.69 3.72,-19.1 0.19,-25.21 -6.96,-12.06 -10.58,-24.94 -11.45,-38.75 -0.37,-13.88 -3.16,-27.24 -8.49,-40.24 -4.57,-7.93 -7.29,-17.37 -7.24,-28.63 0.06,-11.26 -1.43,-21.41 -4.37,-30.29 -5.96,-15.05 -11.29,-30.91 -16.31,-47.17 -5.02,-16.26 -10.35,-32.12 -16.09,-47.74 -2.03,-9.18 -4.65,-18.46 -7.05,-28.3 -2.31,-9.67 -4.62,-19.35 -6.83,-28.86 -3.04,-9.04 -5.85,-18.65 -8.95,-28.75 -2.69,-10.34 -4.47,-20.98 -5.33,-31.93 -0.97,-7.37 -0.94,-14.88 0.33,-23.09 1.17,-8.39 0.89,-15.49 -0.71,-22.05 -0.31,-6.21 -2.04,-12.04 -4.68,-17.56 -2.64,-5.52 -4.36,-11.35 -4.67,-17.56 -0.88,-7.2 -3.49,-13.62 -7.94,-19.42 -4.35,-5.64 -7.15,-12.39 -8.41,-20.25 0.27,-5.21 2.3,-12.11 5.87,-20.12 3.98,-8.24 5.5,-15.07 4.76,-20.14 -0.65,-4.91 -1.3,-9.82 -1.23,-15.37 -0.02,-5.71 -0.26,-10.86 -0.91,-15.77 -0.29,-0.49 1,-3 3.95,-7.35 2.55,-4.11 5.94,-9.59 9.58,-16.53 2.47,-5.18 6.93,-12.59 14.38,-22.4 6.95,-9.73 13.45,-18.34 18.51,-25.66 8.73,-12.31 13.7,-19.8 13.56,-21.92 0.28,-2.36 5.43,-9.52 14.45,-21.34 1.89,-2.41 6.77,-7.21 15.27,-15.19 8.09,-7.76 13.37,-12.79 15.26,-15.2 1.88,-2.41 0.62,-3.66 -3.49,-4.15 -4.11,-0.49 -5.28,-1.58 -4.02,-3.19 -8.2,4.74 -14.44,8.12 -19.64,10.46 -5.2,2.34 -12.26,6.2 -21.91,12.21 -13.14,8.47 -23.5,15.11 -31.41,20.34 -7.5,4.99 -18.18,12.04 -31.32,20.5 -16.32,10.53 -32.23,20.81 -47.83,30.7 -15.6,9.88 -30.28,19.46 -44.05,28.73 -3.28,1.9 -7.25,3.53 -12.02,4.74 -4.35,0.97 -8.32,2.61 -11.41,4.83 -4.73,3.17 -8.47,7.09 -11.64,12.01 -3.27,4.74 -6.29,8.03 -9.57,9.92 -1.86,1.51 -3.77,4.82 -5.11,9.12 -0.84,4.23 -2.85,7.37 -5.12,9.12 -2.68,1.98 -7.16,3.69 -12.62,4.64 -5.04,0.71 -8.71,1.95 -9.94,2.66 -4.53,3.5 -7.49,4.99 -8.47,4.23 -0.99,-0.75 -1.94,-2.4 -3.28,-4.72 -1.23,-2.14 -1.12,-5.73 0.44,-10.6 1.66,-4.7 3.56,-10.86 6.72,-18.63 2.19,-5.67 4.79,-11.58 8.62,-18.19 3.74,-6.78 6.84,-12.76 10.14,-18.4 3.83,-6.62 7.94,-12.74 12.65,-18.76 4.41,-5.63 8.56,-9.79 11.24,-11.77 3.91,-2.7 6.93,-5.98 9.06,-9.86 2.13,-3.87 4.65,-7.08 8.46,-9.95 3.9,-2.69 8.51,-5.13 13.39,-7.07 5.21,-2.34 9.4,-4.54 12.49,-6.77 14.93,-11.04 29.26,-22.17 43.4,-33.64 14.14,-11.47 28.88,-22.84 43.71,-34.05 16.57,-11.98 34.08,-25.18 53.04,-39.65 19.06,-14.3 39.34,-29.32 61.36,-45.11 6.59,-4.68 13.51,-10.67 19.46,-17.4 6.45,-6.8 13.69,-13.19 22.01,-18.65 3.9,-2.7 8.5,-5.14 13.39,-7.08 5.21,-2.34 9.9,-4.61 14,-6.98 44.73,-31.33 95.4,-65.64 151.58,-102.7 56.68,-37.13 118.97,-76.84 187.29,-119.37 14.97,-9.08 30.37,-19.29 46.12,-30.81 15.75,-11.52 32.08,-22.04 48.88,-31.74 6.55,-3.78 13.3,-7.24 19.92,-9.96 7.03,-2.96 13.46,-6.01 20.02,-9.8 9.01,-5.2 17.93,-10.57 27.26,-16.18 9.74,-5.84 19.16,-11.28 28.99,-16.96 9.43,-5.44 19.04,-10.55 28.03,-14.85 9.3,-4.71 17.15,-8.15 24.27,-10.94 4.48,-1.7 7.58,-1.07 10.02,1.26 2.54,2.51 5.73,3.3 9.58,2.4 5.59,-1.68 11.7,-4.33 19.08,-8.59 7.37,-4.26 12.45,-5.87 16.05,-5.31 12.35,0.58 22.09,4.2 29.44,10.31 7.04,6.51 12.24,13.63 14.71,21.68zm290.47 707.73c-4.75,-0.8 -8.46,-1.37 -10.83,-2.68 -2.37,-1.32 -4,-2.64 -5.49,-3.84 -9.63,-7.8 -15.4,-17.34 -17.75,-28.37 -2.05,-11.41 -0.83,-24.42 3.65,-39.66 1.35,-3.78 5.52,-12.58 12.98,-26.63 7.3,-13.57 16.99,-31.29 29.66,-53.3 8.35,-15.76 14.16,-29.31 17.16,-40.28 3.14,-11.45 2.42,-19.35 -2.32,-24.4 -2.21,-5.45 -3.54,-13.21 -3.36,-24.03 0.02,-10.94 0.34,-22.86 1.41,-36.6 0.46,-3.89 -2.48,-20.88 -9.09,-49.98 -6.62,-29.1 -16.92,-70.92 -31.5,-125.34 -5.01,-15.63 -8.24,-30.42 -10.44,-43.77 -1.9,-13.71 -3.51,-25.36 -5.12,-34.58 -5.84,-43.09 -6.81,-74.92 -2.61,-95.86 4.35,-20.83 6.91,-37.02 7.68,-47.97l-2.23 -1.8 -48.29 16.3 14.68 -58.13 39.17 -57.16c8.05,-11.14 11.94,-24.43 11.97,-39.62 -0.42,-14.94 4.09,-37.47 13.06,-66.73 3.57,-5.63 8.35,-15.16 14.17,-28.71 5.96,-13.43 13.28,-31.25 21.79,-52.97 7.17,-19.15 14.03,-34.9 20.29,-47.49 6.42,-12.46 12.08,-21.88 16.84,-27.76 15.48,-19.12 28.43,-31.77 38.69,-38.07 10.1,-5.82 17.83,-6.87 23.02,-2.67 6.37,5.16 8.85,21.18 7.91,47.2 -1.25,26.38 1.09,42.28 7.46,47.44 2.97,2.4 6.83,2.48 11.14,1.1 4.45,-1.87 8.76,-4.47 12.78,-8.52l133.11 -106.5c6.84,-6.02 16.65,-9.04 29.41,-8.44 12.47,0.96 27.31,5.06 44.07,12.55 14.84,5.31 27.45,9.44 36.94,13.47 9.79,3.67 17.05,7.12 21.8,10.96 8.28,15.23 16.71,30.58 25.58,45.68 21.81,6.09 45.41,11.8 70.19,17.87 13.47,18.21 27.38,36.78 40.85,56.21 1.78,1.44 4.15,1.54 6.68,1.15 2.67,-0.88 5.94,-3.1 8.92,-6.17 10.41,-12.26 18.75,-20.13 26.18,-24.45 7.43,-4.33 12.93,-4.75 16.93,-1.51 5.33,4.32 7.85,9.39 7.68,15.96 -0.16,6.56 -2.25,14 -6.58,22.67 -5.07,11.11 -8.95,20.15 -11.79,26.98 -2.39,6.59 -3.88,11.47 -4.48,14.63l38.13 7.75 45.88 69.41c5.33,4.32 10.96,10.71 17.32,19.51 6.37,8.81 13.32,19.31 20.57,32.49 1.75,13.59 4.1,24.02 6.31,31.89 2.36,8 4.28,12.6 6.06,14.04 7.87,0.28 15.73,1.17 23.6,2.67 4.28,10.78 8.56,21.55 12.4,32.57 3.98,11.14 8.12,21.79 12.1,32.32 3.82,15.89 2.9,32.18 -2.63,49.01 -5.98,17.08 -15.82,34.07 -29.51,50.98 -7.74,9.56 -15.03,15.23 -22.31,17.25 -6.83,1.77 -13.95,0.26 -20.62,-5.14 -2.82,-2.28 -5.92,-7.23 -9.32,-14.24 -3.7,-6.65 -6.66,-11.48 -9.62,-13.88 -1.93,-1.56 -5.34,-3.1 -9.94,-4.4 -4.75,-1.41 -8.31,-3.07 -10.98,-5.23 -8.15,-6.6 -19.55,-18.88 -34.06,-37.32 -14.51,-18.45 -26.51,-31.21 -35.4,-38.41 -7.57,-0.65 -15.73,-1.17 -23.9,-1.7 -3.69,-6.65 -8.13,-12.67 -13.17,-17.97 -5.04,-5.3 -10.52,-9.13 -16.75,-11.74l1.39 -25.66 -51.62 -18.67 -7.59 6.64c-3.57,4.42 -8.04,11.14 -13.26,20.31 -5.51,9.54 -11.47,21.15 -18.63,36.05 -5.81,9.3 -15.5,23.98 -28.75,43.07 -13.7,19.35 -32.46,44.34 -56.58,74.72 -7.9,14.91 -15.36,28.96 -22.81,42.41 -12.06,17.63 -26.21,40.26 -43.06,68.63 -16.69,27.88 -35.76,60.52 -57.37,97.82 -11.92,22.6 -23.25,42.65 -34.28,60.51 -10.88,17.97 -20.56,32.05 -29.49,43.08 -6.85,8.46 -11.47,16.89 -13.27,24.57 -2.24,7.92 -2.26,15.82 -0.04,23.09 2.8,5.92 5.01,16.23 6.31,31.29 1.45,14.57 2.75,33.88 3.88,57.32 0.73,5.47 2.35,13.47 5.15,23.65 2.5,10.55 6.03,23.15 10.75,37.32 0.28,7.53 0.85,16.52 2.02,26.6 0.87,10.44 2.03,22.34 3.93,35.44 3.41,2.76 6.82,7.35 10.66,12.9 3.7,6.04 7.1,13.66 11.09,22.37 1.02,6.92 2.34,15.9 3.5,27.19 1.17,11.29 1.73,24.53 1.84,39.84 -0.17,9.61 -3.31,20.45 -9.72,32.92 -6.71,12.83 -16.98,27.64 -30.98,44.92 -9.82,12.13 -19.19,20.37 -27.96,24.23 -8.92,4.34 -16.78,3.45 -23.75,-2.19 -7.56,-6.12 -14.37,-15.28 -20.43,-27.5 -6.5,-11.96 -11.37,-27.47 -15.49,-46.02 -7.07,-22.78 -12.67,-41.32 -16.2,-56.35 -3.98,-14.78 -7.81,-24.59 -11.82,-29.04 -0.29,-3.89 -1.46,-9.71 -3.07,-18.32 -1.62,-8.62 -4.12,-18.56 -6.92,-30.56 -1.89,-12.5 -5.43,-25.1 -9.86,-38.43l-8.02 2.64 -25.46 35.99c-6.85,7.85 -12.95,12.65 -17.85,14.16 -5.35,1.76 -9.95,1.08 -13.66,-1.92 -2.07,-1.68 -3.7,-4.22 -4.88,-7.61 -1.33,-3.51 -2.51,-8.12 -3.83,-13.45zm236.91 -455.89c13.1,-16.17 31.42,-42.13 54.51,-77 22.94,-35 40.96,-60.58 54.35,-77.13 8.93,-9.21 18.01,-18.9 26.64,-28.35 13.11,-19.21 25.77,-38.18 37.84,-57.02 12.21,-18.72 24.43,-37.45 37.68,-56.54 5.36,-7.83 8.35,-13.94 9.84,-18.82 1.35,-4.99 0.76,-8.51 -1.9,-10.67 -9.79,-5.49 -16.31,-9.56 -19.57,-12.2 -5.49,-4.44 -11.12,-10.21 -16.3,-17.45 -5.33,-7.36 -10.06,-16.06 -14.64,-25.25l-29.83 -2.85 -14.21 -18.82c-8.76,-2.22 -16.62,-4.93 -23.74,-7.65 -7.12,-2.72 -12.16,-6.2 -14.68,-10.67 -2.37,0.51 -6.08,1.16 -11.58,2.79 -5.65,1.52 -11.74,3.28 -17.83,5.05 -10.84,3.39 -21.54,6.9 -31.94,10.66 -10.85,4 -21.25,7.75 -31.95,11.26 -13.52,5.49 -26.15,12.91 -38.35,22.52 -11.75,9.36 -22.61,20.04 -32.43,32.18 -11.62,14.33 -18.93,32.76 -21.8,55.4 -3.02,22.51 -0.26,47.88 7.85,76.36 0.88,3.76 0.56,13.85 0.08,29.29 -0.48,15.44 -2.46,36.97 -5.49,64.35 8.59,11.82 14.63,32.54 17.53,62.29 2.91,29.74 3.72,68.14 1.83,115.32 -0.9,5.35 -0.61,8.63 0.42,10.08 1.19,1.56 2.52,3.25 4.15,4.57 2.07,1.68 4.45,1.78 7.57,0.05 3.13,-1.74 6.54,-5.05 10.71,-10.2 5.96,-7.35 14.89,-18.99 27.55,-35.53 12.5,-16.66 21.74,-28.66 27.69,-36.02z"/>
   <path id="poliska" class="fil4" d="M2750.38 1057.46c-11.06,20.26 -24.94,44.36 -42.37,72.45 -17.29,28.3 -38.25,60.38 -62.91,96.85 -22.36,31.77 -42.32,59.66 -59.88,83.68 -17.84,24.21 -32.81,43.35 -45.78,57.98 -18.2,22.35 -39.32,43.25 -63.07,63.14 -23.76,19.89 -49.29,38.21 -76.47,55.2 -8.39,5.24 -18.46,10.35 -30.07,14.93 -11.61,4.59 -23.93,9.32 -37.39,14.16 -16.61,6.23 -30.51,11.66 -41.96,15.85 -11.74,4.37 -20.93,8.33 -27.84,12.06l-15.08 -0.96 -26.18 12.79c-10.83,6.47 -26.08,10.37 -45.78,12.3 -19.7,1.93 -42.43,1.6 -68.17,-1 -24.79,-1.71 -45.85,-5.17 -63.32,-9.97 -17.63,-4.41 -31.55,-9.95 -41.61,-16.41l-56.44 -39.48c-19.56,-13.29 -34.54,-24.39 -45.65,-33.17 -11.11,-8.77 -17.09,-15.12 -18.64,-18.9l-8.21 -33.72c-10.62,-6.71 -19.03,-12.43 -25.63,-17.21 -6.47,-4.56 -10.56,-8.53 -12.69,-11.94 -2.13,-3.41 -6.95,-14.34 -14.85,-33.43 -8.07,-18.69 -18.81,-44.89 -32.53,-78.44 0.02,-8.32 -0.04,-18.07 -0.61,-29.28 -0.86,-11.03 -2.39,-23.12 -4.87,-36.11l-11.14 -12.02c-2.13,-3.42 -3.66,-7.8 -4.3,-13.33 -0.78,-5.74 -1.24,-12.27 -1.11,-19.77 0.22,-28.61 0.3,-57.44 0.38,-86.26 -0.05,-29.03 0.01,-57.25 0.89,-84.79 1.82,-22.19 6.97,-46.76 14.74,-73.57 8.06,-26.99 18.33,-56.24 30.66,-87.97 2.39,-7.12 5.42,-16.43 8.38,-27.77 3.39,-11.32 7.53,-23.99 12.71,-38.21 6.88,-10.22 14.74,-24.03 23.29,-41.23 8.25,-17.03 18.23,-38.39 29.05,-63.54 4.42,-5.14 9.9,-11.82 15.84,-19.68 6.36,-7.84 13.64,-17.42 22.38,-28.52 2.09,-3.09 4.23,-7.39 6.41,-12.91 2.6,-5.48 5.52,-11.75 9.17,-18.78 3.54,-7.85 22.23,-28.12 56.06,-60.84 33.84,-32.7 56.62,-52.87 68.47,-60.28 26.03,-16.26 48.8,-28.71 68.46,-37.14 19.95,-8.61 37.07,-13.38 51.37,-14.3l29.29 -12.97c25.11,-10.64 49.58,-8.14 73.75,6.72 24.29,15.07 49.24,42.78 74.84,83.74 11.99,19.19 21.17,34.52 27.79,46.4 6.62,11.88 10.55,20.1 12.06,25.09 4.68,14.57 10.36,32.67 18.18,54.19 7.52,21.69 15.76,47.1 24.7,76.21 3.69,7.19 6.73,20.41 8.97,40.08 2.52,19.48 5.13,44.24 7.85,73.69 3.47,31.94 5.08,57.03 4.56,74.86 -0.68,18.21 -3.22,29.59 -8.2,34.48 -20.02,18.15 -41.38,38.02 -64.04,59.01 -12.44,7.77 -21.8,12.73 -27.65,14.3 -6.14,1.76 -10.2,1.04 -12.34,-2.37 -1.86,-2.99 -3.51,-8.19 -5.35,-15.64 -2.26,-7.48 -3.77,-12.47 -5.37,-15.03 -11.6,-14.7 -23.33,-29.62 -35.33,-44.96 -3.6,-5.76 -8.48,-18.72 -14.52,-38.68 -6.33,-19.77 -12.98,-45.87 -20.68,-78.13 -8.72,-35.19 -14.73,-63.46 -17.74,-85.01 -3.3,-21.37 -3.76,-35.62 -2.09,-42.59 9.42,-21.61 14.6,-39.68 16.01,-54.8 1.12,-14.94 -0.85,-26.46 -6.05,-34.78 -7.33,-11.73 -17.48,-19.62 -30.47,-23.67 -13.27,-3.86 -28.68,-3.43 -46.8,1.67 -16.35,6.65 -32.56,13.52 -49.06,20.57 -16.5,7.05 -32.98,13.49 -49.86,19.29 -9.73,10.82 -18.53,19.88 -27.14,27.34 -8.19,7.49 -15.35,14.04 -21.2,19.48 -35.08,28.14 -63.09,63.74 -84.75,106.93 -21.5,42.8 -36.07,92.84 -44.41,150.25 -5.77,48.69 -6.19,94.33 -1.7,136.91 4.78,42.39 14.61,81.92 29.35,118.39 3.95,11.47 9.08,25.47 14.81,42.35 5.86,17.1 11.74,37.45 18.2,61.3 13.07,9.33 24.47,17.93 35.05,25.85l27.2 62.19c1.2,1.92 6.18,4.75 15.52,8.11 9.2,3.14 22.87,7.65 41.43,13.55 10.47,3.24 21.46,7.95 32.66,14.3 10.91,6.53 21.76,14.87 32.11,25.01 3.03,2.27 7.05,4.2 12.23,5.41 5.02,1.61 10.52,2.03 15.47,1.6 11.85,0.31 23.17,-0.24 33.64,-0.85 36.29,4.02 70.95,2.24 104.55,-5.12 33.6,-7.35 65.87,-20.69 96.81,-40.02 2.89,-1.81 12.93,-9.56 29.94,-22.86 17.17,-13.7 40.2,-32.83 69.78,-57.55 3.63,-6.42 9.28,-14.1 17.09,-22.84 7.39,-8.76 16.37,-18.83 27.39,-30.16 5.94,-15.58 13.91,-28.56 22.92,-39.24 9.01,-10.67 18.35,-18.88 27.89,-24.84 1.03,-4.8 2.36,-10.38 4.04,-17.35 1.51,-6.59 4.36,-14.89 7.95,-23.95 13.86,-15.78 25.18,-31.76 34.15,-48.93 9.11,-16.96 16.83,-34.84 23.04,-53.85 45.22,22.17 68.49,34.33 69.82,36.46zm-2582.03 3644.09c2.65,-5.66 5.39,-10.98 8.13,-16.3 3.07,-5.06 6.15,-10.12 9.46,-15.24 4.49,-7.56 9.46,-15.24 15.16,-23.12 5.37,-8.15 10.85,-14.91 16.59,-20.69 4.71,-4.79 9.57,-9.97 14.25,-15.82 5.02,-5.58 10.05,-10.1 15.11,-13.58 5.3,-3.54 10.45,-6.68 16.02,-9.23 5.41,-2.16 10.42,-3.85 14.73,-4.3 6.01,-0.9 12.1,-1.48 18.53,-1.79 6.67,-0.37 12.85,-0.62 19.04,-0.86 11.86,-1.42 26.45,-0.39 43.53,2.1 17.4,2.75 31.67,3.51 43.13,2.56 6.43,-0.31 14.46,-1.41 23.96,-2.89 9.5,-1.49 17.54,-2.58 23.97,-2.89 9.03,-0.31 18.57,0.32 28.05,1.66 9.56,1.67 18.94,2.69 28.15,3.04 4.24,0.28 8.22,-0.43 12.26,-1.87 3.8,-1.37 7.86,-1.75 12.1,-1.48 11.73,0.04 24.06,1.32 36.89,3.53 12.74,1.88 24.91,3.56 36.9,4.59 5.87,0.54 11,0.23 15.95,-0.75 4.7,-0.9 9.74,-1.55 14.95,-1.53 10.84,0.62 28.47,2.25 52.63,4.96 24.49,2.97 41.21,4.13 50.24,3.83 7.82,0.02 16.14,0.97 25.31,3.1 9.08,1.81 18.31,3.22 26.94,3.37 4.49,0.21 5.53,-0.77 2.79,-3.21 -2.5,-2.51 -1.7,-3.43 3.03,-3.29 10.35,0.76 20.73,2.57 31.31,6.08 10.49,3.2 21.44,5.2 32.29,5.83 9.21,0.35 19.21,-0.21 30.19,-1.04 10.97,-0.82 21.31,-1.12 31,-0.89 8.07,-0.04 20.72,1.51 37.97,4.65 17.09,3.54 29.59,5.49 37.34,6.23 7.43,0.49 14.84,0.97 22.42,1.06 7.82,0.02 14.82,-0.09 21.25,-0.4 11.64,-0.3 23.12,-0.2 34.54,0.63 11.33,0.49 21.51,0.58 30.37,-0.38 4.06,-0.38 8.1,-1.82 11.88,-4.24 4.02,-2.49 7.51,-3.07 10.96,-1.87 4.99,1.13 10.49,3.18 16.89,5.7 6.16,2.59 11.28,6.16 15.3,11.44 5.01,6.07 12.41,13.26 22.02,20.92 9.36,7.73 15.27,14.26 17.57,18.94 7.9,15.89 7.12,25.63 -1.76,29.42 -8.87,3.79 -16.72,6.6 -24,8.55 -7.05,1.89 -13.92,4.43 -20.54,6.92 -6.79,2.87 -14.23,5.22 -22.91,6.84 -8.92,1.68 -16.57,6.2 -23.26,13.29 -6.61,7.42 -15.07,11.8 -25.38,13.16 -10.31,1.35 -21.64,0.85 -33.83,-1.88 -12.11,-2.41 -24.1,-3.43 -35.96,-2.02 -10.01,0.57 -22.29,1.39 -36.66,3.12 -14.23,1.34 -26.84,1.9 -37.42,2.26 -15.21,0.55 -31.87,-1.34 -50.35,-5.21 -18.24,-3.94 -35.86,-5.57 -52.3,-4.7 -19.52,1 -35.25,4.5 -47.26,10.19 -12.02,5.7 -27.83,8.87 -47.27,10.2 -14.07,0.94 -34.28,0.36 -61.02,-1.3 -26.84,-1.99 -46.47,-2.37 -59.57,-1.69 -12.12,0.43 -24.47,1.97 -37.04,4.63 -12.32,2.6 -24.67,4.14 -36.97,3.91 -13.93,-0.5 -29.53,-2.33 -46.69,-5.14 -17.4,-2.75 -32,-3.78 -43.94,-2.7 -14.07,0.95 -29.76,2.68 -47.45,5.66 -17.53,2.58 -32.07,4.71 -43.84,6.45 -35.32,5.23 -63.7,11.07 -85.47,17.25 -21.78,6.19 -32.34,15.37 -31.68,27.55 0.5,4.81 1.34,9.88 3.17,15.74 1.74,5.54 2.76,11.26 2.71,16.92 0.04,5.99 -0.64,12.18 -2.48,17.96 -1.74,6.12 -2.19,12.24 -1.66,18.1 0.84,8.95 2.34,18.43 4.34,28.84 2.1,10.73 3.45,20.61 4.61,29.83 1.01,9.61 1.45,19.02 2.07,29.09 0.28,9.81 1.05,19.49 2.71,28.57 2.11,11.79 4.76,21.67 7.76,28.99 2.85,7.7 5.89,17.12 8.98,28.65 1.59,5.93 3.97,10.94 7.15,15.03 3.27,4.42 5.66,9.43 7.24,15.35 2.03,7.58 3.18,15.74 3.75,23.71 0.42,8.36 1.48,16.19 3.51,23.77 1.23,4.61 2.49,10.27 3.44,16.73 1.03,6.78 2.2,12.11 3.44,16.72 2.12,7.91 3.7,13.83 4.94,18.44 1.15,4.29 2.74,10.21 4.68,17.46 1.14,4.28 2.47,9.22 3.97,14.82 1.5,5.6 2.64,9.88 3.44,12.84 9.03,-0.3 18.4,-0.34 28.33,-0.18 10.18,0.1 19.79,-0.01 29.31,-0.44 17.74,-0.87 32.95,-1.42 46.05,-2.1 13.1,-0.69 28.38,-1.96 46.51,-3.29 11.95,-1.08 17.85,-3.37 18.18,-6.98 0.42,-3.29 6.48,-5.97 18.25,-7.72 15.99,-2.52 38.45,-3.24 66.63,-3.03 28.51,0.48 50.07,-0.7 65.24,-3.36 17.54,-2.58 32.69,-6.29 45.72,-10.13 12.95,-4.17 27.77,-8.15 44.47,-11.91 18.72,-3.96 36.9,-7.07 54.2,-9.59 17.53,-2.58 34.32,-6.02 50.35,-10.31 10.94,-2.93 22.71,-4.67 35.56,-5.3 12.77,-0.95 23.81,-2.49 33.29,-5.03 11.42,-3.06 21.91,-7.64 31.38,-14.06 9.57,-6.09 18.43,-10.94 26.76,-13.87 10.09,-4.12 13.96,-10.1 11.6,-17.94 -2.45,-8.16 -6.76,-15.48 -12.92,-21.95 -7.73,-7.46 -14.64,-14.79 -21.22,-21.85 -6.49,-6.73 -9.2,-12 -8.14,-15.82 3.76,-11.24 29.4,-7.87 77.41,9.97 47.92,17.52 80.73,33.08 98.11,46.43 3.73,3.23 8.83,5.75 14.99,8.33 6.41,2.52 11.44,5.76 14.77,9.46 4.51,5.14 9.52,11.21 15.28,18.14 5.85,7.26 9.19,14.84 10.24,22.67 2.21,16 1.74,28.83 -1.88,38.63 -3.3,10.06 -13.26,20.49 -29.48,31.9 -14.95,9.3 -37.06,19.11 -66.42,29.09 -29.35,9.98 -66.68,20.34 -112.22,31.13 -14.09,3.78 -29.67,6.89 -46.23,9.21 -16.81,2.39 -33.68,5.49 -50.87,9.39 -7.37,1.63 -14.93,2.59 -23.21,3.75 -8.04,1.1 -16.15,2.92 -24.16,5.07 -21.56,5.07 -41.9,9.81 -61.03,14.23 -19.13,4.42 -40.46,8.37 -64.01,11.86 -10.8,1.48 -20.47,2.31 -29.11,2.15 -8.63,-0.16 -18.39,0.34 -29.37,1.16 -16.19,0.81 -33.84,2.01 -53.03,3.27 -19.1,1.59 -36.18,2.99 -51.04,4.85 -19.92,1.46 -37.17,2.2 -51.9,2.61 -14.49,0.36 -30.92,1.23 -48.99,1.83 -10,0.57 -20.01,1.13 -30.1,1.36 -10.1,0.24 -19.95,0.4 -29.15,0.05 1.5,5.6 3.41,11.79 5.25,17.65 1.92,6.2 3.42,11.79 4.74,16.73 2.65,9.88 5.85,18.91 9.86,28.07 3.93,8.83 6.96,17.2 8.99,24.77 4.45,14.69 8.91,33.27 13.27,55.39 -0.08,3.56 -1.48,7.11 -4.33,11.05 -2.85,3.94 -7.68,6.29 -14.42,7.39 -3.4,0.91 -7.98,0.37 -14.29,-1.82 -5.99,-1.92 -12.46,-3.72 -18.66,-4.53 -3.76,-0.4 -7.42,-0.48 -11.49,-0.1 -4.06,0.38 -7.73,0.31 -11.48,-0.1 -19.88,-4.2 -38.85,-11.83 -56.25,-22.34 -17.55,-10.12 -28.97,-22.6 -34.39,-37.03 -0.89,-3.29 -2.3,-8.56 -4.57,-16.07 -2.19,-7.18 -4.99,-16.66 -8.08,-28.19 -3.09,-11.53 -6.62,-24.7 -10.5,-39.19 -3.88,-14.49 -8.03,-29.97 -12.53,-46.77 -17.6,-8.34 -31.73,-18.32 -43.03,-29.41 -11.07,-11.16 -18.79,-22.5 -22.88,-34.82 -2.69,-8.1 -1.2,-15.2 4.94,-21.44 5.98,-5.84 18.11,-10.15 36.31,-12.2 -1.68,-6.26 -3.18,-11.86 -3.99,-15.87 -0.91,-4.35 -2.25,-10.34 -4.37,-18.25 -2.56,-9.55 -5.23,-20.48 -7.77,-32.86 -2.53,-12.38 -5.14,-24.04 -8.13,-35.23 -2.92,-10.87 -4.99,-20.55 -6.14,-28.72 -1.39,-8.1 -3.22,-17.85 -5.64,-28.84 -3.31,-14.29 -5.43,-26.08 -6.51,-34.97 -1.41,-9.15 -2.95,-20.74 -5.11,-34.63 -1.94,-11.13 -4.12,-22.2 -6.06,-33.32 -1.94,-11.13 -3.55,-22 -4.65,-31.94 -0.62,-6.18 -1.97,-12.18 -4.22,-18.63 -2.16,-6.13 -3.51,-12.12 -3.86,-17.33 -0.48,-7.63 -0.3,-14.74 0.3,-21.25 0.75,-6.91 0.88,-12.24 0.31,-16.32 -0.57,-4.09 -0.26,-8.76 1,-14.74 1.35,-5.66 2.52,-11.97 3.85,-18.68 1.17,-6.32 3.29,-13.95 5.64,-22.69 2.67,-8.48 5.83,-17.1 9.48,-25.84 2.43,-4.53 4.51,-10.38 6.8,-17.35 2.39,-6.65 4.78,-13.29 7.83,-19.4 2.72,-6.37 6.08,-13.28 9.68,-20.24 3.76,-7.36 7.2,-13.93 10.65,-20.5zm309.77 -518.02c-6.27,-0.55 -13.83,-3.61 -22.15,-9.47 -8.32,-5.86 -17.69,-14.21 -28.11,-25.05 -13.56,-15.22 -23.92,-26.73 -31.84,-34.27 -7.65,-7.86 -12.58,-12.05 -15.03,-12.95 -5.21,-3.88 -11.84,-8.91 -20.14,-15.11 -8.26,-6.54 -17.72,-13.87 -28.37,-21.99 -4.92,-7.28 -15.8,-15.76 -32.81,-26.15 -17.3,-10.07 -39.97,-22.32 -68.3,-36.09 -7.32,-5.77 -16.34,-12.38 -26.83,-19.46 -10.52,-6.74 -22.9,-15.35 -37.44,-25.18 -11.04,-3.7 -23.65,-9.6 -38.28,-18.41 -14.41,-8.45 -30.62,-19.45 -48.18,-32.28 -16.32,-15.46 -32.59,-31.6 -48.29,-48.37 -15.7,-16.78 -26.58,-39.63 -32.35,-68.89 6.24,-10.75 12.53,-19.09 18.3,-24.41 6.04,-5.63 11.32,-8.25 16.33,-7.81 12.03,1.05 27.67,9.95 46.65,26.67 19.24,16.74 32.37,25.42 39.64,26.06 4.01,0.35 7.78,-2.4 11.8,-7.87 -1.53,-5.61 -6.47,-15.62 -15.02,-30.41 -8.55,-14.78 -20.23,-34.28 -35.06,-58.17 -10.89,-19.77 -19.96,-37.34 -26.67,-52.98 -6.71,-15.65 -10.47,-30.35 -11.32,-43.78 -1.76,-8.71 -3.07,-19.77 -3.88,-33.53 -0.6,-13.4 -2.55,-28.63 -5.63,-45.33 -2.49,-9.12 -5.4,-16.22 -8.43,-21.96 -2.34,-4.99 -4.73,-12.39 -6.87,-22.5l3.56 -14.75c5.05,-5.72 11.01,-21.97 17.9,-48.75 7.14,-26.75 10.91,-43.88 11.53,-51.01 3.04,-5.89 7.4,-12.36 13.62,-20.03 5.95,-7.35 12.85,-17.01 20.22,-29.03 14.12,-25.8 33.55,-48.75 58.37,-69.85 24.8,-20.76 54.67,-39.02 90.14,-54.74 32.33,-14.63 62.78,-24.97 91.62,-31.35 28.61,-6.74 56.06,-8.78 81.87,-6.53 81.69,7.15 151.38,27.28 209.33,60.42 57.7,33.11 103.38,79.54 137.29,139.33 3.28,5.76 7.48,12.63 12.59,20.61 4.83,8.29 10.76,18.39 17.55,30.28l8.02 0.7c4.89,1.8 9.82,6 14.8,12.59 5.2,6.96 10.94,16.36 17.23,28.2 14.4,25.91 28.99,52.51 43.83,79.14 14.59,26.6 28.87,53.86 42.84,81.77 18.13,35.13 31.91,68.17 41.57,99.13 9.69,30.62 15.69,60.24 18.01,88.51 6.95,12.93 11.43,28.04 14.15,46.07 2.71,18.04 2.85,39.61 0.65,64.74 -3.24,37.03 -7.64,67.1 -13.42,89.87 -5.81,23.11 -12.53,39.29 -20.16,48.55 -5.01,5.38 -9.89,12.14 -15.09,19.56 -4.97,7.78 -11.54,16.44 -19.22,26.38 -7.28,11 -19.98,20.5 -37.63,28.88 -17.9,8.36 -40.5,15.62 -67.99,21.09 -20.78,3.66 -40.43,6.04 -59.49,7.46 -19.31,1.39 -36.72,1.23 -53,-0.19 -4.77,-0.42 -12.88,-2.84 -23.86,-7.22 -10.76,-4.02 -19.41,-6.15 -25.24,-5.97 -11.27,-0.99 -21.1,-1.17 -29.46,-0.87 -8.77,-0.77 -22.51,-5.39 -40.9,-14.53 -18.42,-8.8 -33.38,-13.87 -44.65,-14.86 -2.51,-0.22 -6.19,1.51 -11.56,5.15 7.85,11.3 15.21,19.47 22.31,24.88 4.41,4.49 7.78,9.24 9.81,14.89 1.78,5.63 2.62,10.5 2.2,15.25 -0.62,7.14 -3.16,13.08 -8.03,16.76 -4.9,4.02 -11.59,5.49 -20.36,4.72 -6.01,-0.53 -14.63,-2.99 -26.08,-7.76 -11.2,-4.74 -20.33,-7.25 -26.59,-7.8zm-306.83 -628.53c-1.4,15.97 -1.33,32.4 0.23,49.31 1.55,16.9 4.1,33.9 8.1,51.7l23.13 99.23c1.66,6.98 5.02,14.81 9.82,23.44 4.52,8.96 10.98,18.76 19.39,29.42l37.83 49.52c11.51,15.72 33.68,30.66 66.53,44.83 32.84,14.17 75.83,27.86 129.44,41.45 41.02,10.09 79.45,18.24 115.29,24.11 35.6,5.86 68.56,10.11 99.13,12.78 62.14,5.44 109.65,-3.75 142.48,-26.89 32.83,-23.14 51.53,-60.86 56.11,-113.17 2.17,-24.79 -0.19,-52.72 -7.03,-84.12 -6.88,-31.07 -18.5,-65.62 -35.15,-103.36 -13.89,-31.67 -28.33,-59.97 -43.07,-84.88 -15.02,-24.59 -30.61,-45.46 -46.82,-62.28 -6.2,-7.04 -19.81,-18.84 -40.61,-35.04 -20.8,-16.19 -49.15,-38.52 -85.04,-66.99 -26.36,-19.08 -53.54,-34.46 -81.28,-46.47 -28.01,-11.69 -56.91,-19.01 -87.48,-21.69 -14.89,2.81 -29.81,5.95 -44.26,9.48l-30.95 -9.9c-6.6,6.27 -12.34,11.24 -17.77,15.56 -3.94,1.71 -7.34,3.12 -9.94,3.92 -54.68,16.1 -96.96,40.46 -126.61,73.46 -29.62,32.66 -46.96,74.95 -51.47,126.58zm625.58 -1723.84c9.64,-2.6 20.71,-5.2 33.44,-7.71 12.5,-2.62 23.7,-4.39 33.11,-4.4 17.93,-0.51 33.72,2.48 47.46,8.24 13.52,5.65 22.06,9.42 25.61,11.31 6.25,4.86 12.88,9.54 20.11,14.16 7.01,4.5 13.63,9.18 19.88,14.04 13.19,8.95 25.46,18.56 37.56,28.47 12.05,9.5 24.09,18.99 36.23,27.76 12.53,8.59 25.44,17 38.6,24.39 13.39,7.5 25.79,15.26 37.49,23.79 15.6,11.38 31.96,22.4 48.93,33.35 17.19,11.07 33.1,21.85 47.81,32.77 12.49,9.73 25.62,18.25 39.17,25.46 13.32,7.08 26.17,15.07 38.09,23.72 25.68,18.68 47.71,36.18 65.8,51.98 18.48,15.62 38.89,31.88 61.18,48.36 4.44,2.36 7.98,6.95 10.47,14.06 2.86,6.93 6.09,12.12 10.15,14.67 4.44,2.36 9.36,3.82 15.53,4.01 5.94,0.07 11.02,1.23 14.8,3.23 3.11,1.66 6.44,3.43 10.38,5.14 3.71,1.58 7.42,3.17 10.98,5.06 3.99,2.13 7.29,5.04 9.88,8.73 2.82,3.82 5.89,6.61 9.44,8.5 14.59,10.07 22.74,33.32 24.13,70.36 1.61,37.15 -4.26,58.37 -17.31,64.17 -6.12,2.92 -12.29,2.73 -18.88,-0.39 -6.83,-3.24 -12.76,-6.01 -18.09,-8.84 -3.78,-2.01 -8.32,-3.65 -13.34,-4.39 -5.24,-0.86 -9.72,-2.08 -13.72,-4.21 -6.44,-3.42 -13.06,-8.1 -19.81,-13.62 -6.76,-5.52 -14.21,-10.26 -21.98,-14.39 -7.33,-3.9 -15.42,-7.43 -24.06,-10.48 -8.63,-3.04 -16.95,-6.69 -24.72,-10.83 -24.65,-13.1 -49.42,-29.75 -74.18,-49.09 -24.59,-19.64 -50.15,-37.48 -76.5,-53.81 -20.24,-12.3 -40.1,-24.79 -60.01,-37.7 -19.92,-12.9 -39.99,-25.51 -59.69,-38.3 -17.25,-11.49 -35.23,-23.75 -53.93,-36.78 -18.71,-13.04 -36.35,-24.35 -52.58,-34.53 -27.37,-17.64 -54.74,-35.28 -81.67,-52.68 -27.14,-17.53 -50.55,-31.9 -69.9,-43.74 -14.9,-9.47 -28.17,-16.13 -39.57,-19.88 -11.24,-4.04 -19.69,-3.13 -25.44,2.31 -9.92,9.01 -18.43,16.46 -25.54,22.33 -7.5,6.05 -14.87,12.95 -22.49,20.86 -13.59,13.24 -22.63,22.73 -26.94,28.16 -4.47,5.73 -11.21,14.12 -20.44,25.04 -5.45,5.98 -13.2,13.06 -23.03,21.35 -10.2,8.48 -17.51,15.79 -22.52,22.01 -2.05,2.77 -3.2,6.02 -3.63,10.04 -0.65,3.9 -1.59,7.26 -3.19,10.27 2.42,-0.26 3.43,1.05 2.44,4 -0.78,3.06 0.62,4.19 3.64,3.87 4.16,-0.88 10.28,-3.8 17.74,-8.72 7.83,-5.1 14.17,-7.91 19.1,-9.15 7.89,-1.98 14.79,-1.02 20.85,2.59 6.06,3.61 13.17,4.69 21.29,2.82 14.88,7.92 29.21,16.31 43.45,25.43 14.02,9 27.66,18.18 41.29,27.36 43.09,29.86 82.29,63.83 117.66,102.33 35.14,38.38 66.4,78.17 93.68,120.09 21.66,31.6 41.19,63.99 58.96,97 18.16,32.82 33.01,65.43 45.06,98.48 14.51,38.61 26.26,76.52 35.47,113.86 8.99,37.21 15.5,71.57 19.55,103.07 1.35,11.91 2.49,23.71 3.33,34.98 0.91,11.68 0.78,23.19 -0.41,34.53 -0.7,7.74 -2.8,17.05 -6.2,27.21 -3.19,10.28 -5.03,18.56 -5.21,24.26 -1.46,15.06 -2.52,27.24 -3.8,36.6 -0.89,9.18 -3.49,17.83 -7.5,25.36 -1.92,3.61 -4.79,6.33 -9.15,8.64 -4.36,2.32 -7.4,5.34 -9.16,8.65 -4.6,7.59 -8.7,15.84 -12.24,25.16 -3.69,9.62 -7.69,17.15 -12.38,22.76 -14.4,17.44 -29.68,31.71 -46.39,43.3 -16.7,11.59 -33.73,19.52 -51.11,23.8 -11.01,3.02 -22.65,4.56 -34.7,4.72 -12.04,0.15 -24.12,-1.25 -36.6,-4.02 -8.58,-2.63 -17.98,-5.31 -28.1,-8.77 -9.91,-3.33 -19.34,-7.57 -28.44,-12.41 -15.55,-8.27 -29.53,-18.41 -42.01,-30.84 -12.26,-12.3 -23.02,-24.21 -31.85,-35.46 -11.04,-15.14 -15.07,-25.78 -11.77,-32.52 3.14,-6.44 6.35,-12.46 9.07,-17.58 1.92,-3.61 6.35,-8.2 13.53,-13.66 7.33,-5.75 20.02,-7.11 38.29,-3.97 5.52,1.4 12.38,3.5 20.63,6.73 8.48,3.35 15.34,5.45 20.96,6.12 4.96,0.32 8.75,-0.37 11.52,-2.37 2.55,-2.12 5.89,-3.04 9.96,-3.19 8.04,0.41 14.37,0.3 19.3,-0.94 4.71,-1.36 11.68,-2.68 20.74,-3.65 8.56,-1.63 16.48,-2.05 24.14,-1.45 7.43,0.48 14.84,-0.6 21.78,-3.48 6.12,-2.93 13,-6.22 20.92,-9.34 7.87,-3.54 14.63,-7.67 20.37,-13.11 6.12,-5.63 13.02,-14.32 20.31,-25.89 7.29,-11.57 12.89,-22.1 17.13,-32.21 6.55,-16.6 8.55,-34.84 5.25,-54.36 -3.45,-19.21 -10.52,-43.43 -21.66,-71.76 -11.59,-31.25 -28.31,-64.09 -49.96,-98.38 -21.27,-34.48 -45.88,-68.03 -73.66,-100.95 -20.71,-23.75 -42.2,-48.7 -64.48,-74.83 -22.29,-26.14 -45.75,-50.59 -70.72,-72.74 -33.46,-29.77 -67.88,-57.72 -103.04,-83.75 -35.31,-25.73 -69.53,-48.17 -103.19,-66.84 -8.66,-4.61 -17.42,-8.49 -26.34,-12.08 -8.92,-3.58 -17.3,-7.65 -25.07,-11.78 -4.61,7.59 -9.44,15.06 -14.2,22.95 -5.15,8.08 -9.92,15.97 -14.24,24.1 -4.48,8.43 -9.34,17.04 -15.29,26.62 -5.79,9.28 -11.9,19.16 -17.95,29.46 -1.76,3.31 -7.81,6.66 -17.67,9.14 -10.03,2.78 -21.29,4.13 -33.56,4.17 -7.47,0.66 -10.86,-1.53 -10.5,-5.97 0.53,-4.74 -2.63,-9.51 -9.32,-14.61 -1.9,-1.79 -7.88,-0.72 -17.78,2.9 -10.12,3.5 -16.65,5.05 -19.41,4.35 -3.87,-1.29 -10.26,-1.59 -19.01,-1.22 -9.12,0.55 -14.9,0.18 -17.35,-1.12 -10.95,-3.51 -18.66,-7.22 -23.51,-10.96 -4.63,-3.62 -5.7,-8.04 -2.98,-13.16 5.77,-10.84 12.84,-22.53 21.21,-35.06 8.54,-12.84 17.23,-25.98 26.53,-39.19 15.72,-20.99 33.29,-43.31 52.54,-66.67 19.48,-23.23 39.08,-45.63 58.97,-67.5 16.31,-18.35 33.45,-36.66 51.42,-54.91 17.58,-18.07 33.92,-34.87 48.63,-50.21 17.26,-17.47 32.58,-32.88 46.94,-46.48 14.13,-13.73 24.85,-24.24 32.16,-31.56 4.05,-4.41 13.11,-12.33 26.47,-22.99 13.52,-10.96 27.73,-20.01 42.64,-27.15 13.75,-6.58 25,-12.19 34.87,-17.37 9.49,-4.99 21.3,-9.52 35.05,-13.41zm836.79 49.55c-19.72,-19.04 -35.18,-36.34 -47.04,-51.59 -11.44,-15.31 -19.75,-28.07 -24.69,-38.53 -6.91,-4.78 -14.25,-9.49 -22,-14.14 -7.42,-7.16 -18.72,-20.45 -33.54,-39.5 -15,-19.22 -34.31,-44.5 -57.43,-76.31 -22.94,-30.21 -40.19,-53.98 -51.77,-71.32 -11.57,-17.34 -18.31,-28.11 -20.15,-32.73 -6.91,-4.78 -14.37,-10.09 -22.61,-15.68 -8.25,-5.59 -17.92,-11.14 -29.27,-16.41l-23.9 7.73 -9.64 -2.68c-9.01,-10.59 -18.25,-20.94 -27.49,-31.28 -9.42,-10.52 -18.13,-21.78 -26.08,-34.19 -11.72,-13.21 -20.8,-26.25 -26.66,-39.02 -6.04,-12.94 -10.81,-24.66 -14.31,-35.15 -0.39,-3.22 -1.5,-7.13 -2.92,-11.82 -1.6,-4.86 -2.72,-10.22 -3.5,-16.65 -8.4,-16.65 -17.04,-33.05 -25.62,-49.87 -8.64,-16.4 -16.45,-32.94 -23.83,-49.56 -5.08,-18.64 -4.9,-38.38 0.71,-59.03 5.37,-20.41 16.53,-41.38 32.84,-62.61 7.54,-18.31 14.69,-33.68 21.21,-45.87 6.53,-12.18 12.84,-21.26 18.28,-26.9 6.4,-6.62 13.6,-10.09 21.19,-10.35 7.53,0.17 14.86,3.45 21.91,10.26 2.9,2.8 10.77,14.2 24.05,34.12 12.85,20 30.51,48.43 52.13,85.42 8.77,10.84 18.16,24.65 28.42,41.19 10.25,16.54 22.09,36.5 35.22,60.56 13.94,27.21 29.87,56.34 48.21,87.32 18.34,30.98 39.68,63.91 64.27,98.56 10.3,14.68 20.18,29.43 29.82,44.43 9.7,14.58 19.58,29.34 30.06,44.2 11.63,16.92 23.01,32.65 33.73,47.26 10.95,14.37 21.34,26.78 31.66,36.74 3.8,3.67 8.07,6.85 12.22,9.43 4.33,2.76 7.82,5.66 11.08,8.8 4.75,2.69 9.76,8.01 15.14,15.1 5.15,7.34 11.33,16.15 18.77,26.19 6.85,9.93 12.79,18.98 18.24,27.09 5.46,8.11 10,13.92 13.61,17.41 17.92,17.3 33.28,30.72 45.51,40.15 12.16,9.85 20.82,15.37 25.86,17.39 12.67,6.07 26.12,12.42 40.47,19.65 5.97,5.77 4.41,25.12 -4.48,58.23 -9.09,32.94 -18.28,54.41 -27.51,63.97 -5.45,5.64 -11.87,9.39 -19.44,11.09 -7.35,1.44 -16.19,1.91 -27.08,0.87 -8.68,-2.23 -16.36,-4.42 -22.96,-7 -6.41,-2.41 -11.52,-5.45 -15.5,-9.29 -2.17,-2.1 -4.48,-6.22 -7.29,-12.73 -2.63,-6.33 -5.12,-10.63 -7.11,-12.55 -14.47,-6.39 -27.36,-10.78 -39.15,-12.69 2.67,4.48 1.47,4.27 -3.42,-0.45 -5.06,-4.89 -14.47,-13.98 -28.22,-27.26zm2124.23 -1188.61c-1.28,13.65 -7.02,29.27 -16.94,46.55 -9.98,17.04 -19.72,33.51 -29.29,49.17 -14.84,25.27 -35.9,50.83 -62.12,76.72 -26.55,25.96 -57.47,51.05 -92.42,75.19 -31.32,21.57 -65.39,41.67 -101.93,59.98 -36.54,18.31 -74.68,35.68 -114.08,52.02 -19.95,7.84 -40.94,15.65 -62.27,23.52 -21.67,7.95 -42.88,14.77 -63.91,20.79 -14.69,4.66 -24.82,7.84 -30.33,9.79 -5.18,1.87 -15.13,4.24 -29.48,7.29 0.11,0.49 1.69,2.99 4.73,7.48 3,4.25 4.57,6.75 4.68,7.24 2.45,3.33 -3.77,8.51 -18.82,14.8 -15.32,6.6 -26.09,11.72 -31.9,15.52 -6.71,4.51 -13.61,6.5 -21.36,6.09 -7.43,-0.48 -14.74,-5.36 -21.66,-14.95 -1.85,-2.17 -3.38,-4.42 -4.62,-6.98 -0.91,-2.64 -2.76,-4.82 -5.29,-6.85 -32.54,4.34 -60.46,7.45 -83.48,9 -22.98,1.8 -49.52,1.53 -79.26,-0.64 -4.99,-0.48 -10.46,-1.63 -16.48,-3.7 -6.35,-1.99 -11.52,-5.01 -15.9,-9.22 -4.22,-3.47 -6.69,-10.15 -7.34,-19.78 -0.65,-9.63 4.3,-15.83 14.54,-18.52 18.24,-4.39 36.37,-9.27 55.01,-15.04 18.65,-5.76 36.57,-11.63 54.39,-17.99 -3.51,-3.36 -7.4,-6.91 -12.11,-11.05 -4.66,-3.89 -9.04,-8.11 -13.43,-12.32 -4.86,-4.88 -7.11,-7.23 -6.39,-7.13 0.72,0.11 -1.68,-2.98 -7.25,-9.51 -6.39,-7.13 -12.51,-14.57 -18.95,-21.94 -6.45,-7.38 -11.8,-14.47 -16.65,-20.9 -5.83,-7.76 -10.27,-15.56 -13.72,-23.57 -3.39,-7.76 -4.86,-14.65 -5.11,-20.77 -0.68,-3.2 -0.57,-7.59 0,-13.11 0.62,-5.28 1.14,-11.05 1.88,-17.38 1.19,-10.79 3.41,-23.35 6.69,-37.42 3.56,-14.38 6.25,-29.61 8.45,-45.51 1.32,-11.85 2.75,-24.76 3.42,-38.01 0.95,-13.58 2.23,-27.22 4.13,-41.26 1.15,-7.7 2.53,-15.96 3.86,-24.47 1.61,-8.83 3.32,-17.17 4.99,-25.75 -22.81,5.88 -40.39,6.79 -52.76,2.73 -12.41,-4.31 -20.14,-11.15 -23.67,-21.2 -4.16,-13 5.54,-26.38 29.5,-39.96 24.23,-13.89 45.87,-23.63 65.79,-29.92 0.69,-6.58 1.75,-11.44 3.23,-14.32 1.2,-2.57 2.31,-7.18 3.11,-13.26 1.86,-10.94 4.03,-20.4 6.95,-27.97 2.59,-7.49 5.15,-16.78 6.78,-27.15 3.28,-14.07 5.51,-28.17 6.51,-41.5 1.29,-13.65 3.34,-26.94 5.94,-39.32 2.87,-12.7 4.75,-25.18 6.01,-37.28 1.27,-12.1 3.36,-23.6 6.21,-34.75 2.88,-12.7 6.49,-21.95 10.45,-27.94 4.34,-5.8 7.83,-14 10.07,-24.77 2.28,-8.97 4.61,-17.69 7.32,-26.24 2.71,-8.55 5.1,-17.03 7.58,-25.01 -8.38,-3.36 -16.51,-5.49 -25.14,-6.74 -8.29,-1.33 -13.06,-5.71 -14.02,-13.48 -0.83,-3.94 0.72,-13.01 4.96,-27.54 3.89,-14.46 6.4,-23.99 7.51,-28.6 0.85,-5.84 3.21,-12.77 7.42,-20.86 4.15,-8.34 7.28,-14.92 9.24,-20.48 1.27,-3.87 1.71,-8.34 1.23,-13.89 -0.43,-5.31 0.35,-9.85 2.39,-13.37 2.76,-3.41 6.9,-6.86 12.49,-10.11 5.92,-3.31 9.83,-6.21 11.98,-9.23 6.2,-8.52 12.06,-15.42 17.45,-21.2 5.12,-5.46 8.98,-8.59 10.65,-8.95 2.67,-0.56 6.88,-0.43 12.02,0.79 5.47,1.15 10.23,2.2 14.65,3.32 4.08,1.18 8.56,2.55 13.08,4.16 4.47,1.36 9.16,3.71 14.66,6.65 3.81,1.51 9.56,2.34 17.21,2.26 7.99,-0.15 13.79,0.93 17.7,2.92 4.61,3.65 10.99,7.44 18.2,11.82 7.49,4.07 13.15,7.75 17.32,10.98 10.94,7.19 18.21,15.16 21.76,23.66 3.55,8.5 6.42,13.81 8.95,15.84 5.1,4.32 6.67,11.7 4.99,21.83 -1.35,10.06 -4.6,21.03 -9.79,32.68 -1.72,4.99 -3.05,8.62 -4.24,11.19 -1.25,2.32 -3.19,6.33 -6.3,11.36 -0.92,2.26 -3.24,6.09 -6.58,11.69 -3.73,5.42 -6.44,9.08 -8.12,10.98 -1.15,2.82 -1.47,6.23 -0.58,10.41 0.84,3.94 0.29,7.91 -1.81,11.19 -2.6,4.15 -4.66,9.22 -6.51,15.27 -1.8,6.29 -3.91,11.11 -6.62,14.78 -8.44,14.39 -13.32,27.51 -14.58,39.61 -0.93,12.03 -2.61,22.16 -3.99,30.42 -2.57,14.18 -10.77,31.35 -24.66,51.27 -13.51,20.1 -21.85,39.88 -24.65,59.5 -1.88,12.49 -3.28,22.3 -4.1,29.93 -0.87,7.38 -1.91,15.58 -3.52,24.41 13.15,-5.37 26.38,-8.7 39.71,-9.99 13.31,-1.28 25.99,-3.98 38.01,-8.08 17.26,-5.72 32.62,-10.53 46.31,-14.98 13.7,-4.46 25.55,-7.75 35.22,-9.8 17.67,-3.76 35.84,-6.85 54.83,-9.34 18.66,-2.43 37.31,-4.85 55.07,-6.57 16.1,-1.36 32.29,-2.23 48.98,-2.44 16.69,-0.2 32.66,-0.51 47.63,-0.6 22.9,-0.5 45.39,0.38 67.76,2.31 22.09,2.24 42.79,4.53 61.78,6.92 14.82,2.51 28.08,5.86 40.11,9.99 12.37,4.06 22.12,8.93 29.2,14.37 6.69,5.26 12.39,10.74 17.75,16.28 5.41,5.79 10.91,13.63 16.27,24.06 2.27,4.15 5.09,9.2 8.17,15.49 2.8,6.61 5.06,12.3 6.21,17.71 0.68,3.2 1.9,7.31 4,12.27 2.1,4.95 3.7,9.24 4.49,12.93 0.73,3.44 4.97,5.37 13.34,5.39 8.09,0.34 12.72,2.44 13.56,6.38 0.99,4.67 1.57,7.38 1.67,7.87 0.11,0.49 0.68,3.2 1.68,7.87 0.73,3.45 1.57,7.38 2.28,12.37 0.66,4.75 0.93,9.32 1.1,13.4 0.02,3.34 0.16,8.96 0.35,16.38 0.18,7.42 0.61,12.73 0.57,15.82zm-182.87 -4.33c0.19,-2.35 -0.15,-5.62 -1.32,-9.49 -1.12,-3.62 -2.62,-7.41 -4.07,-10.96 -1.3,-2.81 -2.87,-5.3 -4.78,-7.73 -1.91,-2.42 -3.44,-4.67 -5.29,-6.84 -2.84,-3.52 -5.47,-6.04 -7.94,-7.83 -2.42,-1.55 -5.72,-3.93 -9.4,-6.49 -3.19,-1.89 -7.38,-3.57 -12.62,-5.29 -4.91,-1.78 -9,-2.97 -11.98,-3.88 -15.09,-3.74 -30.51,-7.4 -46.54,-10.68 -16.09,-3.52 -34.02,-5.89 -54.13,-7.01 -39.16,-2.22 -80.78,-2.89 -123.81,-1.97 -43.36,0.99 -87.76,5.28 -133.2,12.88 -13.11,2.27 -25.5,4.65 -36.84,7.06 -11.34,2.41 -23.35,4.97 -35.69,7.59 -1.42,11.36 -3.12,23.03 -4.1,34.81 -1.32,11.85 -2.63,23.71 -4.33,35.38 -1.58,15.51 -3.12,31.27 -4.88,47.58 -1.48,16 -2.67,31.69 -3.59,47.05 -0.97,15.12 -1.55,30.42 -2.24,45.22 -0.3,14.98 -0.71,29.47 -0.16,43.5 0.74,19.9 1.71,39.23 3.02,58.5 1.25,19.02 3.68,37.02 7.24,53.75 1.52,7.13 2.3,10.82 1.97,10.9 -0.34,0.07 0.4,3.51 1.81,10.15 2.33,-0.49 7.05,-1.24 13.21,-1.78 6.5,-0.61 10.89,-1.28 13.45,-2.34 8.02,-3.25 15.82,-5.93 23.72,-8.13 7.56,-2.12 15.74,-4.63 23.87,-7.39 41.26,-14.17 79.43,-29.74 114.56,-46.46 35.47,-16.8 68.63,-34.65 100.19,-53.44 45.69,-27.72 81.77,-53.13 107.62,-75.85 26.12,-23.04 49.27,-46.99 68.99,-72.27 4.85,-6.69 9.14,-12.74 12.76,-18.65 4.01,-5.74 6.92,-11.76 9.15,-17.63 1.84,-4.51 3.12,-9.92 4.26,-16.08 1.13,-6.16 1.36,-11.61 1.09,-16.18zm1250.67 151.63c21.86,45.76 32.64,69.89 32.33,72.39 -14.45,8.62 -33.8,17.9 -57.7,27.89 -23.89,9.99 -53.39,20.81 -87.53,33.09 -36.67,13.24 -67,22.44 -91.3,27.31 -24.63,4.83 -43.06,6.62 -55.58,5.09 -27.08,-3.33 -50.8,-11.56 -70.86,-24.42 -20.4,-12.89 -36.71,-31.11 -49.24,-54.95 -1.67,-3.25 -3.3,-6.74 -5.24,-10.53 -1.91,-4.03 -4.16,-8.11 -7.05,-12.52 -14.8,-13.73 -29.27,-27.42 -43.09,-40.77 -6.7,-6.91 -18.86,-22.59 -36.44,-47.3 -17.91,-24.76 -39.92,-58.12 -66.31,-100.64 -11.66,-19.68 -24.32,-39.74 -37.61,-60.12 -13.61,-20.68 -27.89,-41.44 -42.82,-62.53 -5.01,4.45 -11.81,15.02 -19.4,32.08 -7.96,17.27 -16.35,40.82 -25.19,70.91 -0.59,4.74 -3.97,12.69 -9.41,23.42 -5.78,10.7 -9.16,18.65 -9.8,23.89 -0.31,2.5 0.22,6.62 1.2,12.56 1.02,5.71 1.21,9.78 0.9,12.28 -1.93,15.73 -7.86,38.82 -17.5,69.82 -9.99,30.96 -15.95,54.3 -17.85,69.78 -1.56,12.74 -5.4,21.64 -11.55,26.97 -6.46,5.03 -16.3,6.87 -29.5,5.24 -13.75,-2.7 -24.4,-5.53 -32.27,-8.52 -10.06,0.79 -19.38,1.17 -28.31,1.09 -7.1,-0.87 -12.46,-4.83 -16.03,-12.11 -3.6,-7.03 -4.37,-17.51 -2.63,-31.75 0.62,-4.99 3.26,-12.52 7.96,-22.84 4.37,-10.36 7.07,-18.39 7.77,-24.13 0.49,-4 0.24,-10.36 -0.74,-19.1 -0.65,-8.7 -0.9,-15.06 -0.41,-19.06 0.49,-3.99 3.31,-15.81 8.87,-35.91 5.56,-20.1 13.95,-49.22 25.1,-86.88 10.93,-38.7 19.84,-69.28 27.4,-91.67 7.56,-22.39 12.63,-35.7 14.93,-40.49 2.46,-3.24 5.66,-6.91 9.66,-11.48 3.96,-4.33 6.73,-10.07 8.91,-16.65l-9.77 -43.52c8.17,-21.8 18.65,-53.97 31.46,-96.74 13.15,-42.74 29.03,-96.54 47.67,-161.66 10.54,-38.24 18.98,-67.87 25,-88.92 6.03,-21.06 9.22,-33.09 10.26,-36 11.93,-18.81 28.2,-33.79 48.78,-44.69 20.94,-11.12 46.56,-18.36 77.17,-21.44 4.3,-1.5 9.35,-3.42 15.53,-6.21 5.85,-2.83 13.07,-5.74 21.75,-9.24 8.58,0.04 18.34,10.11 29.26,30.2 10.91,20.35 16.02,34.66 14.91,43.65 -0.46,3.74 -1.78,8.9 -3.96,15.48 -2.15,6.32 -5.81,13.73 -10.6,22.01 -6.06,10.16 -10.85,18.44 -14.05,24.89 -3.56,6.65 -5.81,10.94 -6.79,13.35 -13.77,25.43 -29.76,57.68 -48.26,96.46 -18.16,38.82 -38.26,85.01 -60.91,137.99 -1.9,4.32 -4.27,9.61 -6.42,15.93 -2.52,6.53 -6.52,13.9 -11.41,22.93 -3.71,7.91 -7,15.11 -9.86,21.6 -2.89,6.74 -4.61,12.36 -5.22,17.35 -0.77,6.24 1.76,13.64 7.54,22.47 20.31,-3.09 54.57,-19.15 102.48,-48.5 47.55,-29.13 109.71,-70.91 186.07,-124.89 77.83,-54.82 136.6,-99.81 176.67,-135.18 39.76,-35.66 60.76,-61.22 62.75,-77.44 0.71,-5.75 -3.45,-13.86 -12.83,-24.13 -9.05,-10.24 -13.18,-18.6 -12.38,-25.09 1.53,-12.49 10.63,-22.26 27.58,-28.8 16.95,-6.54 41.77,-10.08 74.81,-10.58 6.46,0.54 17.5,-2.67 32.36,-8.95 14.85,-6.29 27.19,-8.83 37,-7.62 9.63,2.7 18.99,4.86 27.38,6.4 11.72,-3.12 23.1,-6.29 34.55,-9.95 8.92,8.45 15.01,17.55 18.31,27.08 3.3,9.53 4.04,20.27 2.6,32 -2.85,23.22 -9.12,43.48 -19.08,60.25 -9.62,16.81 -23.24,29.84 -40.47,38.62 -4.73,2.21 -10.24,5.08 -15.8,8.45 -5.88,3.08 -11.84,6.91 -17.5,11.03 -12.89,15.4 -29.67,31.84 -50.4,49.57 -21.07,17.68 -45.76,36.95 -74.42,57.76 -63.2,44.7 -120.86,83.49 -173.39,116.83 -52.16,33.13 -99.16,60.55 -140.62,82.07 -17.28,9.28 -30.32,17.57 -39.42,24.56 -8.77,7.03 -13.68,13.52 -14.39,19.26 9.18,17.6 17.52,33.58 24.29,48.35 12.44,30.16 25.62,59.91 39.94,88.79 14.29,29.12 28.24,58.2 42.15,87.53 23.74,44.48 47.04,78.51 69.26,101.77 22.23,23.25 43.64,36.27 64.28,38.81 3.39,0.41 13.57,-1.38 30.83,-4.83 16.95,-3.75 39.89,-8.79 68.25,-15.95 6.52,-5.54 20.33,-11.7 41.06,-18.28 20.4,-6.62 31.28,-11.36 32.33,-14.27zm153.37 -28.25c0.69,-5.75 1.18,-10.21 2.31,-13.57 1.12,-3.36 2.24,-5.88 3.27,-8.18 6.65,-14.94 14.76,-26.47 24.14,-34.96 9.69,-8.35 20.74,-13.89 33.67,-16.94 3.21,-0.5 10.67,-0.49 22.58,0.41 11.51,0.99 26.53,2.45 45.19,4.98 13.36,0.99 24.86,0.33 34.17,-2.14 9.72,-2.55 16.42,-7.55 20.73,-15.55 4.63,-5.37 11.22,-10.97 20.41,-16.51 9.29,-5.78 19.41,-11.74 31.08,-17.83 3.31,-1.56 17.74,-13.86 42.47,-36.71 24.73,-22.86 60.28,-56.59 106.53,-101.8 13.29,-13.91 25.86,-25.38 37.2,-34.93 11.65,-9.4 21.55,-17.39 29.38,-24.08 36.61,-29.41 63.65,-47.39 81.42,-53.79 17.68,-6.17 31.43,-11.89 40.72,-16.84l1.53 -3.45 -13.71 -45.47 49.32 -14.39 48.45 13.58c9.44,3.11 20.71,0.42 33.61,-7.61 12.7,-8.39 31.82,-15.29 56.65,-20.76 4.77,1.02 12.85,1.32 24.34,0.65 11.39,-0.43 26.5,-1.69 44.93,-3.67 16.25,-2.13 29.61,-2.79 40.27,-2.45 10.57,0.58 18.55,1.93 23.54,4.15 16.19,7.21 26.91,15.01 32.23,23.16 4.92,8.25 5.79,16.35 2.21,24.39 -4.4,9.88 -18.01,21.17 -40.1,33.91 -22.41,12.6 -35.92,23.66 -40.32,33.54 -2.04,4.59 -2.12,8.96 -0.96,13.06 1.57,4 3.77,7.46 7.2,9.81l90.1 92.71c5.1,4.47 7.64,13.86 7.09,28.49 -0.85,14.48 -4.37,33.29 -10.77,56.05 -4.55,19.45 -8.09,35.77 -11.54,48.55 -3.14,12.92 -6.09,22.9 -9.36,30.25 -12.96,17.36 -26.01,34.95 -38.86,52.91 -5.23,27.68 -10.15,57.16 -15.36,88.15 -15.51,24.76 -31.32,50.21 -47.85,75.62 -1.23,2.75 -1.32,5.47 -0.99,8.09 0.74,2.53 2.62,5.02 5.21,6.73 10.39,5.17 17.05,10.34 20.71,16.37 3.65,6.04 4,11.97 1.24,18.18 -3.69,8.27 -8.01,13.78 -13.58,17.08 -5.58,3.3 -11.89,4.9 -19.24,4.65 -9.43,0.21 -17.09,0.65 -22.89,1.1 -5.58,0.82 -9.72,1.73 -12.41,2.73l-6.68 46.86 -59.07 88.24c-3.68,8.28 -9.12,17.97 -16.61,29.78 -7.5,11.8 -16.44,25.17 -27.64,40.28 -11.55,9.18 -20.41,17.35 -27.11,24 -6.8,6.89 -10.71,11.48 -11.93,14.24 -0.27,8.97 -1.05,18.26 -2.34,27.87 -9.16,10.51 -18.32,21.03 -27.69,31.17 -9.47,10.38 -18.53,20.66 -27.48,30.72 -13.5,12.71 -27.34,20.32 -41.61,23.05 -14.49,2.36 -28.9,0.35 -43.23,-6.03 -8.09,-3.61 -12.89,-8.77 -14.58,-15.86 -1.49,-6.72 -0.19,-15.5 4.41,-25.84 1.95,-4.37 6.16,-10.48 12.12,-18.01 5.66,-7.67 9.77,-13.55 11.82,-18.14 1.32,-2.99 2.65,-7.63 3.75,-13.47 1.21,-6.07 2.64,-10.94 4.48,-15.08 5.63,-12.64 16.08,-31.94 31.79,-57.98 15.7,-26.05 26.57,-46.27 32.7,-60.06 0.58,-8.83 1.04,-18.26 1.51,-27.69 5.65,-7.67 10.79,-15.85 15.3,-24.3 4.51,-8.45 7.78,-16.63 10.01,-25l21.79 -12.05 15.99 -67.77 -5.62 -4.99c-3.74,-1.66 -9.44,-3.1 -17.22,-4.08 -8.08,-1.12 -17.92,-1.65 -30.56,-1.77 -7.88,-1.58 -20.32,-4.64 -36.51,-9.37 -16.39,-5.09 -37.56,-12.87 -63.31,-23.78 -12.64,-0.95 -24.55,-1.85 -35.95,-3.07 -14.94,-4.17 -34.12,-8.03 -58.17,-11.86 -23.64,-3.91 -51.31,-7.97 -82.93,-12.41 -19.16,-1.38 -36.16,-3.44 -51.3,-6.32 -15.24,-2.66 -27.16,-6.04 -36.51,-10.2 -7.16,-3.19 -14.31,-3.9 -20.83,-1.84 -6.72,1.69 -13.43,5.86 -19.61,12.19 -5.04,6.29 -13.8,14.23 -26.59,23.68 -12.38,9.36 -28.78,21.06 -48.69,34.77 -4.65,3.71 -11.45,9.77 -20.1,18.31 -8.97,8.4 -19.68,19.05 -31.73,31.86 -6.39,4.3 -14.03,9.72 -22.59,16.37 -8.87,6.51 -18.98,14.13 -30.11,23.21 -2.35,5.28 -6.26,11.53 -10.98,18.79 -5.14,7.35 -11.62,15.2 -19.03,24.29 -5.87,4.82 -13.51,11.06 -23.1,18.36 -9.59,7.29 -20.84,14.95 -33.84,23.2 -8.16,4.9 -17.36,7.14 -27.93,6.56 -10.88,-0.71 -23.43,-4.37 -38.07,-10.89 -10.28,-4.58 -17.25,-10.71 -20.5,-18.49 -3.67,-7.69 -2.89,-16.98 1.91,-27.78 5.22,-11.72 13.03,-24.22 23.41,-37.49 10.18,-13.64 23.36,-27.32 39.13,-41.78 19.36,-20.01 35.12,-36.12 47.9,-48.05 12.56,-12.31 20.9,-21.81 24.7,-28.66 3.3,-2.38 8.24,-6.79 15.56,-13.17 7.32,-6.37 15.77,-14.45 25.97,-23.95 10.62,-8.77 21.33,-19.41 32.66,-31.44l-2.22 -7.6 -30.5 -9.45c-6.65,-3.51 -10.71,-7.8 -11.98,-12.49 -1.48,-5.06 -0.88,-10.58 1.67,-16.33 1.43,-3.21 3.59,-6.38 6.47,-9.51 2.99,-3.35 6.9,-7.11 11.44,-11.42zm386.55 23.69c13.71,6.1 35.7,12.87 65.26,20.25 29.66,7.15 51.34,13.77 65.36,20.01 7.79,5.12 16,10.16 24,14.82 16.29,4.5 32.37,8.63 48.33,12.16 15.87,3.76 31.74,7.52 47.92,12.24 6.64,1.86 11.82,1.96 15.96,1.05 4.24,-1.14 7.23,-3.66 9.07,-7.8 4.69,-13.88 8.16,-23.35 10.41,-28.41 3.78,-8.5 8.7,-17.87 14.86,-27.52 6.27,-9.88 13.67,-19.8 21.49,-29.81l2.5 -34.95 16.01 -25.91c1.91,-10.99 4.23,-21.25 6.56,-30.67 2.33,-9.43 5.3,-16.92 9.1,-22.11 -0.43,-2.39 -0.97,-6.21 -2.34,-11.5 -1.28,-5.53 -2.76,-11.42 -4.24,-17.31 -2.85,-10.36 -5.81,-20.48 -8.97,-30.15 -3.37,-10.04 -6.53,-19.7 -9.48,-29.83 -4.63,-12.25 -10.9,-22.47 -19.02,-31.05 -7.92,-8.2 -16.97,-14.71 -27.24,-19.28 -12.15,-5.41 -27.78,-3.84 -47,4.95 -19.11,8.57 -40.67,25.13 -64.87,49.32 -3.2,2.98 -11.77,7.98 -24.88,15.63 -13.11,7.65 -31.39,16.86 -54.63,27.99 -10.07,15.89 -27.68,33.66 -52.95,52.69 -25.27,19.04 -57.88,40.31 -97.94,63.23 -4.55,1.83 -7.33,3.89 -8.57,5.82 -1.33,2.16 -2.77,4.55 -3.89,7.08 -1.43,3.21 -1.52,5.93 -0.06,8.51 1.47,2.58 4.27,4.65 8.63,6.59 6.23,2.78 16.09,6.62 30.11,12.03 14.11,5.18 24.28,9.16 30.51,11.93z"/>
</svg>
