<?xml-stylesheet href="Poliska-regata-logo.css" type="text/css"?>
<svg xmlns="http://www.w3.org/2000/svg" xml:space="preserve" width="500px" height="506px" version="1.1" style="shape-rendering:geometricPrecision; text-rendering:geometricPrecision; image-rendering:optimizeQuality; fill-rule:evenodd; clip-rule:evenodd"
viewBox="0 0 505.58 511.88"
 xmlns:xlink="http://www.w3.org/1999/xlink">
  <path id="regata" class="fil0" d="M151.27 442.82c-0.17,-0.37 -0.61,-0.93 -1.33,-1.65 -0.72,-0.72 -1.63,-1.65 -2.73,-2.76 -1.18,-1.05 -2.03,-1.87 -2.59,-2.44 -0.53,-0.57 -0.79,-0.93 -0.76,-1.1 0.14,-0.65 2.24,-1.33 6.3,-2.04 4.06,-0.71 6.96,-0.89 8.71,-0.51 1.23,0.48 2.11,0.88 2.66,1.22l2.61 0.56c1.47,0.65 3.04,1.3 4.62,1.93 1.6,0.63 3.14,1.27 4.65,1.9 4.51,1.86 7.3,3.18 8.35,3.96 1.05,0.77 2.76,1.76 5.18,2.95 0.31,0.26 0.96,0.73 1.91,1.38 0.95,0.65 2.26,1.49 3.9,2.53 0.22,0.12 0.49,0.32 0.81,0.57 0.28,0.26 0.63,0.55 1,0.84 2.24,1.73 4.11,3.28 5.59,4.64 1.51,1.38 2.59,2.58 3.3,3.63 0.87,1.29 1.47,2.59 1.75,3.89 0.31,1.32 0.3,2.67 0,4.07 -0.55,2.59 -1.88,4.6 -4.01,6 -2.09,1.41 -5.08,2.16 -8.92,2.25 -0.38,0.04 -0.91,0.06 -1.57,0.09 -0.68,0 -1.34,0.05 -2.03,0.09l-1.23 0.22c-1.07,0.23 -2.81,0.36 -5.2,0.38 -2.4,0.01 -5.51,-0.08 -9.35,-0.29 -5.09,-0.27 -10.47,-0.53 -16.13,-0.78 -1.57,-0.03 -2.9,-0.05 -4.01,-0.08 -1.11,-0.05 -1.96,-0.13 -2.56,-0.26 -1.66,-0.35 -2.71,-0.52 -3.06,-0.5 -0.37,0.02 -0.9,0.89 -1.54,2.6 -0.43,1.11 -0.84,2.2 -1.26,3.26 -0.08,0.4 0.12,0.92 0.63,1.58 0.48,0.65 1.31,1.42 2.46,2.29 -0.63,0.37 -1.32,0.7 -2.07,1 -0.78,0.3 -1.68,0.61 -2.8,0.91 -1.18,0.41 -2.34,0.65 -3.51,0.73 -1.17,0.09 -2.24,0.02 -3.22,-0.18 -1.93,-0.41 -3.24,-1.12 -3.98,-2.14 -0.72,-1 -0.91,-2.32 -0.56,-3.96 0.11,-0.51 0.45,-1.12 1.04,-1.82 0.55,-0.69 1.38,-1.53 2.42,-2.5l-0.01 -2.13c-0.71,-0.3 -1.42,-0.61 -2.1,-0.92 -0.71,-0.32 -1.38,-0.66 -2.03,-0.98 -1,-0.41 -1.7,-0.77 -2.09,-1.11 -0.4,-0.32 -0.55,-0.6 -0.5,-0.84 0.06,-0.28 1.54,-0.4 4.48,-0.35 2.93,0.06 4.49,-0.37 4.68,-1.3 0.06,-0.25 0.02,-0.64 -0.15,-1.19 -0.16,-0.55 -0.2,-0.95 -0.15,-1.17 0.79,-1.26 1.68,-2.5 2.59,-3.74 0.15,-0.12 0.39,-0.51 0.72,-1.18 0.32,-0.65 0.78,-1.61 1.32,-2.87 0.26,-0.36 0.64,-0.8 1.13,-1.34 0.48,-0.52 0.99,-1.15 1.57,-1.85l-0.36 -1.4 7.43 -10.09zm271.09 -63.32c0.69,-2.35 1.52,-4.86 2.52,-7.57 0.99,-2.72 2.17,-5.68 3.53,-8.89 0.27,-0.62 0.67,-1.47 1.24,-2.61 0.58,-1.14 1.02,-2.08 1.31,-2.77 0.51,-1.01 0.92,-1.79 1.22,-2.29 0.32,-0.59 0.75,-1.37 1.28,-2.36l0.7 -2.41c0.24,-0.49 0.54,-0.99 0.92,-1.49 0.4,-0.52 0.85,-1.15 1.38,-1.89 0.07,-0.49 0.2,-1.17 0.39,-2.04 0.35,-0.84 0.77,-1.45 1.23,-1.85 0.49,-0.42 0.98,-0.61 1.51,-0.58 0.36,0.15 0.7,0.29 1.05,0.44 0.34,0.15 0.68,0.35 1,0.62 0.14,0.13 0.44,0.22 0.86,0.27 0.42,0.05 0.73,0.11 0.93,0.2 0.24,0.1 0.35,0.31 0.35,0.64 -0.01,0.33 -0.1,0.69 -0.29,1.13 -0.87,2.07 -1.82,4.08 -2.82,6.06 -1,1.95 -2.07,3.87 -3.22,5.79 -0.61,1.79 -1.16,3.37 -1.65,4.71 -0.39,1.05 -0.65,1.84 -0.77,2.38 -0.12,0.51 -0.12,0.81 0.02,0.86 0.25,-0.15 0.53,-0.37 0.87,-0.68 0.34,-0.32 0.7,-0.69 1.09,-1.19 0.28,-0.34 0.7,-0.66 1.27,-1.01 0.56,-0.32 1.27,-0.65 2.12,-0.91 0.34,-0.12 0.64,-0.2 0.9,-0.18 0.25,0 0.47,0.07 0.67,0.15 0.46,0.19 1,0.55 1.59,1.07 0.6,0.52 1.07,0.98 1.39,1.45 0.64,0.86 1.2,1.53 1.64,2.05 0.45,0.52 0.77,0.92 1,1.18 0.17,0.2 0.4,0.4 0.69,0.59 0.28,0.18 0.61,0.39 0.98,0.61 0.31,0.2 0.63,0.6 0.96,1.2 0.34,0.58 0.74,1.21 1.21,1.87 0.28,0.12 0.59,0.31 0.89,0.64 0.31,0.33 0.64,0.73 1.01,1.22 0.21,0.29 0.43,0.68 0.63,1.19 0.22,0.49 0.51,1.01 0.85,1.55 0.37,0.03 0.75,0.09 1.13,0.18 0.52,0.49 1.06,0.98 1.63,1.49 0.81,0.73 1.63,1.45 2.46,2.19 0.82,0.75 1.64,1.43 2.43,2.09 0.11,0.45 0.25,0.93 0.43,1.44 0.15,0.06 0.41,0.11 0.8,0.11 0.37,-0.01 0.66,0.04 0.86,0.13 0.23,0.1 0.56,0.34 0.94,0.76 0.38,0.43 0.67,0.68 0.89,0.78 0.42,0.17 1.06,0.48 1.92,0.91 0.85,0.43 1.5,0.74 1.94,0.92 0.49,-0.12 0.96,-0.22 1.4,-0.29 0.25,0.3 0.41,0.6 0.51,0.87 0.12,0.25 0.15,0.59 0.13,0.95 -0.19,1.1 -0.37,2.09 -0.55,2.96 -0.03,0.65 -0.04,1.18 -0.05,1.56 -0.02,0.42 -0.09,0.76 -0.21,1.04 -0.51,1.2 -0.93,2.01 -1.28,2.46 -0.32,0.42 -0.61,0.6 -0.82,0.5 -0.69,-0.42 -1.32,-0.88 -1.88,-1.45 -0.14,0.07 -0.32,0.12 -0.55,0.19 -0.24,0.07 -0.54,0.17 -0.93,0.33 -1.83,-0.44 -3.73,-0.85 -5.72,-1.17 -1.24,-0.72 -2.51,-1.36 -3.83,-1.92 -0.62,-0.26 -1.37,-0.65 -2.25,-1.19 -0.87,-0.53 -1.85,-1.24 -2.91,-2.16 -1.07,-0.91 -2.03,-1.62 -2.89,-2.18 -0.85,-0.56 -1.58,-0.97 -2.18,-1.22 -0.26,-0.11 -0.57,-0.31 -0.92,-0.62 -0.34,-0.31 -0.77,-0.69 -1.31,-1.09 -0.43,-0.38 -0.82,-0.74 -1.16,-1.08 -0.33,-0.34 -0.67,-0.58 -0.99,-0.72 -0.18,-0.08 -0.38,-0.13 -0.6,-0.16 -0.22,-0.02 -0.42,-0.04 -0.6,-0.05 -0.32,-0.77 -0.59,-1.38 -0.81,-1.8 -0.23,-0.43 -0.41,-0.63 -0.51,-0.68 -0.38,0.07 -0.76,0.21 -1.18,0.36 -0.16,-0.46 -0.56,-1.06 -1.2,-1.76 -0.65,-0.74 -1.53,-1.58 -2.63,-2.57 -0.27,-0.12 -0.59,-0.25 -0.96,-0.41 -0.37,-0.16 -0.81,-0.38 -1.32,-0.66l-0.81 0.25c-0.13,0.18 -0.36,0.58 -0.66,1.11 -0.32,0.55 -0.66,1.23 -1.09,2.11l-0.16 1.18c-0.22,0.73 -0.47,1.49 -0.71,2.24 -0.26,0.78 -0.51,1.6 -0.77,2.45 -1.76,5.94 -3.53,11.82 -5.27,17.65 -0.19,0.44 -0.41,0.78 -0.66,0.97 -0.27,0.22 -0.52,0.27 -0.76,0.17 -0.13,-0.05 -0.3,-0.29 -0.52,-0.71 -0.22,-0.39 -0.46,-1.02 -0.72,-1.86 -0.73,-0.41 -1.32,-0.82 -1.75,-1.2 -0.44,-0.39 -0.74,-0.75 -0.9,-1.08 -0.31,-0.62 -0.44,-1.47 -0.39,-2.5 0.07,-1.07 0.26,-2.24 0.62,-3.57 0.74,-2.65 1.51,-5.09 2.33,-7.32 0.81,-2.23 1.66,-4.27 2.54,-6.08zm62.95 -20.64c-0.27,0.14 -0.49,0.25 -0.66,0.27 -0.17,0.02 -0.31,0.01 -0.43,0.01 -0.79,-0.04 -1.45,-0.32 -1.99,-0.81 -0.54,-0.51 -0.97,-1.23 -1.31,-2.19 -0.07,-0.25 -0.19,-0.86 -0.33,-1.87 -0.13,-0.98 -0.3,-2.27 -0.47,-3.89 -0.16,-1.13 -0.37,-2.06 -0.63,-2.74 -0.27,-0.71 -0.6,-1.09 -1.04,-1.18 -0.32,-0.2 -0.68,-0.55 -1.08,-1.12 -0.41,-0.57 -0.84,-1.2 -1.31,-1.95 -0.12,-0.22 -0.91,-0.99 -2.35,-2.25 -1.45,-1.27 -3.56,-3.05 -6.37,-5.32 -0.85,-0.63 -1.57,-1.27 -2.19,-1.88 -0.62,-0.64 -1.14,-1.19 -1.57,-1.61 -1.93,-2.01 -3.18,-3.63 -3.75,-4.87 -0.56,-1.25 -1.04,-2.19 -1.41,-2.78l-0.19 -0.01 -1.89 2.66 -1.43 -3.57 -0.12 -4.44c-0.01,-0.88 -0.3,-1.72 -0.88,-2.51 -0.58,-0.76 -1.2,-2.1 -1.84,-3.96 -0.02,-0.43 -0.13,-1.1 -0.34,-2.02 -0.2,-0.93 -0.49,-2.13 -0.87,-3.58 -0.35,-1.26 -0.59,-2.34 -0.74,-3.23 -0.13,-0.89 -0.2,-1.59 -0.17,-2.07 0.08,-1.58 0.28,-2.73 0.57,-3.44 0.31,-0.68 0.67,-1.03 1.1,-1.01 0.52,0.03 1.26,0.77 2.19,2.16 0.93,1.41 1.65,2.15 2.18,2.18 0.24,0.01 0.44,-0.13 0.61,-0.37 0.17,-0.26 0.29,-0.56 0.35,-0.92l2.89 -10.55c0.13,-0.57 0.52,-1.1 1.21,-1.55 0.68,-0.42 1.61,-0.77 2.76,-1.01 0.97,-0.28 1.78,-0.54 2.43,-0.69 0.64,-0.18 1.15,-0.28 1.54,-0.26 1.01,0.48 2.02,0.96 3.05,1.41 1.37,-0.51 2.81,-1.1 4.32,-1.72 1.39,0.44 2.81,0.88 4.24,1.38 0.15,0.01 0.28,-0.08 0.39,-0.19 0.11,-0.15 0.19,-0.39 0.23,-0.66 0.08,-1.03 0.22,-1.75 0.44,-2.26 0.22,-0.5 0.49,-0.73 0.82,-0.72 0.44,0.03 0.76,0.2 1,0.54 0.24,0.35 0.41,0.81 0.52,1.43 0.15,0.77 0.29,1.38 0.4,1.84 0.13,0.44 0.23,0.75 0.32,0.93l2.27 -1.03 5 1.87c0.44,0.02 0.98,0.14 1.64,0.36 0.66,0.22 1.42,0.5 2.29,0.91 0.61,0.64 1.12,1.09 1.53,1.42 0.43,0.32 0.7,0.49 0.85,0.5 0.42,-0.28 0.86,-0.53 1.32,-0.75 0.63,0.39 1.26,0.79 1.88,1.22 0.62,0.43 1.24,0.83 1.84,1.22 0.8,0.68 1.37,1.56 1.72,2.65 0.33,1.11 0.46,2.36 0.39,3.76 -0.04,0.78 -0.21,1.35 -0.51,1.73 -0.29,0.35 -0.72,0.54 -1.27,0.51 -0.23,-0.01 -0.58,-0.15 -1.02,-0.38 -0.44,-0.21 -0.77,-0.35 -1.02,-0.36 -0.16,-0.01 -0.39,0.04 -0.68,0.14 -0.3,0.11 -0.55,0.16 -0.77,0.15 -0.67,-0.04 -1.73,-0.25 -3.17,-0.66 -1.45,-0.41 -2.56,-0.62 -3.29,-0.65 -0.42,0.25 -0.86,0.53 -1.31,0.81 -0.44,-0.21 -0.9,-0.35 -1.36,-0.44 -0.46,-0.08 -0.89,-0.07 -1.31,0.02l-0.9 -1.38 -3.38 0.98 -0.14 0.63c-0.02,0.36 0,0.88 0.07,1.55 0.08,0.71 0.21,1.53 0.4,2.58 0.04,0.7 0.1,1.83 0.13,3.32 0.02,1.52 -0.02,3.53 -0.12,6.01 0.15,1.08 0.29,2.09 0.41,3.07 0.04,1.37 0.16,3.07 0.36,5.18 0.18,2.08 0.42,4.49 0.71,7.25 0.23,1.62 0.4,3.09 0.5,4.43 0.11,1.34 0.14,2.44 0.1,3.35 -0.04,0.7 0.04,1.31 0.23,1.78 0.19,0.49 0.48,0.9 0.87,1.2 0.37,0.2 0.87,0.65 1.51,1.38 0.62,0.7 1.42,1.66 2.36,2.83 0.25,0.26 0.63,0.61 1.16,1.04 0.53,0.45 1.19,0.97 1.97,1.53 0.3,0.38 0.67,0.82 1.11,1.3 0.44,0.51 0.95,1.09 1.54,1.69 0.28,0.02 0.63,0.13 1.04,0.27 0.42,0.18 0.88,0.44 1.42,0.75 0.31,0.32 0.72,0.73 1.21,1.28 0.48,0.54 1.01,1.2 1.59,1.99 0.36,0.51 0.6,1.19 0.74,2.08 0.14,0.92 0.16,2.08 0.09,3.5 -0.06,1 -0.23,1.78 -0.54,2.31 -0.3,0.57 -0.74,0.82 -1.32,0.79 -0.62,-0.04 -1.32,-0.26 -2.09,-0.66 -0.79,-0.38 -1.63,-1 -2.54,-1.81 -1.23,-0.91 -2.22,-1.66 -2.97,-2.31 -0.77,-0.62 -1.33,-0.98 -1.71,-1.06 -0.16,-0.19 -0.44,-0.45 -0.85,-0.84 -0.41,-0.38 -0.91,-0.81 -1.51,-1.32 -0.57,-0.58 -1.23,-1.1 -1.96,-1.63l-0.32 0.44 0.03 2.83c-0.06,0.67 -0.19,1.15 -0.39,1.41 -0.21,0.29 -0.47,0.43 -0.78,0.42 -0.17,-0.01 -0.35,-0.08 -0.54,-0.22 -0.2,-0.13 -0.44,-0.32 -0.71,-0.55zm-4.89 -32.61c0.07,-1.33 0.04,-3.37 -0.08,-6.05 -0.13,-2.68 -0.16,-4.69 -0.09,-6.05 0.12,-0.82 0.23,-1.67 0.32,-2.48 -0.05,-1.49 -0.1,-2.96 -0.19,-4.39 -0.07,-1.43 -0.14,-2.86 -0.17,-4.36 -0.02,-0.61 -0.1,-1.03 -0.2,-1.34 -0.12,-0.31 -0.29,-0.48 -0.51,-0.49 -0.71,0.09 -1.2,0.12 -1.47,0.11 -0.45,-0.03 -0.96,-0.11 -1.51,-0.29 -0.55,-0.18 -1.12,-0.46 -1.71,-0.76l-1.65 0.98 -1.45 -0.45c-0.54,0.22 -1.05,0.38 -1.52,0.5 -0.48,0.13 -0.87,0.14 -1.17,0 -0.1,0.12 -0.27,0.29 -0.49,0.58 -0.24,0.3 -0.49,0.62 -0.74,0.94 -0.43,0.58 -0.86,1.17 -1.26,1.76 -0.41,0.61 -0.81,1.2 -1.23,1.79 -0.49,0.79 -0.87,1.65 -1.14,2.61 -0.26,0.93 -0.42,1.9 -0.47,2.9 -0.06,1.18 0.25,2.41 0.96,3.7 0.69,1.28 1.79,2.49 3.28,3.66 0.19,0.17 0.56,0.7 1.11,1.52 0.56,0.82 1.27,2.01 2.15,3.55 0.89,0.29 1.98,1.14 3.26,2.57 1.27,1.44 2.76,3.4 4.44,5.92 0.16,0.31 0.3,0.47 0.4,0.51 0.12,0.04 0.26,0.07 0.39,0.08 0.17,0.01 0.3,-0.08 0.4,-0.28 0.09,-0.21 0.15,-0.51 0.17,-0.94 0.03,-0.6 0.05,-1.54 0.09,-2.88 0.02,-1.34 0.04,-2.31 0.08,-2.92zm-321.11 113.93c-0.36,-0.08 -0.6,-0.09 -0.76,-0.06 -0.17,0.04 -0.28,0.13 -0.31,0.27 6.25,4.33 9.21,7.19 8.92,8.56 -0.09,0.42 -1.61,2 -4.52,4.75 -2.91,2.73 -4.84,4.36 -5.78,4.86l0.37 1.62c-2.08,2.04 -3.67,3.81 -4.83,5.34 -1.13,1.53 -1.8,2.8 -2.02,3.8 -0.05,0.27 0.03,0.47 0.27,0.65 0.24,0.17 0.58,0.31 1.06,0.41 0.56,0.12 1.63,0.23 3.19,0.34 1.55,0.12 3.56,0.16 6.05,0.15 1.58,0 3.16,0.02 4.74,0.05 1.57,0.05 3.15,0.07 4.78,0.11 0.69,-0.01 1.44,-0.03 2.35,-0.07 0.88,-0.05 1.85,-0.11 2.9,-0.21 1.48,-0.13 2.65,-0.23 3.51,-0.34 0.89,-0.08 1.43,-0.14 1.69,-0.16 2.64,-0.18 4.73,-0.65 6.23,-1.43 1.5,-0.78 2.39,-1.9 2.7,-3.35 0.18,-0.87 0.13,-1.79 -0.19,-2.79 -0.31,-0.99 -0.83,-2.06 -1.64,-3.21l0.03 -0.87c-0.1,-0.15 -0.28,-0.32 -0.54,-0.54 -0.27,-0.21 -0.55,-0.46 -0.84,-0.71 -0.33,-0.22 -0.67,-0.49 -1.01,-0.8 -0.37,-0.33 -0.69,-0.71 -0.94,-1.15 -0.79,-0.93 -2.27,-2.18 -4.47,-3.78 -2.21,-1.59 -5.21,-3.52 -8.98,-5.78 -0.41,-0.27 -0.91,-0.57 -1.42,-0.92 -0.55,-0.34 -1.12,-0.71 -1.78,-1.13 -1.06,-0.43 -2.31,-0.95 -3.77,-1.55 -1.43,-0.58 -3.11,-1.27 -4.99,-2.06zm127.86 47.96l3.98 2.53c-0.57,0.37 -1.29,0.79 -2.16,1.24 -0.83,0.47 -1.84,0.97 -2.99,1.54 -1.18,0.43 -2.59,0.96 -4.22,1.62 -1.66,0.68 -3.54,1.44 -5.66,2.31 -1.6,0.79 -2.9,1.39 -3.92,1.83 -1.03,0.43 -1.75,0.7 -2.16,0.79 -0.74,0.15 -2.11,0.58 -4.05,1.26 -1.93,0.68 -4.49,1.63 -7.62,2.83 -1.7,0.63 -3.49,1.28 -5.36,1.97 -1.9,0.68 -3.84,1.34 -5.9,2l-5.48 0.69 -3.2 1.3c-1.09,0.24 -2.2,0.46 -3.33,0.69 -1.13,0.23 -2.23,0.44 -3.28,0.61 -1.7,0.33 -2.97,0.5 -3.86,0.53 -0.87,0.01 -1.34,-0.14 -1.4,-0.44l0.25 -1.44 -0.58 -0.14c-1.96,0.42 -3.32,0.59 -4.02,0.53 -0.73,-0.07 -1.16,-0.49 -1.32,-1.26 -0.08,-0.36 -0.17,-0.94 -0.26,-1.78 -0.08,-0.84 -0.16,-1.93 -0.26,-3.28 -0.03,-0.12 0.1,-0.41 0.41,-0.86 0.27,-0.45 0.42,-0.77 0.39,-0.92 -0.35,-0.18 -0.56,-0.32 -0.65,-0.45 -0.09,-0.13 -0.15,-0.26 -0.17,-0.36 -0.08,-0.94 -0.08,-2.12 0.02,-3.54 0.1,-1.41 0.24,-3.09 0.42,-5.03 0.48,-1.25 0.78,-2.61 0.96,-4.09 -0.33,-1 -0.68,-2.03 -1.02,-3.08 1.34,-4.34 2.71,-8.72 4.13,-13.12 0.21,-0.77 0.72,-1.58 1.53,-2.42 0.82,-0.82 1.85,-1.68 3.03,-2.55 0.56,-0.29 0.92,-0.49 1.08,-0.62 0.22,-0.28 0.55,-0.62 0.96,-1.03 0.38,-0.41 0.87,-0.89 1.41,-1.42 0.33,-0.17 0.87,-0.43 1.6,-0.79 0.76,-0.35 1.74,-0.83 3.01,-1.44 0.56,-0.32 1.16,-0.67 1.88,-1.1 0.69,-0.41 1.48,-0.9 2.42,-1.46 2.08,-1.01 4.01,-2.01 5.76,-3 1.77,-1.01 4.04,-1.87 6.86,-2.62 1.33,-0.3 2.66,-0.62 3.99,-0.94 1.3,-0.3 2.57,-0.62 3.78,-0.93 1.13,-0.34 2.16,-0.61 3.02,-0.82 0.55,-0.17 1.08,-0.33 1.48,-0.46 0.44,-0.15 0.82,-0.25 1.18,-0.33 0.32,-0.07 0.83,-0.16 1.43,-0.25 0.63,-0.1 1.45,-0.21 2.53,-0.37 0.81,-0.14 1.49,-0.28 2.09,-0.4 0.56,-0.12 1.12,-0.25 1.65,-0.39 2.38,-0.22 4.16,-0.17 5.37,0.13 1.21,0.31 1.92,0.84 2.07,1.58 0.35,1.61 0.22,2.89 -0.42,3.85 -0.61,0.95 -1.74,1.6 -3.43,1.96 -1.28,0.27 -2.79,0.32 -4.51,0.13 -1.74,-0.18 -6.19,0.49 -13.32,2.01 -2.89,0.85 -5.78,1.71 -8.64,2.56 -0.23,0.25 -0.56,0.47 -0.89,0.64 -0.37,0.17 -0.68,0.31 -0.97,0.42l-3.12 0.19c-0.92,0.34 -1.88,0.95 -2.91,1.83 -1.02,0.88 -2.05,2 -3.1,3.37 -0.24,0.29 -0.39,0.63 -0.46,1.01 -0.08,0.38 -0.05,0.8 0.05,1.27 -0.68,1.91 -1.38,3.76 -2.11,5.55 -0.63,1.89 -1.16,3.34 -1.57,4.33 -0.44,0.99 -0.68,1.59 -0.76,1.81 -0.13,0.26 -0.23,0.52 -0.27,0.76 -0.08,0.23 -0.09,0.45 -0.05,0.66 0.07,0.31 0.26,0.51 0.57,0.62 0.33,0.1 0.79,0.08 1.36,-0.04 0.53,-0.12 1.7,-0.76 3.55,-1.96 1.83,-1.2 3.22,-1.95 4.18,-2.25 1.19,-0.39 2.4,-0.81 3.62,-1.24 1.21,-0.43 2.44,-0.9 3.73,-1.42 0.52,-0.18 1.87,-0.56 4.07,-1.16 2.23,-0.6 5.29,-1.38 9.26,-2.4l2.5 -0.25 4.53 -1.32 2.53 -0.07c0.64,0.12 1.24,0.29 1.82,0.52 0.54,0.23 1.07,0.51 1.57,0.82 0.29,1.4 0.14,2.54 -0.45,3.43 -0.59,0.88 -1.67,1.5 -3.16,1.81l-4.94 0.24c-3.92,1.01 -7.77,1.99 -11.6,2.97 -3.83,0.96 -7.72,1.95 -11.7,2.93 -4.79,1.43 -8.39,2.88 -10.82,4.32 -2.42,1.45 -3.63,2.92 -3.59,4.43 0.01,0.32 -0.1,0.83 -0.32,1.53 -0.23,0.71 -0.45,1.57 -0.72,2.62l0.84 0.9c-0.32,1.12 -0.53,2.16 -0.61,3.11 -0.11,0.95 -0.09,1.77 0.06,2.48 0.05,0.23 0.18,0.38 0.38,0.45 0.2,0.07 0.38,0.05 0.61,-0.03 2.77,-0.69 4.99,-1.24 6.67,-1.65 1.65,-0.4 2.84,-0.66 3.55,-0.79 1.53,-0.27 3.05,-0.55 4.64,-0.84l5.45 -1.34c0.56,-0.17 1.8,-0.62 3.66,-1.37 1.89,-0.74 3.6,-1.28 5.15,-1.61 1.69,-0.35 3.37,-0.79 5.06,-1.3 1.67,-0.49 3.26,-1.03 4.78,-1.6 1.53,-0.56 3.02,-1.13 4.51,-1.71 1.49,-0.57 2.99,-1.14 4.51,-1.71 0.55,-0.19 1.29,-0.49 2.21,-0.87 0.91,-0.39 1.98,-0.88 3.2,-1.45zm75.85 -60.88c0.18,0.31 0.38,0.64 0.59,1.02 0.21,0.37 0.34,0.76 0.36,1.16 0.04,0.2 -0.02,0.45 -0.22,0.79 -0.19,0.32 -0.29,0.58 -0.32,0.77 -0.12,0.53 -0.36,1.02 -0.78,1.5 -0.4,0.46 -0.69,0.74 -0.85,0.84 -0.34,0.19 -0.6,0.47 -0.77,0.79 -0.16,0.33 -0.37,0.57 -0.69,0.75 -0.37,0.21 -0.84,0.36 -1.48,0.48 -0.61,0.08 -1.06,0.21 -1.33,0.37 -1.16,0.59 -2.11,1.02 -2.8,1.28 -0.68,0.26 -1.28,0.45 -1.77,0.57 -0.71,0.17 -1.53,0.39 -2.4,0.65 -0.87,0.24 -2.42,0.9 -4.63,1.92 -0.71,0.36 -1.43,0.7 -2.17,1.04 -0.78,0.36 -1.5,0.74 -2.23,1.13 -0.47,0.27 -0.98,0.6 -1.58,1.02 -0.58,0.4 -1.14,0.75 -1.64,1.04 -0.48,0.28 -0.98,0.5 -1.51,0.67 -0.56,0.19 -1.09,0.42 -1.62,0.73 -0.92,0.53 -1.85,1.09 -2.83,1.71 -1,0.64 -2,1.26 -3.07,1.91 -0.47,0.27 -0.94,0.55 -1.46,0.87 -0.49,0.31 -1.01,0.62 -1.51,0.91 -0.09,0.2 -0.22,0.41 -0.37,0.64 -0.15,0.21 -0.27,0.43 -0.34,0.61 -0.14,0.25 -0.36,0.54 -0.67,0.91 -0.32,0.35 -0.51,0.64 -0.6,0.85 -0.08,0.22 -0.11,0.41 -0.09,0.62 0,0.19 0.01,0.39 -0.03,0.56 -0.2,0.63 -0.39,1.26 -0.6,1.94 -0.18,0.65 -0.33,1.31 -0.43,1.98 -0.1,0.44 -0.17,1.05 -0.25,1.81 -0.05,0.77 -0.13,1.67 -0.14,2.68 0.01,1.1 0.01,2.39 0.03,3.87 -0.02,1.5 0.06,3.09 0.22,4.76 0.06,0.96 0.15,1.96 0.2,3.03 0.06,1.06 0.19,2.14 0.32,3.22 0.08,0.86 0.17,1.74 0.23,2.65 0.1,0.9 0.2,1.8 0.31,2.71 0.24,2 0.53,4.01 0.76,6.06 0.26,2.02 0.58,3.97 0.94,5.82 0.25,0.91 0.46,1.83 0.62,2.77 0.19,0.94 0.38,1.81 0.67,2.62 0.11,0.18 0.39,0.3 0.87,0.35 0.45,0.05 0.73,0.17 0.79,0.39 0.1,0.18 0.07,0.43 -0.11,0.73 -0.18,0.29 -0.22,0.53 -0.11,0.72 0.07,0.12 -0.03,0.42 -0.37,0.94 -0.34,0.51 -0.62,0.87 -0.9,1.11 -0.14,0.11 -0.45,0.43 -0.97,0.99 -0.5,0.53 -0.89,0.88 -1.16,1.03 -0.27,0.19 -0.62,0.32 -1.01,0.38 -0.38,0.06 -0.68,0.15 -0.94,0.3 -0.21,0.12 -0.52,0.2 -0.95,0.25 -0.42,0.06 -0.79,0.15 -1.1,0.27 -0.57,0.24 -1.26,0.43 -2.09,0.58 -0.85,0.17 -1.38,0.21 -1.63,0.15 -0.27,-0.05 -0.57,-0.15 -0.85,-0.31 -0.26,-0.16 -0.47,-0.4 -0.64,-0.69 -0.14,-0.25 -0.29,-0.51 -0.44,-0.82 -0.14,-0.3 -0.26,-0.58 -0.41,-0.84 -0.23,-0.39 -0.22,-0.93 -0.01,-1.6 0.23,-0.69 0.23,-1.23 0.01,-1.62 -0.45,-0.77 -0.68,-1.6 -0.74,-2.49 -0.02,-0.89 -0.2,-1.75 -0.54,-2.58 -0.29,-0.51 -0.47,-1.11 -0.47,-1.84 0.01,-0.72 -0.09,-1.37 -0.28,-1.94 -0.38,-0.97 -0.72,-1.98 -1.04,-3.03 -0.33,-1.04 -0.67,-2.06 -1.04,-3.06 -0.13,-0.59 -0.29,-1.19 -0.45,-1.82 -0.15,-0.62 -0.3,-1.24 -0.44,-1.85 -0.19,-0.58 -0.37,-1.2 -0.57,-1.85 -0.17,-0.66 -0.29,-1.34 -0.34,-2.04 -0.07,-0.48 -0.06,-0.96 0.02,-1.49 0.07,-0.53 0.06,-0.99 -0.05,-1.41 -0.02,-0.4 -0.13,-0.77 -0.3,-1.13 -0.17,-0.35 -0.28,-0.73 -0.3,-1.13 -0.05,-0.46 -0.22,-0.87 -0.51,-1.24 -0.28,-0.36 -0.46,-0.8 -0.54,-1.3 0.02,-0.34 0.15,-0.78 0.38,-1.29 0.25,-0.53 0.35,-0.97 0.3,-1.3 -0.04,-0.31 -0.08,-0.63 -0.07,-0.98 0,-0.37 -0.02,-0.7 -0.06,-1.01 -0.02,-0.04 0.06,-0.2 0.25,-0.47 0.16,-0.27 0.38,-0.62 0.62,-1.07 0.15,-0.33 0.44,-0.8 0.92,-1.43 0.44,-0.63 0.86,-1.18 1.19,-1.65 0.56,-0.79 0.88,-1.27 0.87,-1.41 0.02,-0.15 0.35,-0.61 0.92,-1.37 0.13,-0.15 0.44,-0.46 0.98,-0.97 0.52,-0.5 0.86,-0.82 0.98,-0.98 0.12,-0.15 0.04,-0.23 -0.22,-0.26 -0.26,-0.03 -0.34,-0.1 -0.26,-0.21 -0.52,0.31 -0.92,0.52 -1.26,0.67 -0.33,0.15 -0.79,0.4 -1.4,0.79 -0.85,0.54 -1.51,0.97 -2.02,1.3 -0.48,0.32 -1.17,0.77 -2.01,1.32 -1.05,0.67 -2.07,1.33 -3.07,1.97 -1,0.63 -1.94,1.25 -2.83,1.84 -0.21,0.12 -0.46,0.23 -0.77,0.31 -0.28,0.06 -0.53,0.16 -0.73,0.31 -0.3,0.2 -0.54,0.45 -0.75,0.77 -0.21,0.3 -0.4,0.51 -0.61,0.63 -0.12,0.1 -0.24,0.31 -0.33,0.59 -0.05,0.27 -0.18,0.47 -0.33,0.58 -0.17,0.13 -0.46,0.24 -0.81,0.3 -0.32,0.05 -0.56,0.13 -0.64,0.17 -0.29,0.23 -0.48,0.32 -0.54,0.27 -0.06,-0.04 -0.12,-0.15 -0.21,-0.3 -0.08,-0.14 -0.07,-0.37 0.03,-0.68 0.1,-0.3 0.23,-0.7 0.43,-1.19 0.14,-0.37 0.31,-0.75 0.55,-1.17 0.24,-0.44 0.44,-0.82 0.65,-1.18 0.25,-0.43 0.51,-0.82 0.82,-1.21 0.28,-0.36 0.54,-0.62 0.72,-0.75 0.25,-0.18 0.44,-0.39 0.58,-0.63 0.13,-0.25 0.3,-0.46 0.54,-0.64 0.25,-0.18 0.55,-0.33 0.86,-0.46 0.33,-0.15 0.6,-0.29 0.8,-0.43 0.96,-0.71 1.88,-1.42 2.79,-2.16 0.9,-0.74 1.85,-1.47 2.8,-2.19 1.07,-0.77 2.19,-1.61 3.41,-2.54 1.22,-0.92 2.52,-1.88 3.93,-2.9 0.43,-0.3 0.87,-0.68 1.25,-1.11 0.42,-0.44 0.88,-0.85 1.41,-1.2 0.26,-0.17 0.55,-0.33 0.86,-0.45 0.34,-0.15 0.64,-0.3 0.9,-0.45 2.87,-2.01 6.13,-4.21 9.73,-6.59 3.64,-2.39 7.64,-4.93 12.02,-7.66 0.96,-0.59 1.95,-1.24 2.96,-1.98 1.01,-0.74 2.06,-1.41 3.14,-2.04 0.42,-0.24 0.85,-0.46 1.28,-0.64 0.45,-0.19 0.86,-0.38 1.28,-0.63 0.58,-0.33 1.15,-0.67 1.75,-1.03 0.62,-0.38 1.23,-0.73 1.86,-1.09 0.61,-0.35 1.22,-0.68 1.8,-0.96 0.6,-0.3 1.1,-0.52 1.56,-0.7 0.28,-0.11 0.48,-0.07 0.64,0.08 0.16,0.16 0.37,0.22 0.61,0.16 0.36,-0.11 0.76,-0.28 1.23,-0.55 0.47,-0.28 0.8,-0.38 1.03,-0.34 0.79,0.03 1.42,0.27 1.89,0.66 0.45,0.41 0.78,0.87 0.94,1.39zm18.64 45.42c-0.3,-0.05 -0.54,-0.09 -0.69,-0.17 -0.15,-0.09 -0.26,-0.17 -0.35,-0.25 -0.62,-0.5 -0.99,-1.11 -1.14,-1.82 -0.13,-0.73 -0.06,-1.57 0.23,-2.55 0.09,-0.24 0.36,-0.8 0.83,-1.71 0.47,-0.87 1.1,-2 1.91,-3.42 0.53,-1.01 0.91,-1.88 1.1,-2.58 0.2,-0.74 0.15,-1.24 -0.15,-1.57 -0.14,-0.35 -0.23,-0.84 -0.22,-1.54 0.01,-0.7 0.03,-1.47 0.1,-2.35 0.02,-0.25 -0.16,-1.34 -0.59,-3.21 -0.42,-1.86 -1.08,-4.55 -2.02,-8.04 -0.32,-1 -0.53,-1.95 -0.67,-2.81 -0.12,-0.88 -0.22,-1.63 -0.33,-2.22 -0.37,-2.76 -0.44,-4.81 -0.17,-6.15 0.28,-1.34 0.45,-2.38 0.5,-3.08l-0.15 -0.11 -3.09 1.04 0.94 -3.73 2.51 -3.67c0.52,-0.71 0.77,-1.56 0.77,-2.54 -0.03,-0.96 0.26,-2.4 0.84,-4.28 0.23,-0.36 0.53,-0.97 0.91,-1.84 0.38,-0.87 0.85,-2.01 1.4,-3.4 0.46,-1.23 0.9,-2.24 1.3,-3.05 0.41,-0.8 0.77,-1.41 1.08,-1.78 0.99,-1.23 1.82,-2.04 2.48,-2.45 0.65,-0.37 1.15,-0.44 1.48,-0.17 0.41,0.33 0.57,1.36 0.51,3.03 -0.08,1.69 0.07,2.72 0.48,3.05 0.19,0.15 0.43,0.16 0.71,0.07 0.29,-0.12 0.56,-0.29 0.82,-0.55l8.54 -6.83c0.44,-0.39 1.07,-0.58 1.89,-0.55 0.8,0.07 1.75,0.33 2.83,0.81 0.95,0.34 1.76,0.6 2.37,0.86 0.63,0.24 1.09,0.46 1.4,0.71 0.53,0.97 1.07,1.96 1.64,2.93 1.4,0.39 2.91,0.76 4.5,1.15 0.87,1.16 1.76,2.36 2.63,3.6 0.11,0.1 0.26,0.1 0.42,0.08 0.18,-0.06 0.39,-0.2 0.58,-0.4 0.67,-0.79 1.2,-1.29 1.68,-1.57 0.47,-0.28 0.83,-0.3 1.08,-0.1 0.35,0.28 0.51,0.61 0.5,1.03 -0.01,0.42 -0.15,0.9 -0.43,1.45 -0.32,0.72 -0.57,1.3 -0.75,1.74 -0.16,0.42 -0.25,0.73 -0.29,0.93l2.45 0.5 2.94 4.46c0.34,0.27 0.7,0.68 1.11,1.25 0.41,0.56 0.86,1.24 1.32,2.08 0.12,0.88 0.27,1.54 0.41,2.05 0.15,0.51 0.27,0.81 0.39,0.9 0.5,0.02 1.01,0.08 1.51,0.17 0.28,0.69 0.55,1.38 0.8,2.09 0.25,0.72 0.52,1.4 0.77,2.08 0.25,1.02 0.19,2.06 -0.16,3.14 -0.39,1.1 -1.02,2.19 -1.9,3.27 -0.5,0.62 -0.96,0.98 -1.43,1.11 -0.44,0.11 -0.9,0.02 -1.32,-0.33 -0.18,-0.15 -0.38,-0.46 -0.6,-0.91 -0.24,-0.43 -0.43,-0.74 -0.62,-0.89 -0.12,-0.1 -0.34,-0.2 -0.64,-0.29 -0.3,-0.09 -0.53,-0.19 -0.7,-0.33 -0.52,-0.43 -1.26,-1.21 -2.19,-2.4 -0.93,-1.18 -1.7,-2 -2.27,-2.46 -0.49,-0.04 -1.01,-0.08 -1.53,-0.11 -0.24,-0.43 -0.53,-0.81 -0.85,-1.15 -0.32,-0.34 -0.67,-0.59 -1.07,-0.76l0.09 -1.64 -3.32 -1.2 -0.48 0.42c-0.23,0.29 -0.52,0.72 -0.86,1.31 -0.35,0.61 -0.73,1.35 -1.19,2.31 -0.37,0.6 -1,1.54 -1.85,2.76 -0.88,1.25 -2.08,2.85 -3.63,4.8 -0.5,0.96 -0.98,1.86 -1.46,2.72 -0.78,1.13 -1.68,2.58 -2.76,4.41 -1.08,1.78 -2.3,3.88 -3.69,6.27 -0.76,1.45 -1.49,2.74 -2.2,3.89 -0.69,1.15 -1.32,2.05 -1.89,2.76 -0.44,0.54 -0.73,1.09 -0.85,1.58 -0.14,0.51 -0.15,1.01 0,1.48 0.18,0.38 0.32,1.04 0.4,2.01 0.1,0.93 0.18,2.17 0.25,3.68 0.05,0.35 0.15,0.86 0.33,1.51 0.16,0.68 0.39,1.49 0.69,2.4 0.02,0.48 0.06,1.06 0.13,1.71 0.06,0.67 0.13,1.43 0.25,2.27 0.22,0.18 0.44,0.47 0.69,0.83 0.23,0.39 0.45,0.88 0.71,1.43 0.06,0.45 0.15,1.02 0.22,1.75 0.08,0.72 0.11,1.57 0.12,2.56 -0.01,0.61 -0.21,1.31 -0.62,2.11 -0.43,0.82 -1.09,1.77 -1.99,2.88 -0.63,0.78 -1.23,1.31 -1.79,1.56 -0.58,0.28 -1.08,0.22 -1.53,-0.14 -0.48,-0.4 -0.92,-0.98 -1.31,-1.77 -0.42,-0.77 -0.73,-1.76 -0.99,-2.95 -0.46,-1.46 -0.82,-2.65 -1.04,-3.62 -0.26,-0.95 -0.51,-1.58 -0.76,-1.86 -0.02,-0.25 -0.1,-0.63 -0.2,-1.18 -0.1,-0.55 -0.26,-1.19 -0.44,-1.96 -0.12,-0.8 -0.35,-1.61 -0.64,-2.46l-0.51 0.16 -1.63 2.31c-0.44,0.51 -0.84,0.82 -1.15,0.91 -0.34,0.12 -0.64,0.07 -0.88,-0.12 -0.13,-0.11 -0.23,-0.27 -0.31,-0.49 -0.09,-0.22 -0.16,-0.52 -0.25,-0.86zm15.21 -29.26c0.84,-1.04 2.01,-2.7 3.5,-4.94 1.47,-2.25 2.62,-3.89 3.48,-4.95 0.58,-0.59 1.16,-1.21 1.71,-1.82 0.85,-1.23 1.66,-2.45 2.43,-3.66 0.79,-1.2 1.57,-2.4 2.42,-3.63 0.34,-0.5 0.54,-0.89 0.63,-1.21 0.09,-0.32 0.05,-0.54 -0.12,-0.68 -0.63,-0.35 -1.05,-0.61 -1.26,-0.78 -0.35,-0.29 -0.71,-0.66 -1.04,-1.12 -0.34,-0.48 -0.65,-1.03 -0.94,-1.62l-1.92 -0.19 -0.91 -1.2c-0.56,-0.15 -1.06,-0.32 -1.52,-0.5 -0.46,-0.17 -0.78,-0.39 -0.94,-0.68 -0.16,0.03 -0.39,0.07 -0.75,0.18 -0.36,0.1 -0.75,0.21 -1.14,0.32 -0.7,0.22 -1.38,0.45 -2.05,0.69 -0.7,0.25 -1.36,0.49 -2.05,0.72 -0.87,0.35 -1.68,0.83 -2.46,1.44 -0.76,0.61 -1.45,1.29 -2.08,2.07 -0.75,0.92 -1.22,2.1 -1.4,3.55 -0.2,1.45 -0.02,3.08 0.5,4.91 0.06,0.24 0.04,0.88 0.01,1.88 -0.03,0.99 -0.16,2.37 -0.36,4.13 0.56,0.75 0.94,2.08 1.13,3.99 0.19,1.91 0.24,4.38 0.12,7.4 -0.06,0.35 -0.04,0.56 0.02,0.65 0.08,0.1 0.17,0.21 0.27,0.29 0.13,0.11 0.29,0.12 0.49,0.01 0.2,-0.11 0.42,-0.33 0.68,-0.66 0.39,-0.47 0.96,-1.22 1.77,-2.28 0.8,-1.07 1.4,-1.84 1.78,-2.31z"/>
  <path id="flower" class="fil1" d="M406.01 122.51c7.55,29.54 12.35,60.32 12.89,92.67 -1.64,0.15 -3.33,-0.75 -5,-1.07 -2.05,-15.51 -4.82,-35.05 -16.48,-46.68 -4.33,-12.32 -17.53,-17.8 -29.37,-18.87 -1,-0.23 -1.71,-1.32 -2.85,-1.17 -3.78,0.51 -5.82,-3.92 -8.46,-6.04 0.6,1.51 1.49,2.89 2.54,4.16 13.16,11.34 17.55,12.15 31.08,19.85 13.14,2.73 15.95,36.19 15.93,46.68 -8.21,-2.06 -27.89,-34.72 -28.02,-34.68 1.6,14.1 13.57,37.63 28.66,40.7 4.92,38.06 0.92,73.89 -4.85,114.58 -1.62,-21.84 -3.97,-38.18 -9.05,-48.97 -0.6,11.71 3.44,58.04 -4.19,77.89 4,4.11 10.43,13.05 14.5,16.39 18.33,-28.87 39.07,-92 44.38,-114.95 2.21,1.04 16.32,13.79 18.09,14.89 -1.04,-4.21 -17.79,-22.51 -18.99,-22.36 -2.94,0.62 -23.55,78.63 -36.21,91.46 0.47,-2.86 17.25,-72.61 18.7,-78.19 3.45,-6.33 8.1,-15.47 10.9,-18.69 5.82,-2.59 11.69,-5.24 17.57,-7.82 18.59,-8.61 44.86,-61.32 47.8,-72.26 -3.61,8.75 -31.78,57.47 -47.9,66.13 -3.74,1.84 -7.65,3.81 -11.48,4.99 1.52,-4.15 5.23,-7.81 3.64,-12.76 -2.64,-5.6 -8.55,-8.75 -14.2,-9.82 0.67,-4.18 3.7,-24.36 5.07,-32.16 4.14,0.13 7.82,-2.91 8.4,-7.1l6.61 -48.34c0.55,-4.05 -1.98,-7.84 -5.78,-8.99l0.04 -0.25c0.11,-0.76 -0.42,-1.47 -1.17,-1.59l0 0c-0.76,-0.11 -1.47,0.42 -1.59,1.18l-0.04 0.32c-3.88,0.19 -7.21,3.13 -7.76,7.1l-6.61 48.34c-0.52,3.79 1.67,7.35 5.06,8.73 -1.06,8.14 -3.79,25.28 -4.89,32.33 -3.74,-0.92 -7.8,-1.2 -11.52,-2.18 -0.32,-33.13 -5.96,-64 -12.93,-94.32 3.44,-1.86 5.18,-6.01 3.9,-9.84l-15.43 -46.28c-1.27,-3.82 -5.12,-6.1 -8.98,-5.54 -0.27,-0.69 -1.04,-1.05 -1.74,-0.82l0 0c-0.7,0.24 -1.1,0.98 -0.91,1.68 -3.49,1.84 -5.26,6.02 -3.97,9.88l15.43 46.28c1.29,3.89 5.26,6.17 9.18,5.51zm5.4 186.53c0.29,-7.14 0.87,-13.99 2.17,-20.92l2.69 -9.27c-0.79,7.92 -2.23,22.76 -4.86,30.19zm-7.74 39.06c8.39,-25.42 14.39,-53.08 16.41,-79.79 1.18,-3.22 3.91,-6.16 6.72,-8.47 -3.32,18.85 -13.77,70.34 -23.13,88.26zm18.17 -126.3l10.23 2.35c-0.82,9.4 -2.94,18.25 -4.07,27.49 -3.27,2.49 -5.59,5.95 -7.32,9.27 0.76,-12.88 1.02,-25.93 1.16,-39.11zm-7.34 -1.67l4.36 1.08c-0.1,16.24 0.12,31.31 -1.6,47.79 -1.06,2.78 -1.71,5.69 -2.52,8.55 1.89,-12.93 0.91,-42.59 -0.24,-57.42zm14.37 43.51l0.9 -6.33 5.78 -4.47c-2.26,3.24 -4.69,7.11 -6.68,10.8zm16.02 -32.81c1.19,1.73 2.67,3.56 1.96,5.93 -0.85,2.06 -1.98,3.94 -3.46,5.58 -4.02,1.98 -8.34,4.14 -12.24,6.77 1.21,-7.34 2.41,-16.12 3.63,-24.14 3.65,1.21 7.9,1.78 10.11,5.86z"/>
  <path id="water" class="fil2" d="M321.09 350.65c0.69,0.86 7.11,6.79 7.3,10.8 -8.39,2.07 -15.23,-3.69 -31,13.07 -7.43,7.89 -25.68,0.57 -32.23,9.42 -1.69,2.28 -1.22,3.61 0.62,6.55 1.92,3.08 1.36,3.79 -1.51,5.55 -6.63,4.05 -20.06,4.11 -26.64,4 -4.2,-0.06 -8.53,0.23 -12.75,0.31 -9.5,0.18 -18.7,1.59 -27.39,6.27 -4.56,2.45 -6.84,5.92 -10.83,8.5 -5.27,3.41 -8.79,1.98 -12.97,1.05 -7.32,-1.64 -17.3,-1.19 -24.98,-0.4 -3.27,0.34 -10.79,1.47 -13.06,1.6 2.26,-1.19 4.53,-2.21 6.76,-3.41 2.11,-1.14 4.21,-2.4 6.36,-3.43 8.72,-4.2 16.3,-4.53 25.75,-5.49 21.52,-2.19 17,-6.41 21.98,-10.5 3.41,-2.81 8.88,-2.32 12.33,-2.24 3.96,0.09 8.22,-0.84 12.26,-1.07 3.98,-0.23 8.14,-0.53 12.23,-1.39 4.05,-0.85 9.67,-2.79 11.85,-6.22 0.97,-1.52 1.19,-3.71 1.72,-5.58 1.7,-5.98 12.61,-6.85 17.23,-7.68 4.96,-0.9 15.07,-0.63 18.29,-5.1 3.46,-4.81 1.09,-7.01 15.27,-11.53 9.84,-3.14 20.31,-2.54 23.41,-3.08zm10.99 -14.46c0.45,-0.2 3.3,-1.5 3.75,-1.7 7.12,-3.06 8.19,-2.93 13.39,-8.96 2.72,-3.15 5.33,-7.61 7.58,-10.69 4.91,-8.09 9.57,0.03 28.88,-17.53 9.24,0.25 -7.23,15.14 -13.25,18.31 -15.58,8.19 -10.94,9.81 -13.5,14.27 -1.75,3.06 -6.02,4.39 -8.65,5.4 -8.15,3.13 -9.83,7.89 -10,7.98l-8.2 -7.08zm25.57 6.72c16.55,-3.87 8.33,-8.31 13.58,-12.83 4.03,-3.49 11.51,-7.56 13.75,-6.7 0.55,18.41 -3.41,25.83 -7.3,31.13 -5.16,-4.19 -9.67,-10.13 -20.03,-11.6zm-27.71 33.31c0.42,1.74 4.78,10.42 13.74,14.97 -18.11,15.86 -74.63,44.6 -147,29.73 3.43,-4.54 13.79,-2.63 23.29,-6.19 20.59,-9.74 52.04,9.53 63.59,-20.24 6.92,-8.85 26.18,-1.53 34.03,-9.42 1.79,-1.81 11.55,-8.19 12.35,-8.85z"/>
  <path id="kayak" class="fil3" d="M45.21 370.95c-8.46,10.77 54.66,28.02 68.43,34.33 5.97,0.48 11.99,-3.1 17.73,-5.71 9.21,-4.2 17.21,-4.53 27.19,-5.49 1.59,-0.15 3.04,-0.32 4.38,-0.49 3.95,-0.94 7.95,-1.91 11.97,-2.91 4.17,-2.1 3.67,-4.62 6.86,-7.1 3.59,-2.81 9.37,-2.32 13.02,-2.24 12.26,0.27 26.16,-1.93 36.38,-6.64 0.8,-0.61 1.48,-1.29 1.98,-2.04 1.02,-1.52 1.26,-3.7 1.82,-5.58 1.79,-5.98 13.31,-6.85 18.19,-7.68 5.24,-0.9 15.91,-0.63 19.31,-5.1 3.65,-4.81 1.15,-7 16.12,-11.53 7.86,-2.38 24.62,-3.06 27.47,-3.5 5.82,4.93 10.48,8.88 11.47,9.75 11.98,10.56 5.63,18.66 16.25,30.23 11.97,11.23 27.5,26.12 45.13,17.33 4.92,-2.45 11.18,-5.94 2.37,-16.77 -6.83,-8.41 -21.57,-21.52 -25.6,-24.51 -14.6,-10.83 -19.9,-3.99 -32.6,-11.48 -1.37,-1 -12.35,-9.81 -11.63,-10.23 1.92,-0.8 3.76,-1.67 5.66,-2.49 7.11,-3.06 13.63,-6.9 18.82,-12.92 2.72,-3.16 3.42,-6.34 5.68,-9.42 2.97,-4.06 6.05,-4.12 9.47,-4.74 17.49,-3.17 34.72,-29.2 43.09,-43.64 -0.2,-10.52 -0.77,-21.41 -1.47,-33.83 -21.49,-7.79 -21.14,-13.84 -30.25,-33.21 -2.06,-9.73 -8.63,-12.45 -17.5,-15.82 -2.01,-0.76 -10.8,-2.38 -11.81,-3.72 -0.79,-1.05 -2.67,-2.76 -2.43,-4.05 0.6,-3.12 2.09,-6.11 2.93,-9.17 0.8,-2.91 -0.52,-14.86 -1.8,-17.47 -5.77,-11.82 -26.14,-11.25 -28.73,3.7 -0.29,1.64 -0.27,3.32 -0.44,4.98 -0.28,2.69 -0.41,7.23 1.43,10.94 1.31,2.64 5.59,10.25 4.9,11.94 -1.59,3.88 -21.14,5.29 -22.56,4.51 -0.97,-0.78 -10.06,-8.1 -12.11,-9.75 0.43,-0.8 1.46,-2.56 1.54,-2.9 0.38,-2.45 -0.17,-5.22 -0.29,-5.31 -0.11,-0.09 -1.39,-0.82 -2.08,-1.23 -3.85,-3.48 -8.31,-5.38 -8.75,-5.38 -0.42,0 -3.96,0.93 -6.57,2.47 -1.54,-1.22 -16.16,-12.72 -18.42,-14.51 -2.38,-3.7 -6.66,-15.02 -11.92,-20.39 -4.2,-4.3 -29.66,-29.66 -35.07,-22.81 -8.64,9.47 -5.28,15.92 3.76,25.12 6.6,6.72 11.63,9.95 17.37,13.8 6.69,4.48 20.02,6.03 23.21,8.52 2.46,1.92 16.25,12.54 18.67,14.43 -0.36,2.31 0.15,7.15 0.15,7.18 -2.41,6.11 -4.27,7.85 -3.95,15.28 3.25,7.81 5.85,9.53 14.16,14.17 6.39,2.78 16.83,5.86 21.48,10.06 0.86,9.78 1.71,19.57 2.56,29.35 -8.22,3.95 -16.44,7.89 -24.67,11.82 -2.41,-3.37 -4.81,-6.73 -7.22,-10.09 -6.06,-7.08 -14.27,-11.55 -22.39,-16.02 -1.99,-1.48 -2.31,-1.47 -3.58,-3.61 1.44,-2.85 1.82,-3.17 2.17,-6.35 1.65,-3.14 3.06,-5.44 4.05,-8.86 0.68,-2.82 0.69,-8.75 -0.41,-13.36 -4.16,-13.15 -16.49,-19.43 -27.77,-9.58 -6.11,5.32 -6.28,13.05 -5.82,20.46 0.99,1.78 1.16,2.04 1.55,4.04 0.05,1.91 0.13,3.79 0.22,5.7 0.88,2.91 1.61,5.82 3.38,8.31 -0.21,1.05 -0.43,2.09 -0.65,3.14 -1.59,0.27 -3.22,0.34 -4.84,0.37 -2.77,-1.28 -4.35,-1.07 -7.37,-1.29 -4.13,1.12 -4.65,1.69 -8.93,1.95 -2.53,-2.3 -5.77,-5.26 -8.31,-7.56 0.49,-0.29 0.88,-0.74 1.37,-1.03 0.5,-1.07 -0.63,-4.85 -0.8,-5.11 -0.16,-0.24 -1.01,-0.95 -1.53,-1.34 0,-0.28 -0.23,-1.21 -0.5,-1.74 -0.68,-1.46 -6.71,-6.28 -7.15,-6.41 -0.82,-0.24 -4.6,-0.09 -5.02,0.1 -0.45,0.16 -2.01,0.28 -2.52,0.84 -3,-2.74 -23.08,-21.32 -27.12,-25 -2.29,-3.51 -6.68,-14.37 -11.97,-19.93 -4.15,-4.35 -29.27,-30.04 -34.77,-23.26 -8.77,9.35 -5.49,15.85 3.43,25.16 6.51,6.82 11.5,10.1 17.19,14.03 6.63,4.57 19.61,6.61 22.76,9.14 4.77,4.08 23.22,20.46 26.75,23.69 -0.16,0.59 -1.31,1.09 -1.46,1.67 -2.3,7.35 -11.95,15.89 -8.58,23.4 4.43,7.86 9.92,10.48 18.07,13.31 4.05,1.28 8.11,2.55 12.16,3.83 8.38,2.63 6.9,22.12 5.24,25.64 -35.27,29.09 -143.3,83.7 -149.93,97.61zm248.07 -53.32c-46.97,21.3 -168.12,60.23 -211.62,50.01 37.74,3.75 156.33,-30.19 207.75,-53.51 0.56,0.53 3.19,2.91 3.87,3.5zm2.3 -6.29c32.92,-14.7 68.98,-34.55 87.85,-51.73 0.49,0.47 1.73,1.9 2.23,2.35 -20.18,19.69 -57.5,39.85 -86.09,52.77 -0.74,-0.62 -3.49,-2.97 -3.99,-3.39zm-100.88 -30.62c2.41,-0.64 -4.97,11.62 -5.08,11.83 -0.49,0.95 -1.42,1.88 -1.28,2.94 0.14,0.97 1.04,1.93 1.98,2.16 3.88,0.93 7.93,1.15 11.92,1.19 10.36,0.11 20.75,-0.03 31.09,-0.75 7.53,-0.52 16.35,-7.4 22.45,-2.95 9.59,7 -56.4,15.17 -77.37,7.18 -13.5,-5.15 13.97,-20.98 16.29,-21.6zm82.78 -27.14c7.13,-3.91 21.91,-10.45 23.56,-11.05 1.58,-0.44 1.4,3.21 2.82,4.03 16.46,9.55 27.55,2.31 42.17,4.1 2.24,0.27 -41.59,25.94 -58.99,29.01 -1.56,-8.69 -6.19,-20.82 -9.56,-26.09zm12.65 -73.47c-4.26,0.78 -7.94,1.28 -12.26,1.44 -1.13,-2.98 -1.18,-3.82 -0.79,-6.89 1.64,-0.41 2.66,-1.03 4.3,-1.43 1.17,1.01 7.42,5.86 8.75,6.88zm-98.71 45.16c-4.68,0.43 -9.75,1.63 -14.49,0.53 -1.11,-4.34 3.2,-7.62 7.46,-6.55 2.43,1.98 4.99,4.1 7.03,6.02z"/>
  <path id="poliska" class="fil4" d="M176.51 67.86c-0.71,1.3 -1.6,2.85 -2.72,4.65 -1.11,1.82 -2.45,3.88 -4.04,6.22 -1.43,2.04 -2.71,3.83 -3.84,5.37 -1.14,1.55 -2.11,2.78 -2.94,3.72 -1.17,1.43 -2.52,2.78 -4.05,4.05 -1.52,1.28 -3.16,2.46 -4.9,3.55 -0.54,0.33 -1.19,0.66 -1.93,0.95 -0.75,0.3 -1.54,0.6 -2.4,0.91 -1.07,0.4 -1.96,0.75 -2.69,1.02 -0.76,0.28 -1.35,0.53 -1.79,0.77l-0.97 -0.06 -1.68 0.82c-0.69,0.42 -1.67,0.67 -2.94,0.79 -1.26,0.13 -2.72,0.1 -4.37,-0.06 -1.59,-0.11 -2.94,-0.33 -4.07,-0.64 -1.13,-0.28 -2.02,-0.64 -2.67,-1.06l-3.62 -2.53c-1.25,-0.85 -2.21,-1.56 -2.93,-2.13 -0.71,-0.56 -1.09,-0.97 -1.19,-1.21l-0.53 -2.16c-0.68,-0.44 -1.22,-0.8 -1.65,-1.11 -0.41,-0.29 -0.67,-0.55 -0.81,-0.77 -0.14,-0.21 -0.45,-0.92 -0.95,-2.14 -0.52,-1.2 -1.21,-2.88 -2.09,-5.03 0,-0.54 0,-1.16 -0.04,-1.88 -0.06,-0.71 -0.15,-1.49 -0.31,-2.32l-0.72 -0.77c-0.13,-0.22 -0.23,-0.5 -0.27,-0.86 -0.05,-0.37 -0.08,-0.79 -0.07,-1.27 0.01,-1.83 0.01,-3.68 0.02,-5.53 0,-1.87 0,-3.68 0.06,-5.44 0.11,-1.43 0.44,-3.01 0.94,-4.73 0.52,-1.73 1.18,-3.61 1.97,-5.64 0.15,-0.46 0.35,-1.06 0.54,-1.78 0.22,-0.73 0.48,-1.54 0.81,-2.46 0.45,-0.65 0.95,-1.54 1.5,-2.64 0.53,-1.09 1.17,-2.47 1.86,-4.08 0.29,-0.33 0.64,-0.76 1.02,-1.26 0.41,-0.51 0.87,-1.12 1.44,-1.83 0.13,-0.2 0.27,-0.48 0.41,-0.83 0.16,-0.35 0.35,-0.76 0.59,-1.21 0.22,-0.5 1.42,-1.8 3.59,-3.9 2.17,-2.1 3.64,-3.39 4.4,-3.87 1.67,-1.04 3.13,-1.84 4.39,-2.38 1.28,-0.56 2.38,-0.86 3.3,-0.92l1.88 -0.83c1.61,-0.69 3.18,-0.53 4.73,0.43 1.56,0.96 3.16,2.74 4.8,5.37 0.77,1.23 1.36,2.22 1.79,2.98 0.42,0.76 0.67,1.29 0.77,1.61 0.3,0.94 0.67,2.1 1.17,3.48 0.48,1.39 1.01,3.02 1.58,4.89 0.24,0.46 0.43,1.31 0.58,2.57 0.16,1.25 0.33,2.84 0.5,4.73 0.22,2.05 0.33,3.66 0.29,4.8 -0.04,1.17 -0.2,1.9 -0.52,2.22 -1.29,1.16 -2.66,2.44 -4.11,3.78 -0.8,0.5 -1.4,0.82 -1.78,0.92 -0.39,0.12 -0.65,0.07 -0.79,-0.15 -0.12,-0.19 -0.22,-0.53 -0.34,-1 -0.15,-0.48 -0.24,-0.8 -0.35,-0.97 -0.74,-0.94 -1.49,-1.9 -2.26,-2.88 -0.23,-0.37 -0.55,-1.21 -0.93,-2.49 -0.41,-1.27 -0.84,-2.94 -1.33,-5.01 -0.56,-2.26 -0.95,-4.07 -1.14,-5.46 -0.21,-1.37 -0.24,-2.28 -0.13,-2.73 0.6,-1.39 0.93,-2.55 1.02,-3.52 0.07,-0.95 -0.05,-1.69 -0.39,-2.23 -0.47,-0.75 -1.12,-1.26 -1.95,-1.52 -0.85,-0.25 -1.84,-0.22 -3,0.11 -1.05,0.43 -2.09,0.87 -3.15,1.32 -1.06,0.45 -2.12,0.87 -3.2,1.24 -0.63,0.69 -1.19,1.27 -1.74,1.75 -0.53,0.48 -0.99,0.9 -1.37,1.25 -2.25,1.81 -4.04,4.09 -5.43,6.87 -1.38,2.74 -2.32,5.95 -2.85,9.64 -0.37,3.12 -0.4,6.05 -0.11,8.78 0.3,2.72 0.93,5.26 1.88,7.6 0.25,0.74 0.58,1.64 0.95,2.72 0.38,1.1 0.75,2.4 1.17,3.93 0.84,0.6 1.57,1.15 2.25,1.66l1.74 3.99c0.08,0.13 0.4,0.31 1,0.52 0.59,0.21 1.47,0.5 2.66,0.87 0.67,0.21 1.38,0.51 2.09,0.92 0.7,0.42 1.4,0.96 2.07,1.61 0.19,0.14 0.45,0.27 0.78,0.34 0.32,0.11 0.68,0.13 0.99,0.11 0.76,0.02 1.49,-0.02 2.16,-0.06 2.33,0.26 4.56,0.15 6.71,-0.33 2.16,-0.47 4.23,-1.32 6.21,-2.57 0.19,-0.11 0.83,-0.61 1.93,-1.46 1.1,-0.88 2.58,-2.11 4.47,-3.7 0.24,-0.41 0.6,-0.9 1.1,-1.46 0.47,-0.56 1.05,-1.21 1.76,-1.94 0.38,-1 0.89,-1.83 1.47,-2.51 0.58,-0.69 1.18,-1.22 1.79,-1.6 0.07,-0.31 0.15,-0.67 0.26,-1.11 0.1,-0.43 0.28,-0.96 0.51,-1.54 0.89,-1.01 1.62,-2.04 2.19,-3.14 0.59,-1.09 1.08,-2.24 1.48,-3.46 2.9,1.43 4.39,2.21 4.48,2.34zm-165.71 233.87c0.17,-0.36 0.35,-0.71 0.53,-1.05 0.19,-0.32 0.39,-0.65 0.6,-0.97 0.29,-0.49 0.61,-0.98 0.98,-1.49 0.34,-0.52 0.69,-0.96 1.06,-1.33 0.3,-0.3 0.61,-0.64 0.92,-1.01 0.32,-0.36 0.64,-0.65 0.96,-0.87 0.35,-0.23 0.68,-0.43 1.03,-0.6 0.35,-0.13 0.67,-0.24 0.95,-0.27 0.38,-0.06 0.77,-0.1 1.19,-0.12 0.43,-0.02 0.82,-0.04 1.22,-0.05 0.76,-0.09 1.7,-0.03 2.79,0.13 1.12,0.18 2.04,0.23 2.77,0.17 0.41,-0.02 0.93,-0.09 1.54,-0.19 0.61,-0.09 1.12,-0.16 1.54,-0.18 0.58,-0.02 1.19,0.02 1.8,0.1 0.61,0.11 1.21,0.18 1.8,0.2 0.28,0.02 0.53,-0.03 0.79,-0.12 0.24,-0.09 0.51,-0.11 0.78,-0.1 0.75,0.01 1.54,0.09 2.36,0.23 0.82,0.12 1.6,0.23 2.37,0.29 0.38,0.04 0.71,0.02 1.03,-0.04 0.3,-0.06 0.62,-0.1 0.96,-0.1 0.69,0.04 1.82,0.14 3.37,0.32 1.57,0.19 2.65,0.26 3.23,0.24 0.5,0 1.03,0.06 1.62,0.2 0.58,0.12 1.18,0.21 1.73,0.22 0.29,0.01 0.36,-0.05 0.18,-0.21 -0.16,-0.16 -0.11,-0.22 0.19,-0.21 0.67,0.05 1.33,0.17 2.01,0.39 0.68,0.21 1.38,0.33 2.08,0.37 0.59,0.03 1.23,-0.01 1.93,-0.06 0.71,-0.05 1.37,-0.07 1.99,-0.06 0.52,0 1.33,0.1 2.44,0.3 1.1,0.23 1.9,0.35 2.4,0.4 0.47,0.03 0.95,0.06 1.43,0.07 0.51,0 0.96,-0.01 1.37,-0.03 0.75,-0.02 1.48,-0.01 2.22,0.04 0.72,0.03 1.38,0.04 1.94,-0.02 0.26,-0.03 0.52,-0.12 0.77,-0.27 0.25,-0.16 0.48,-0.2 0.7,-0.12 0.32,0.07 0.67,0.2 1.08,0.36 0.4,0.17 0.73,0.4 0.99,0.74 0.32,0.38 0.79,0.85 1.41,1.34 0.6,0.49 0.98,0.91 1.13,1.21 0.5,1.02 0.45,1.65 -0.12,1.89 -0.57,0.24 -1.07,0.42 -1.54,0.55 -0.45,0.12 -0.89,0.28 -1.31,0.44 -0.44,0.19 -0.92,0.34 -1.48,0.44 -0.57,0.11 -1.06,0.4 -1.49,0.86 -0.42,0.47 -0.96,0.75 -1.63,0.84 -0.66,0.09 -1.39,0.06 -2.17,-0.12 -0.77,-0.15 -1.54,-0.22 -2.31,-0.13 -0.64,0.04 -1.43,0.09 -2.35,0.2 -0.91,0.09 -1.72,0.12 -2.4,0.15 -0.98,0.03 -2.04,-0.09 -3.23,-0.34 -1.17,-0.25 -2.3,-0.36 -3.36,-0.3 -1.25,0.06 -2.26,0.29 -3.03,0.65 -0.77,0.37 -1.79,0.57 -3.03,0.66 -0.91,0.06 -2.2,0.02 -3.92,-0.08 -1.72,-0.13 -2.98,-0.16 -3.82,-0.11 -0.78,0.02 -1.57,0.12 -2.38,0.29 -0.79,0.17 -1.58,0.27 -2.37,0.25 -0.9,-0.03 -1.9,-0.14 -3,-0.33 -1.12,-0.17 -2.05,-0.24 -2.82,-0.17 -0.9,0.06 -1.91,0.17 -3.04,0.36 -1.13,0.17 -2.06,0.31 -2.82,0.42 -2.26,0.33 -4.09,0.71 -5.48,1.11 -1.4,0.39 -2.08,0.98 -2.04,1.76 0.04,0.31 0.09,0.64 0.21,1.01 0.11,0.36 0.17,0.73 0.17,1.09 0,0.38 -0.04,0.78 -0.16,1.15 -0.11,0.4 -0.14,0.79 -0.1,1.16 0.05,0.58 0.15,1.19 0.27,1.85 0.14,0.69 0.23,1.33 0.3,1.92 0.07,0.62 0.09,1.22 0.13,1.87 0.02,0.63 0.07,1.25 0.18,1.83 0.13,0.76 0.3,1.39 0.49,1.86 0.19,0.49 0.38,1.1 0.58,1.84 0.1,0.38 0.26,0.7 0.46,0.96 0.21,0.29 0.36,0.61 0.46,0.99 0.14,0.48 0.21,1.01 0.25,1.52 0.02,0.54 0.09,1.04 0.22,1.53 0.08,0.29 0.16,0.65 0.22,1.07 0.07,0.43 0.14,0.78 0.22,1.07 0.14,0.51 0.24,0.89 0.32,1.19 0.07,0.27 0.17,0.65 0.3,1.12 0.07,0.27 0.16,0.59 0.25,0.95 0.1,0.36 0.17,0.63 0.22,0.82 0.58,-0.02 1.19,-0.02 1.82,-0.01 0.66,0.01 1.27,0 1.88,-0.03 1.14,-0.05 2.12,-0.09 2.96,-0.13 0.84,-0.05 1.82,-0.13 2.98,-0.21 0.77,-0.07 1.15,-0.22 1.17,-0.45 0.03,-0.21 0.42,-0.39 1.17,-0.5 1.03,-0.16 2.47,-0.21 4.28,-0.19 1.83,0.03 3.21,-0.05 4.19,-0.22 1.12,-0.16 2.09,-0.4 2.93,-0.65 0.83,-0.27 1.78,-0.52 2.85,-0.76 1.2,-0.26 2.37,-0.46 3.48,-0.62 1.13,-0.16 2.2,-0.38 3.23,-0.66 0.7,-0.19 1.46,-0.3 2.29,-0.34 0.81,-0.06 1.52,-0.16 2.13,-0.32 0.73,-0.2 1.41,-0.49 2.02,-0.9 0.61,-0.4 1.18,-0.71 1.71,-0.9 0.65,-0.26 0.9,-0.64 0.75,-1.15 -0.16,-0.52 -0.44,-0.99 -0.83,-1.4 -0.5,-0.48 -0.94,-0.95 -1.36,-1.41 -0.42,-0.43 -0.59,-0.77 -0.53,-1.01 0.24,-0.72 1.89,-0.51 4.97,0.64 3.08,1.12 5.18,2.12 6.3,2.98 0.24,0.2 0.56,0.37 0.96,0.53 0.41,0.16 0.73,0.37 0.95,0.61 0.29,0.33 0.61,0.72 0.98,1.16 0.37,0.47 0.59,0.96 0.66,1.46 0.14,1.02 0.11,1.85 -0.13,2.48 -0.21,0.64 -0.85,1.31 -1.89,2.04 -0.96,0.6 -2.38,1.23 -4.26,1.87 -1.88,0.64 -4.28,1.31 -7.2,2 -0.91,0.24 -1.91,0.44 -2.97,0.59 -1.08,0.15 -2.16,0.35 -3.26,0.6 -0.48,0.11 -0.96,0.17 -1.49,0.24 -0.52,0.07 -1.04,0.19 -1.55,0.33 -1.39,0.32 -2.69,0.63 -3.92,0.91 -1.23,0.29 -2.6,0.54 -4.11,0.76 -0.69,0.1 -1.31,0.15 -1.87,0.14 -0.55,-0.01 -1.18,0.02 -1.88,0.08 -1.04,0.05 -2.17,0.12 -3.4,0.21 -1.23,0.1 -2.33,0.19 -3.28,0.31 -1.28,0.09 -2.39,0.14 -3.33,0.16 -0.93,0.03 -1.98,0.08 -3.14,0.12 -0.65,0.04 -1.29,0.07 -1.94,0.09 -0.64,0.01 -1.28,0.02 -1.87,0 0.1,0.36 0.22,0.76 0.34,1.13 0.12,0.4 0.22,0.76 0.3,1.08 0.17,0.63 0.38,1.21 0.64,1.8 0.25,0.57 0.44,1.1 0.57,1.59 0.29,0.94 0.58,2.13 0.86,3.55 -0.01,0.23 -0.1,0.46 -0.28,0.71 -0.18,0.26 -0.5,0.41 -0.93,0.48 -0.22,0.06 -0.51,0.02 -0.91,-0.12 -0.39,-0.12 -0.8,-0.24 -1.2,-0.29 -0.24,-0.03 -0.48,-0.03 -0.74,-0.01 -0.26,0.03 -0.5,0.02 -0.74,0 -1.27,-0.27 -2.49,-0.76 -3.61,-1.44 -1.12,-0.65 -1.86,-1.45 -2.2,-2.37 -0.06,-0.21 -0.15,-0.55 -0.3,-1.03 -0.14,-0.46 -0.32,-1.07 -0.51,-1.81 -0.2,-0.74 -0.43,-1.59 -0.68,-2.52 -0.25,-0.93 -0.51,-1.92 -0.8,-3 -1.13,-0.54 -2.04,-1.18 -2.76,-1.89 -0.71,-0.71 -1.21,-1.44 -1.47,-2.23 -0.18,-0.52 -0.08,-0.98 0.31,-1.38 0.39,-0.37 1.17,-0.65 2.33,-0.78 -0.1,-0.4 -0.2,-0.76 -0.25,-1.02 -0.06,-0.28 -0.15,-0.66 -0.28,-1.17 -0.17,-0.61 -0.34,-1.31 -0.5,-2.11 -0.16,-0.79 -0.33,-1.54 -0.52,-2.26 -0.19,-0.7 -0.32,-1.32 -0.4,-1.84 -0.09,-0.52 -0.2,-1.15 -0.36,-1.85 -0.21,-0.92 -0.35,-1.68 -0.42,-2.25 -0.09,-0.59 -0.19,-1.33 -0.32,-2.22 -0.13,-0.72 -0.27,-1.43 -0.39,-2.14 -0.13,-0.71 -0.23,-1.41 -0.3,-2.05 -0.04,-0.4 -0.13,-0.78 -0.27,-1.2 -0.14,-0.39 -0.23,-0.77 -0.25,-1.11 -0.03,-0.49 -0.02,-0.94 0.02,-1.36 0.05,-0.44 0.06,-0.79 0.02,-1.05 -0.04,-0.26 -0.02,-0.56 0.06,-0.94 0.09,-0.37 0.16,-0.77 0.25,-1.2 0.08,-0.41 0.21,-0.9 0.36,-1.46 0.17,-0.54 0.38,-1.1 0.61,-1.66 0.16,-0.29 0.29,-0.66 0.44,-1.11 0.15,-0.43 0.3,-0.85 0.5,-1.25 0.17,-0.4 0.39,-0.85 0.62,-1.29 0.24,-0.48 0.46,-0.9 0.68,-1.32zm19.88 -33.25c-0.4,-0.03 -0.88,-0.23 -1.42,-0.6 -0.53,-0.38 -1.13,-0.91 -1.8,-1.61 -0.87,-0.98 -1.54,-1.72 -2.04,-2.2 -0.5,-0.5 -0.81,-0.77 -0.97,-0.83 -0.33,-0.25 -0.76,-0.57 -1.29,-0.97 -0.53,-0.42 -1.14,-0.89 -1.82,-1.41 -0.32,-0.47 -1.02,-1.01 -2.11,-1.68 -1.11,-0.65 -2.56,-1.43 -4.38,-2.32 -0.47,-0.37 -1.05,-0.79 -1.72,-1.25 -0.68,-0.43 -1.47,-0.98 -2.41,-1.61 -0.7,-0.24 -1.51,-0.62 -2.45,-1.18 -0.93,-0.54 -1.97,-1.25 -3.09,-2.07 -1.05,-1 -2.1,-2.03 -3.1,-3.11 -1.01,-1.08 -1.71,-2.54 -2.08,-4.42 0.4,-0.69 0.8,-1.23 1.17,-1.57 0.39,-0.36 0.73,-0.53 1.05,-0.5 0.77,0.07 1.78,0.64 3,1.71 1.23,1.08 2.07,1.64 2.54,1.68 0.26,0.02 0.5,-0.16 0.76,-0.51 -0.1,-0.36 -0.42,-1 -0.97,-1.95 -0.55,-0.95 -1.29,-2.2 -2.25,-3.73 -0.7,-1.27 -1.28,-2.4 -1.71,-3.4 -0.43,-1.01 -0.67,-1.95 -0.72,-2.81 -0.12,-0.56 -0.2,-1.27 -0.25,-2.15 -0.04,-0.86 -0.17,-1.84 -0.36,-2.91 -0.16,-0.59 -0.35,-1.04 -0.55,-1.41 -0.15,-0.32 -0.3,-0.8 -0.44,-1.45l0.23 -0.94c0.33,-0.37 0.71,-1.41 1.15,-3.13 0.46,-1.72 0.7,-2.82 0.74,-3.28 0.2,-0.37 0.48,-0.79 0.87,-1.28 0.39,-0.47 0.83,-1.09 1.3,-1.86 0.91,-1.66 2.16,-3.13 3.75,-4.49 1.59,-1.33 3.51,-2.5 5.78,-3.51 2.08,-0.94 4.03,-1.6 5.88,-2.01 1.84,-0.43 3.6,-0.57 5.26,-0.42 5.24,0.46 9.71,1.75 13.43,3.88 3.7,2.12 6.64,5.1 8.81,8.94 0.21,0.37 0.48,0.81 0.81,1.32 0.31,0.53 0.69,1.18 1.13,1.94l0.51 0.05c0.31,0.11 0.63,0.38 0.95,0.81 0.33,0.44 0.7,1.05 1.11,1.81 0.92,1.66 1.86,3.37 2.81,5.08 0.94,1.7 1.85,3.45 2.75,5.24 1.16,2.26 2.05,4.38 2.67,6.37 0.62,1.96 1,3.86 1.15,5.68 0.45,0.83 0.74,1.79 0.91,2.95 0.17,1.16 0.18,2.54 0.04,4.16 -0.21,2.37 -0.49,4.3 -0.86,5.76 -0.37,1.49 -0.8,2.53 -1.29,3.12 -0.32,0.35 -0.64,0.78 -0.97,1.26 -0.32,0.49 -0.74,1.05 -1.24,1.69 -0.46,0.7 -1.28,1.31 -2.41,1.85 -1.15,0.54 -2.6,1 -4.36,1.36 -1.34,0.23 -2.6,0.38 -3.82,0.47 -1.24,0.09 -2.36,0.08 -3.4,-0.01 -0.31,-0.02 -0.83,-0.18 -1.53,-0.46 -0.69,-0.26 -1.25,-0.4 -1.62,-0.38 -0.73,-0.07 -1.36,-0.08 -1.89,-0.06 -0.57,-0.05 -1.45,-0.35 -2.63,-0.93 -1.18,-0.57 -2.14,-0.89 -2.86,-0.96 -0.17,-0.01 -0.4,0.1 -0.75,0.33 0.51,0.73 0.98,1.25 1.44,1.6 0.28,0.29 0.49,0.59 0.63,0.96 0.11,0.36 0.16,0.67 0.14,0.98 -0.04,0.45 -0.21,0.83 -0.52,1.07 -0.31,0.26 -0.74,0.35 -1.31,0.3 -0.38,-0.03 -0.93,-0.19 -1.67,-0.49 -0.72,-0.31 -1.3,-0.47 -1.71,-0.51zm-19.69 -40.33c-0.09,1.02 -0.08,2.08 0.02,3.16 0.1,1.09 0.26,2.18 0.52,3.32l1.48 6.37c0.11,0.45 0.32,0.95 0.63,1.5 0.29,0.58 0.71,1.21 1.25,1.89l2.42 3.18c0.74,1.01 2.17,1.97 4.27,2.88 2.11,0.91 4.87,1.78 8.31,2.66 2.63,0.64 5.1,1.17 7.4,1.54 2.28,0.38 4.4,0.65 6.36,0.82 3.99,0.35 7.04,-0.24 9.15,-1.72 2.1,-1.49 3.3,-3.91 3.6,-7.26 0.14,-1.6 -0.02,-3.39 -0.45,-5.4 -0.45,-2 -1.19,-4.21 -2.26,-6.64 -0.89,-2.03 -1.82,-3.85 -2.76,-5.44 -0.97,-1.58 -1.97,-2.92 -3.01,-4 -0.4,-0.45 -1.27,-1.21 -2.61,-2.25 -1.33,-1.04 -3.15,-2.47 -5.45,-4.3 -1.69,-1.22 -3.44,-2.21 -5.22,-2.98 -1.8,-0.75 -3.65,-1.22 -5.61,-1.39 -0.96,0.18 -1.92,0.38 -2.84,0.61l-1.99 -0.64c-0.42,0.4 -0.79,0.72 -1.14,1 -0.25,0.11 -0.47,0.2 -0.64,0.25 -3.51,1.03 -6.22,2.6 -8.12,4.71 -1.91,2.1 -3.02,4.81 -3.31,8.13zm40.15 -110.63c0.62,-0.17 1.33,-0.34 2.15,-0.5 0.8,-0.17 1.52,-0.28 2.12,-0.28 1.15,-0.03 2.17,0.16 3.05,0.53 0.87,0.36 1.41,0.6 1.64,0.72 0.4,0.32 0.83,0.62 1.29,0.91 0.45,0.29 0.88,0.59 1.28,0.91 0.84,0.57 1.63,1.19 2.41,1.82 0.77,0.61 1.54,1.22 2.32,1.78 0.81,0.56 1.64,1.09 2.48,1.57 0.86,0.48 1.66,0.98 2.41,1.53 1,0.73 2.05,1.43 3.14,2.14 1.1,0.71 2.12,1.4 3.06,2.1 0.81,0.62 1.65,1.17 2.52,1.63 0.85,0.46 1.68,0.97 2.44,1.53 1.65,1.19 3.06,2.32 4.23,3.33 0.97,0.82 2.03,1.67 3.17,2.54 -1.69,3.61 -1.39,6.92 0.37,10.37l-0.09 -0.04c-0.47,-0.25 -0.99,-0.48 -1.55,-0.68 -0.55,-0.19 -1.08,-0.43 -1.58,-0.69 -1.58,-0.84 -3.17,-1.91 -4.76,-3.15 -1.58,-1.26 -3.22,-2.41 -4.91,-3.46 -1.3,-0.79 -2.57,-1.59 -3.85,-2.42 -1.28,-0.82 -2.57,-1.63 -3.83,-2.45 -1.11,-0.74 -2.26,-1.53 -3.47,-2.36 -1.2,-0.84 -2.33,-1.57 -3.37,-2.22 -1.76,-1.13 -3.51,-2.26 -5.24,-3.38 -1.74,-1.13 -3.24,-2.05 -4.49,-2.81 -0.95,-0.61 -1.8,-1.03 -2.54,-1.27 -0.72,-0.26 -1.26,-0.2 -1.63,0.14 -0.64,0.58 -1.18,1.06 -1.64,1.44 -0.48,0.39 -0.95,0.83 -1.44,1.34 -0.87,0.85 -1.45,1.45 -1.73,1.8 -0.29,0.37 -0.72,0.91 -1.31,1.61 -0.35,0.38 -0.85,0.84 -1.48,1.37 -0.65,0.54 -1.12,1.01 -1.45,1.41 -0.13,0.18 -0.2,0.39 -0.23,0.65 -0.04,0.25 -0.1,0.46 -0.2,0.66 0.15,-0.02 0.22,0.06 0.15,0.25 -0.05,0.2 0.04,0.27 0.24,0.25 0.26,-0.05 0.66,-0.24 1.14,-0.56 0.5,-0.33 0.91,-0.51 1.22,-0.58 0.51,-0.13 0.95,-0.07 1.34,0.16 0.39,0.23 0.85,0.3 1.37,0.18 0.95,0.51 1.87,1.05 2.78,1.63 0.9,0.58 1.78,1.17 2.65,1.76 2.77,1.92 5.29,4.1 7.56,6.57 2.25,2.46 4.26,5.01 6.01,7.7 1.39,2.03 2.64,4.11 3.78,6.23 1.17,2.11 2.12,4.2 2.89,6.32 0.93,2.48 1.69,4.91 2.28,7.31 0.58,2.38 0.99,4.59 1.25,6.61 0.09,0.77 0.16,1.52 0.22,2.25 0.06,0.75 0.05,1.48 -0.03,2.21 -0.04,0.5 -0.18,1.1 -0.4,1.75 -0.2,0.66 -0.32,1.19 -0.33,1.56 -0.09,0.96 -0.16,1.74 -0.24,2.34 -0.06,0.59 -0.23,1.15 -0.49,1.63 -0.12,0.23 -0.3,0.41 -0.58,0.56 -0.28,0.14 -0.48,0.34 -0.59,0.55 -0.3,0.49 -0.56,1.02 -0.79,1.62 -0.23,0.61 -0.49,1.1 -0.79,1.46 -0.93,1.12 -1.91,2.03 -2.98,2.78 -1.07,0.74 -2.16,1.25 -3.28,1.52 -0.7,0.2 -1.45,0.3 -2.22,0.31 -0.78,0.01 -1.55,-0.08 -2.35,-0.26 -0.55,-0.17 -1.16,-0.34 -1.81,-0.56 -0.63,-0.22 -1.24,-0.49 -1.82,-0.8 -1,-0.53 -1.9,-1.18 -2.7,-1.98 -0.78,-0.79 -1.48,-1.55 -2.04,-2.28 -0.71,-0.97 -0.97,-1.65 -0.76,-2.08 0.2,-0.42 0.41,-0.8 0.58,-1.13 0.13,-0.23 0.41,-0.53 0.87,-0.88 0.47,-0.37 1.29,-0.45 2.46,-0.25 0.35,0.09 0.79,0.22 1.32,0.43 0.55,0.21 0.99,0.35 1.35,0.39 0.32,0.02 0.56,-0.02 0.74,-0.15 0.16,-0.14 0.38,-0.2 0.64,-0.21 0.51,0.03 0.92,0.02 1.24,-0.06 0.3,-0.08 0.75,-0.17 1.33,-0.23 0.55,-0.1 1.05,-0.13 1.55,-0.09 0.47,0.03 0.95,-0.04 1.39,-0.23 0.4,-0.18 0.84,-0.4 1.35,-0.6 0.5,-0.22 0.94,-0.49 1.3,-0.84 0.4,-0.36 0.84,-0.92 1.31,-1.66 0.47,-0.74 0.82,-1.42 1.1,-2.07 0.42,-1.06 0.55,-2.23 0.33,-3.48 -0.22,-1.24 -0.67,-2.79 -1.39,-4.61 -0.74,-2.01 -1.81,-4.11 -3.2,-6.31 -1.37,-2.22 -2.95,-4.37 -4.73,-6.48 -1.33,-1.53 -2.71,-3.13 -4.14,-4.8 -1.43,-1.68 -2.93,-3.25 -4.54,-4.67 -2.14,-1.91 -4.35,-3.71 -6.61,-5.38 -2.27,-1.65 -4.46,-3.09 -6.62,-4.29 -0.56,-0.29 -1.12,-0.54 -1.69,-0.77 -0.57,-0.23 -1.11,-0.49 -1.61,-0.76 -0.3,0.49 -0.61,0.97 -0.91,1.48 -0.33,0.51 -0.64,1.02 -0.92,1.54 -0.28,0.54 -0.6,1.1 -0.98,1.71 -0.37,0.6 -0.76,1.23 -1.15,1.89 -0.11,0.21 -0.5,0.43 -1.13,0.59 -0.65,0.18 -1.37,0.26 -2.16,0.26 -0.48,0.05 -0.69,-0.09 -0.67,-0.38 0.03,-0.3 -0.17,-0.61 -0.6,-0.94 -0.12,-0.11 -0.51,-0.04 -1.14,0.19 -0.65,0.22 -1.07,0.32 -1.25,0.28 -0.24,-0.08 -0.65,-0.1 -1.22,-0.08 -0.58,0.04 -0.95,0.01 -1.11,-0.07 -0.7,-0.23 -1.2,-0.46 -1.51,-0.7 -0.3,-0.24 -0.36,-0.52 -0.19,-0.85 0.37,-0.69 0.82,-1.44 1.36,-2.25 0.55,-0.82 1.11,-1.67 1.7,-2.51 1.01,-1.35 2.14,-2.78 3.38,-4.28 1.25,-1.49 2.5,-2.93 3.78,-4.33 1.05,-1.18 2.15,-2.36 3.3,-3.53 1.13,-1.16 2.18,-2.24 3.12,-3.22 1.11,-1.12 2.09,-2.11 3.01,-2.98 0.91,-0.88 1.6,-1.56 2.07,-2.03 0.26,-0.28 0.84,-0.79 1.7,-1.47 0.86,-0.71 1.78,-1.29 2.73,-1.75 0.89,-0.42 1.61,-0.78 2.24,-1.11 0.61,-0.32 1.37,-0.61 2.25,-0.86zm53.7 3.18c-1.26,-1.22 -2.26,-2.33 -3.02,-3.31 -0.73,-0.99 -1.26,-1.8 -1.58,-2.48 -0.44,-0.3 -0.92,-0.61 -1.41,-0.9 -0.48,-0.46 -1.2,-1.32 -2.16,-2.54 -0.96,-1.23 -2.2,-2.85 -3.68,-4.9 -1.47,-1.93 -2.58,-3.46 -3.32,-4.57 -0.75,-1.12 -1.18,-1.81 -1.3,-2.1 -0.44,-0.31 -0.92,-0.65 -1.45,-1.01 -0.53,-0.36 -1.15,-0.71 -1.88,-1.05l-1.53 0.49 -0.62 -0.17c-0.58,-0.68 -1.17,-1.34 -1.76,-2.01 -0.61,-0.67 -1.17,-1.39 -1.68,-2.19 -0.75,-0.85 -1.33,-1.69 -1.71,-2.5 -0.38,-0.83 -0.69,-1.59 -0.92,-2.26 -0.02,-0.21 -0.09,-0.46 -0.18,-0.76 -0.11,-0.31 -0.18,-0.65 -0.23,-1.07 -0.54,-1.07 -1.09,-2.12 -1.64,-3.2 -0.56,-1.05 -1.06,-2.11 -1.53,-3.18 -0.33,-1.19 -0.32,-2.46 0.04,-3.79 0.35,-1.31 1.07,-2.65 2.11,-4.01 0.49,-1.18 0.94,-2.17 1.36,-2.95 0.42,-0.78 0.83,-1.36 1.18,-1.72 0.41,-0.43 0.87,-0.65 1.36,-0.67 0.48,0.01 0.95,0.22 1.4,0.66 0.19,0.18 0.69,0.91 1.55,2.19 0.82,1.28 1.95,3.11 3.34,5.48 0.56,0.7 1.17,1.58 1.83,2.64 0.65,1.07 1.41,2.35 2.26,3.89 0.89,1.75 1.91,3.62 3.09,5.6 1.18,1.99 2.55,4.11 4.12,6.33 0.67,0.94 1.3,1.89 1.92,2.85 0.62,0.94 1.25,1.88 1.93,2.84 0.74,1.08 1.47,2.09 2.16,3.03 0.7,0.92 1.37,1.72 2.03,2.36 0.25,0.23 0.52,0.44 0.79,0.6 0.28,0.18 0.5,0.37 0.71,0.57 0.3,0.17 0.63,0.51 0.97,0.97 0.33,0.47 0.73,1.03 1.21,1.68 0.43,0.64 0.82,1.22 1.17,1.74 0.35,0.52 0.64,0.89 0.87,1.11 1.15,1.11 2.14,1.98 2.92,2.58 0.78,0.63 1.34,0.99 1.66,1.12 0.81,0.39 1.68,0.79 2.6,1.26 0.38,0.37 0.28,1.61 -0.29,3.74 -0.58,2.11 -1.17,3.49 -1.77,4.1 -0.35,0.36 -0.76,0.6 -1.24,0.71 -0.48,0.09 -1.04,0.12 -1.74,0.06 -0.56,-0.14 -1.05,-0.29 -1.47,-0.45 -0.42,-0.16 -0.74,-0.35 -1,-0.6 -0.14,-0.13 -0.29,-0.4 -0.47,-0.81 -0.17,-0.41 -0.33,-0.69 -0.45,-0.81 -0.93,-0.41 -1.76,-0.69 -2.52,-0.81 0.17,0.28 0.1,0.27 -0.22,-0.03 -0.32,-0.32 -0.92,-0.9 -1.81,-1.75zm136.33 -76.28c-0.08,0.87 -0.45,1.88 -1.09,2.98 -0.64,1.1 -1.26,2.15 -1.88,3.16 -0.95,1.62 -2.3,3.26 -3.98,4.92 -1.71,1.67 -3.69,3.28 -5.94,4.83 -2.01,1.38 -4.19,2.67 -6.54,3.85 -2.34,1.17 -4.79,2.29 -7.32,3.34 -1.28,0.5 -2.63,1 -4,1.51 -1.39,0.51 -2.75,0.94 -4.1,1.33 -0.94,0.3 -1.59,0.5 -1.94,0.63 -0.34,0.12 -0.97,0.27 -1.89,0.47 0,0.03 0.1,0.19 0.3,0.48 0.19,0.27 0.29,0.43 0.3,0.46 0.16,0.21 -0.24,0.55 -1.21,0.95 -0.98,0.42 -1.67,0.75 -2.05,1 -0.43,0.29 -0.87,0.41 -1.37,0.39 -0.47,-0.03 -0.94,-0.35 -1.39,-0.96 -0.12,-0.14 -0.21,-0.29 -0.29,-0.45 -0.06,-0.17 -0.18,-0.31 -0.34,-0.44 -2.09,0.28 -3.88,0.48 -5.36,0.58 -1.48,0.11 -3.18,0.1 -5.09,-0.04 -0.32,-0.03 -0.67,-0.11 -1.05,-0.24 -0.41,-0.13 -0.74,-0.32 -1.03,-0.59 -0.27,-0.22 -0.42,-0.65 -0.47,-1.27 -0.04,-0.62 0.28,-1.02 0.94,-1.19 1.17,-0.28 2.33,-0.6 3.53,-0.96 1.19,-0.37 2.34,-0.75 3.49,-1.16 -0.23,-0.22 -0.48,-0.44 -0.78,-0.71 -0.3,-0.25 -0.58,-0.52 -0.86,-0.79 -0.31,-0.31 -0.46,-0.46 -0.41,-0.46 0.04,0.01 -0.11,-0.19 -0.47,-0.61 -0.41,-0.45 -0.8,-0.93 -1.21,-1.41 -0.42,-0.47 -0.76,-0.92 -1.07,-1.34 -0.38,-0.49 -0.66,-1 -0.88,-1.51 -0.22,-0.5 -0.31,-0.94 -0.33,-1.33 -0.04,-0.21 -0.04,-0.49 0,-0.84 0.04,-0.34 0.07,-0.71 0.12,-1.12 0.08,-0.69 0.22,-1.5 0.43,-2.4 0.23,-0.92 0.4,-1.9 0.54,-2.92 0.09,-0.76 0.18,-1.59 0.22,-2.44 0.06,-0.87 0.15,-1.75 0.27,-2.65 0.07,-0.49 0.16,-1.02 0.24,-1.57 0.11,-0.57 0.22,-1.1 0.32,-1.65 -1.46,0.38 -2.59,0.43 -3.38,0.17 -0.8,-0.27 -1.29,-0.71 -1.52,-1.36 -0.27,-0.83 0.36,-1.69 1.89,-2.56 1.56,-0.89 2.95,-1.52 4.23,-1.92 0.04,-0.42 0.11,-0.74 0.2,-0.92 0.08,-0.17 0.15,-0.46 0.2,-0.85 0.12,-0.7 0.26,-1.31 0.45,-1.8 0.16,-0.48 0.33,-1.07 0.43,-1.74 0.21,-0.9 0.36,-1.81 0.42,-2.66 0.08,-0.88 0.22,-1.73 0.38,-2.53 0.19,-0.81 0.31,-1.61 0.39,-2.39 0.08,-0.77 0.21,-1.51 0.4,-2.23 0.18,-0.81 0.41,-1.41 0.67,-1.79 0.28,-0.37 0.5,-0.9 0.64,-1.59 0.15,-0.58 0.3,-1.14 0.47,-1.68 0.18,-0.55 0.33,-1.1 0.49,-1.61 -0.54,-0.22 -1.06,-0.35 -1.61,-0.43 -0.54,-0.09 -0.84,-0.37 -0.9,-0.87 -0.06,-0.25 0.04,-0.83 0.31,-1.77 0.25,-0.92 0.42,-1.53 0.49,-1.83 0.05,-0.38 0.2,-0.82 0.47,-1.34 0.27,-0.53 0.47,-0.96 0.6,-1.31 0.08,-0.25 0.11,-0.54 0.07,-0.9 -0.02,-0.34 0.03,-0.63 0.16,-0.85 0.18,-0.22 0.44,-0.44 0.8,-0.65 0.38,-0.21 0.63,-0.4 0.77,-0.59 0.4,-0.55 0.77,-0.99 1.12,-1.36 0.33,-0.36 0.58,-0.56 0.68,-0.58 0.17,-0.04 0.44,-0.03 0.77,0.05 0.35,0.08 0.66,0.14 0.94,0.21 0.27,0.08 0.55,0.17 0.84,0.27 0.29,0.09 0.59,0.24 0.94,0.43 0.25,0.1 0.62,0.15 1.11,0.14 0.51,-0.01 0.88,0.06 1.13,0.19 0.3,0.24 0.71,0.48 1.17,0.76 0.48,0.26 0.85,0.5 1.11,0.7 0.71,0.47 1.17,0.98 1.4,1.52 0.23,0.55 0.41,0.89 0.57,1.02 0.33,0.28 0.43,0.75 0.32,1.4 -0.08,0.65 -0.29,1.35 -0.62,2.1 -0.11,0.32 -0.2,0.55 -0.28,0.72 -0.08,0.14 -0.2,0.4 -0.4,0.72 -0.06,0.15 -0.21,0.4 -0.42,0.75 -0.24,0.35 -0.41,0.59 -0.52,0.71 -0.08,0.18 -0.1,0.4 -0.04,0.67 0.05,0.25 0.02,0.51 -0.12,0.72 -0.16,0.26 -0.3,0.59 -0.41,0.98 -0.12,0.4 -0.26,0.71 -0.43,0.94 -0.54,0.93 -0.85,1.77 -0.93,2.55 -0.06,0.77 -0.17,1.42 -0.26,1.95 -0.17,0.91 -0.69,2.01 -1.58,3.29 -0.87,1.29 -1.41,2.56 -1.59,3.82 -0.12,0.8 -0.21,1.43 -0.26,1.92 -0.05,0.47 -0.12,1 -0.22,1.56 0.84,-0.34 1.69,-0.55 2.54,-0.64 0.86,-0.08 1.67,-0.25 2.44,-0.52 1.11,-0.36 2.1,-0.67 2.98,-0.96 0.87,-0.28 1.63,-0.49 2.26,-0.63 1.13,-0.24 2.3,-0.44 3.51,-0.6 1.2,-0.15 2.4,-0.31 3.54,-0.42 1.03,-0.08 2.07,-0.14 3.14,-0.15 1.07,-0.02 2.1,-0.04 3.06,-0.04 1.47,-0.03 2.91,0.02 4.35,0.15 1.42,0.14 2.74,0.29 3.96,0.44 0.95,0.16 1.8,0.38 2.58,0.64 0.79,0.26 1.42,0.57 1.87,0.92 0.43,0.34 0.8,0.69 1.14,1.05 0.35,0.37 0.7,0.87 1.04,1.54 0.15,0.27 0.33,0.59 0.53,1 0.18,0.42 0.32,0.79 0.4,1.13 0.04,0.21 0.12,0.47 0.25,0.79 0.14,0.32 0.24,0.59 0.29,0.83 0.05,0.22 0.32,0.35 0.86,0.35 0.52,0.02 0.81,0.15 0.87,0.41 0.06,0.3 0.1,0.47 0.11,0.5 0,0.03 0.04,0.21 0.1,0.51 0.05,0.22 0.1,0.47 0.15,0.79 0.04,0.31 0.06,0.6 0.07,0.86 0,0.21 0.01,0.58 0.02,1.05 0.01,0.48 0.04,0.82 0.04,1.02zm-11.74 -0.28c0.02,-0.15 -0.01,-0.36 -0.08,-0.61 -0.07,-0.23 -0.17,-0.48 -0.26,-0.7 -0.09,-0.18 -0.19,-0.34 -0.31,-0.5 -0.12,-0.16 -0.22,-0.3 -0.34,-0.44 -0.18,-0.22 -0.35,-0.39 -0.51,-0.5 -0.15,-0.1 -0.37,-0.25 -0.6,-0.42 -0.21,-0.12 -0.48,-0.23 -0.81,-0.34 -0.32,-0.11 -0.58,-0.19 -0.77,-0.25 -0.97,-0.24 -1.96,-0.47 -2.99,-0.68 -1.03,-0.23 -2.18,-0.38 -3.47,-0.45 -2.51,-0.14 -5.19,-0.19 -7.95,-0.13 -2.78,0.07 -5.63,0.34 -8.55,0.83 -0.84,0.14 -1.63,0.3 -2.36,0.45 -0.73,0.16 -1.5,0.32 -2.29,0.49 -0.09,0.73 -0.2,1.48 -0.26,2.23 -0.09,0.76 -0.17,1.52 -0.28,2.27 -0.1,1 -0.2,2.01 -0.31,3.06 -0.1,1.02 -0.18,2.03 -0.23,3.02 -0.07,0.97 -0.1,1.95 -0.15,2.9 -0.02,0.96 -0.04,1.89 -0.01,2.79 0.05,1.28 0.11,2.52 0.19,3.75 0.09,1.23 0.24,2.38 0.47,3.45 0.1,0.46 0.15,0.7 0.13,0.7 -0.03,0.01 0.02,0.23 0.11,0.66 0.15,-0.04 0.45,-0.08 0.85,-0.12 0.42,-0.04 0.7,-0.08 0.86,-0.15 0.52,-0.21 1.02,-0.38 1.52,-0.52 0.49,-0.14 1.02,-0.3 1.54,-0.48 2.64,-0.9 5.09,-1.9 7.35,-2.98 2.28,-1.08 4.4,-2.22 6.43,-3.43 2.93,-1.78 5.25,-3.41 6.91,-4.86 1.67,-1.48 3.16,-3.02 4.42,-4.64 0.31,-0.43 0.59,-0.82 0.82,-1.2 0.26,-0.37 0.45,-0.75 0.59,-1.13 0.12,-0.29 0.2,-0.64 0.27,-1.03 0.08,-0.4 0.09,-0.75 0.07,-1.04zm80.27 9.73c1.4,2.94 2.09,4.49 2.07,4.65 -0.93,0.55 -2.17,1.14 -3.7,1.79 -1.54,0.64 -3.43,1.33 -5.62,2.12 -2.35,0.85 -4.3,1.44 -5.86,1.75 -1.58,0.31 -2.76,0.43 -3.57,0.33 -1.73,-0.22 -3.26,-0.74 -4.54,-1.57 -1.31,-0.83 -2.36,-2 -3.16,-3.53 -0.11,-0.2 -0.21,-0.43 -0.34,-0.67 -0.12,-0.26 -0.27,-0.52 -0.45,-0.8 -0.95,-0.89 -1.88,-1.76 -2.77,-2.62 -0.43,-0.44 -1.21,-1.45 -2.34,-3.04 -1.15,-1.59 -2.56,-3.73 -4.25,-6.46 -0.75,-1.26 -1.56,-2.55 -2.42,-3.85 -0.87,-1.33 -1.78,-2.66 -2.74,-4.02 -0.32,0.29 -0.76,0.97 -1.25,2.06 -0.51,1.11 -1.05,2.62 -1.61,4.55 -0.04,0.31 -0.26,0.82 -0.61,1.51 -0.37,0.68 -0.59,1.19 -0.63,1.53 -0.02,0.16 0.02,0.42 0.08,0.81 0.07,0.36 0.08,0.62 0.06,0.78 -0.13,1.01 -0.51,2.49 -1.13,4.48 -0.64,1.99 -1.02,3.49 -1.14,4.48 -0.1,0.82 -0.35,1.39 -0.74,1.73 -0.42,0.33 -1.05,0.44 -1.9,0.34 -0.88,-0.17 -1.56,-0.36 -2.07,-0.55 -0.64,0.05 -1.24,0.08 -1.81,0.07 -0.46,-0.05 -0.8,-0.31 -1.03,-0.77 -0.23,-0.46 -0.28,-1.13 -0.17,-2.04 0.04,-0.32 0.21,-0.81 0.51,-1.47 0.28,-0.66 0.45,-1.18 0.5,-1.55 0.03,-0.25 0.01,-0.66 -0.05,-1.22 -0.04,-0.56 -0.06,-0.97 -0.03,-1.23 0.04,-0.25 0.22,-1.01 0.57,-2.3 0.36,-1.29 0.9,-3.16 1.61,-5.58 0.71,-2.48 1.28,-4.44 1.76,-5.88 0.49,-1.44 0.81,-2.29 0.96,-2.6 0.16,-0.21 0.36,-0.44 0.62,-0.73 0.26,-0.28 0.43,-0.65 0.57,-1.07l-0.62 -2.8c0.52,-1.39 1.19,-3.46 2.01,-6.2 0.85,-2.75 1.87,-6.2 3.06,-10.38 0.68,-2.45 1.22,-4.35 1.61,-5.71 0.39,-1.35 0.59,-2.12 0.66,-2.31 0.76,-1.2 1.81,-2.16 3.13,-2.86 1.34,-0.72 2.99,-1.18 4.95,-1.38 0.28,-0.1 0.6,-0.22 1,-0.4 0.37,-0.18 0.84,-0.37 1.39,-0.59 0.55,0 1.18,0.65 1.88,1.94 0.7,1.3 1.03,2.22 0.96,2.8 -0.03,0.24 -0.12,0.57 -0.26,0.99 -0.13,0.41 -0.37,0.88 -0.68,1.41 -0.39,0.66 -0.69,1.19 -0.9,1.6 -0.23,0.43 -0.37,0.7 -0.43,0.86 -0.89,1.63 -1.91,3.7 -3.1,6.19 -1.17,2.49 -2.46,5.45 -3.91,8.85 -0.12,0.28 -0.27,0.62 -0.41,1.03 -0.16,0.42 -0.42,0.89 -0.73,1.47 -0.24,0.51 -0.45,0.97 -0.64,1.38 -0.18,0.44 -0.29,0.8 -0.33,1.12 -0.05,0.4 0.11,0.87 0.48,1.44 1.3,-0.2 3.5,-1.23 6.58,-3.11 3.05,-1.87 7.04,-4.55 11.94,-8.02 4.99,-3.52 8.77,-6.4 11.34,-8.67 2.55,-2.29 3.9,-3.93 4.02,-4.97 0.05,-0.37 -0.22,-0.89 -0.82,-1.55 -0.58,-0.66 -0.84,-1.2 -0.79,-1.61 0.09,-0.8 0.68,-1.43 1.77,-1.85 1.08,-0.42 2.68,-0.65 4.8,-0.68 0.41,0.04 1.12,-0.17 2.07,-0.57 0.96,-0.41 1.75,-0.57 2.38,-0.49 0.62,0.17 1.22,0.31 1.76,0.41 0.75,-0.2 1.48,-0.4 2.21,-0.64 0.58,0.54 0.97,1.13 1.18,1.74 0.21,0.61 0.26,1.3 0.17,2.05 -0.19,1.49 -0.59,2.79 -1.23,3.87 -0.62,1.08 -1.49,1.91 -2.6,2.48 -0.3,0.14 -0.65,0.32 -1.01,0.54 -0.38,0.2 -0.76,0.44 -1.12,0.71 -0.83,0.99 -1.91,2.04 -3.24,3.18 -1.35,1.13 -2.93,2.37 -4.77,3.7 -4.06,2.87 -7.76,5.36 -11.13,7.5 -3.35,2.13 -6.36,3.89 -9.03,5.27 -1.1,0.6 -1.94,1.13 -2.53,1.58 -0.56,0.45 -0.87,0.86 -0.92,1.23 0.59,1.13 1.12,2.16 1.56,3.1 0.8,1.94 1.64,3.85 2.56,5.7 0.92,1.87 1.81,3.74 2.71,5.62 1.52,2.85 3.02,5.04 4.44,6.53 1.43,1.49 2.8,2.33 4.13,2.49 0.22,0.03 0.87,-0.09 1.98,-0.31 1.08,-0.24 2.56,-0.56 4.38,-1.02 0.42,-0.36 1.3,-0.75 2.63,-1.17 1.31,-0.43 2.01,-0.73 2.08,-0.92zm9.84 -1.81c0.04,-0.37 0.08,-0.66 0.15,-0.87 0.07,-0.22 0.14,-0.38 0.21,-0.53 0.42,-0.96 0.94,-1.7 1.55,-2.24 0.62,-0.54 1.33,-0.89 2.16,-1.09 0.2,-0.03 0.68,-0.03 1.45,0.03 0.73,0.06 1.7,0.15 2.9,0.32 0.85,0.06 1.59,0.02 2.19,-0.14 0.62,-0.16 1.05,-0.49 1.33,-1 0.3,-0.34 0.72,-0.7 1.31,-1.06 0.6,-0.37 1.25,-0.75 1.99,-1.14 0.22,-0.1 1.14,-0.89 2.73,-2.36 1.59,-1.47 3.87,-3.63 6.84,-6.53 0.85,-0.89 1.66,-1.63 2.38,-2.24 0.75,-0.61 1.39,-1.12 1.89,-1.55 2.35,-1.89 4.08,-3.04 5.23,-3.45 1.13,-0.4 2.01,-0.76 2.61,-1.08l0.1 -0.22 -0.88 -2.92 3.16 -0.92 3.11 0.87c0.61,0.2 1.33,0.02 2.16,-0.49 0.81,-0.54 2.04,-0.98 3.63,-1.33 0.31,0.06 0.83,0.08 1.57,0.04 0.73,-0.03 1.7,-0.11 2.88,-0.24 1.04,-0.13 1.9,-0.18 2.58,-0.15 0.68,0.03 1.19,0.12 1.51,0.26 1.04,0.46 1.73,0.96 2.07,1.49 0.32,0.53 0.37,1.05 0.14,1.56 -0.28,0.64 -1.15,1.36 -2.57,2.18 -1.44,0.81 -2.3,1.52 -2.59,2.15 -0.13,0.3 -0.13,0.58 -0.06,0.84 0.1,0.26 0.24,0.48 0.46,0.63l5.79 5.95c0.32,0.29 0.49,0.89 0.45,1.83 -0.05,0.93 -0.28,2.13 -0.69,3.59 -0.29,1.25 -0.52,2.3 -0.74,3.12 -0.2,0.83 -0.39,1.47 -0.6,1.94 -0.83,1.12 -1.67,2.24 -2.5,3.4 -0.33,1.77 -0.65,3.67 -0.98,5.65 -1,1.59 -2.01,3.23 -3.07,4.86 -0.08,0.17 -0.09,0.35 -0.07,0.52 0.05,0.16 0.17,0.32 0.34,0.43 0.67,0.33 1.09,0.66 1.33,1.05 0.23,0.39 0.25,0.77 0.08,1.17 -0.24,0.53 -0.52,0.88 -0.87,1.09 -0.36,0.21 -0.77,0.32 -1.24,0.3 -0.6,0.01 -1.1,0.04 -1.47,0.07 -0.36,0.05 -0.62,0.11 -0.79,0.18l-0.43 3 -3.79 5.67c-0.24,0.53 -0.59,1.15 -1.07,1.91 -0.48,0.76 -1.05,1.61 -1.77,2.58 -0.74,0.59 -1.31,1.12 -1.74,1.54 -0.44,0.44 -0.69,0.74 -0.77,0.92 -0.02,0.57 -0.07,1.17 -0.15,1.79 -0.59,0.67 -1.17,1.34 -1.78,2 -0.6,0.66 -1.19,1.32 -1.76,1.97 -0.87,0.81 -1.75,1.3 -2.67,1.48 -0.93,0.15 -1.85,0.02 -2.77,-0.39 -0.52,-0.23 -0.83,-0.56 -0.94,-1.02 -0.1,-0.43 -0.01,-0.99 0.28,-1.66 0.13,-0.28 0.4,-0.67 0.78,-1.15 0.36,-0.49 0.63,-0.87 0.76,-1.17 0.08,-0.19 0.17,-0.49 0.24,-0.86 0.08,-0.39 0.17,-0.7 0.29,-0.97 0.36,-0.81 1.03,-2.05 2.04,-3.72 1,-1.67 1.7,-2.97 2.1,-3.85 0.03,-0.57 0.06,-1.18 0.09,-1.78 0.37,-0.49 0.7,-1.02 0.98,-1.56 0.29,-0.54 0.5,-1.07 0.65,-1.61l1.4 -0.77 1.02 -4.35 -0.36 -0.32c-0.24,-0.1 -0.6,-0.2 -1.1,-0.26 -0.52,-0.07 -1.15,-0.11 -1.97,-0.11 -0.5,-0.1 -1.3,-0.3 -2.34,-0.6 -1.05,-0.33 -2.41,-0.83 -4.06,-1.53 -0.81,-0.06 -1.58,-0.12 -2.31,-0.2 -0.96,-0.27 -2.19,-0.51 -3.73,-0.76 -1.52,-0.25 -3.29,-0.51 -5.32,-0.8 -1.23,-0.08 -2.32,-0.22 -3.3,-0.4 -0.97,-0.17 -1.74,-0.39 -2.34,-0.66 -0.46,-0.2 -0.92,-0.25 -1.34,-0.11 -0.43,0.1 -0.86,0.37 -1.25,0.78 -0.33,0.4 -0.89,0.91 -1.71,1.52 -0.8,0.6 -1.85,1.35 -3.13,2.23 -0.29,0.24 -0.73,0.63 -1.29,1.17 -0.57,0.54 -1.26,1.23 -2.03,2.05 -0.41,0.28 -0.9,0.62 -1.45,1.05 -0.57,0.42 -1.22,0.91 -1.93,1.49 -0.15,0.34 -0.41,0.74 -0.71,1.21 -0.33,0.47 -0.74,0.97 -1.22,1.55 -0.38,0.31 -0.87,0.71 -1.48,1.18 -0.62,0.47 -1.34,0.96 -2.17,1.49 -0.53,0.32 -1.12,0.46 -1.8,0.42 -0.69,-0.04 -1.5,-0.28 -2.44,-0.7 -0.66,-0.29 -1.11,-0.68 -1.32,-1.18 -0.23,-0.5 -0.18,-1.09 0.13,-1.79 0.33,-0.75 0.83,-1.55 1.5,-2.4 0.65,-0.88 1.5,-1.76 2.51,-2.68 1.24,-1.29 2.25,-2.32 3.07,-3.09 0.81,-0.79 1.35,-1.4 1.59,-1.84 0.21,-0.15 0.53,-0.43 1,-0.84 0.47,-0.41 1.01,-0.93 1.67,-1.54 0.68,-0.56 1.36,-1.24 2.09,-2.02l-0.14 -0.48 -1.96 -0.61c-0.43,-0.23 -0.69,-0.5 -0.77,-0.8 -0.09,-0.33 -0.05,-0.68 0.11,-1.05 0.09,-0.21 0.23,-0.41 0.42,-0.61 0.19,-0.22 0.44,-0.46 0.73,-0.73zm24.81 1.52c0.88,0.39 2.29,0.82 4.18,1.3 1.91,0.46 3.3,0.88 4.2,1.28 0.5,0.33 1.03,0.65 1.54,0.95 1.05,0.29 2.08,0.56 3.1,0.78 1.02,0.24 2.04,0.48 3.08,0.79 0.42,0.12 0.76,0.12 1.02,0.07 0.27,-0.08 0.46,-0.24 0.58,-0.51 0.3,-0.89 0.53,-1.49 0.67,-1.82 0.24,-0.54 0.56,-1.15 0.95,-1.76 0.41,-0.64 0.88,-1.28 1.38,-1.92l0.16 -2.24 1.03 -1.66c0.12,-0.71 0.27,-1.37 0.42,-1.97 0.15,-0.61 0.34,-1.09 0.59,-1.42 -0.03,-0.15 -0.07,-0.4 -0.15,-0.74 -0.09,-0.35 -0.18,-0.73 -0.28,-1.11 -0.18,-0.66 -0.37,-1.31 -0.57,-1.93 -0.22,-0.65 -0.42,-1.27 -0.61,-1.92 -0.3,-0.78 -0.7,-1.44 -1.22,-1.99 -0.51,-0.53 -1.09,-0.95 -1.75,-1.24 -0.78,-0.35 -1.78,-0.25 -3.01,0.32 -1.23,0.55 -2.61,1.61 -4.17,3.16 -0.2,0.2 -0.75,0.52 -1.59,1.01 -0.85,0.49 -2.02,1.08 -3.51,1.79 -0.65,1.02 -1.78,2.16 -3.4,3.38 -1.62,1.23 -3.71,2.59 -6.28,4.06 -0.3,0.12 -0.47,0.25 -0.55,0.38 -0.09,0.13 -0.18,0.29 -0.25,0.45 -0.1,0.21 -0.1,0.38 -0.01,0.55 0.1,0.16 0.28,0.3 0.56,0.42 0.4,0.18 1.03,0.42 1.93,0.77 0.9,0.33 1.56,0.59 1.96,0.77z"/>
</svg>
